  0
SECTION
  2
HEADER
  9
$ACADVER
  1
AC1027
  9
$ACADMAINTVER
 70
     8
  9
$DWGCODEPAGE
  3
ANSI_1252
  9
$REQUIREDVERSIONS
160
                 0
  9
$LASTSAVEDBY
  1
philipp.haug
  9
$INSBASE
 10
0.0
 20
0.0
 30
0.0
  9
$EXTMIN
 10
-0.5
 20
-0.5
 30
-0.5
  9
$EXTMAX
 10
5.0
 20
5.0
 30
5.0
  9
$LIMMIN
 10
-0.5
 20
-0.5
  9
$LIMMAX
 10
5.0
 20
5.0
  9
$ORTHOMODE
 70
     0
  9
$REGENMODE
 70
     1
  9
$FILLMODE
 70
     1
  9
$QTEXTMODE
 70
     0
  9
$MIRRTEXT
 70
     1
  9
$LTSCALE
 40
1.0
  9
$ATTMODE
 70
     1
  9
$TEXTSIZE
 40
0.2
  9
$TRACEWID
 40
0.05
  9
$TEXTSTYLE
  7
Standard
  9
$CLAYER
  8
0
  9
$CELTYPE
  6
ByLayer
  9
$CECOLOR
 62
   256
  9
$CELTSCALE
 40
1.0
  9
$DISPSILH
 70
     0
  9
$DIMSCALE
 40
1.0
  9
$DIMASZ
 40
0.18
  9
$DIMEXO
 40
0.0625
  9
$DIMDLI
 40
0.38
  9
$DIMRND
 40
0.0
  9
$DIMDLE
 40
0.0
  9
$DIMEXE
 40
0.18
  9
$DIMTP
 40
0.0
  9
$DIMTM
 40
0.0
  9
$DIMTXT
 40
0.18
  9
$DIMCEN
 40
0.09
  9
$DIMTSZ
 40
0.0
  9
$DIMTOL
 70
     0
  9
$DIMLIM
 70
     0
  9
$DIMTIH
 70
     1
  9
$DIMTOH
 70
     1
  9
$DIMSE1
 70
     0
  9
$DIMSE2
 70
     0
  9
$DIMTAD
 70
     0
  9
$DIMZIN
 70
     0
  9
$DIMBLK
  1

  9
$DIMASO
 70
     1
  9
$DIMSHO
 70
     1
  9
$DIMPOST
  1

  9
$DIMAPOST
  1

  9
$DIMALT
 70
     0
  9
$DIMALTD
 70
     2
  9
$DIMALTF
 40
25.4
  9
$DIMLFAC
 40
1.0
  9
$DIMTOFL
 70
     0
  9
$DIMTVP
 40
0.0
  9
$DIMTIX
 70
     0
  9
$DIMSOXD
 70
     0
  9
$DIMSAH
 70
     0
  9
$DIMBLK1
  1

  9
$DIMBLK2
  1

  9
$DIMSTYLE
  2
Standard
  9
$DIMCLRD
 70
     0
  9
$DIMCLRE
 70
     0
  9
$DIMCLRT
 70
     0
  9
$DIMTFAC
 40
1.0
  9
$DIMGAP
 40
0.09
  9
$DIMJUST
 70
     0
  9
$DIMSD1
 70
     0
  9
$DIMSD2
 70
     0
  9
$DIMTOLJ
 70
     1
  9
$DIMTZIN
 70
     0
  9
$DIMALTZ
 70
     0
  9
$DIMALTTZ
 70
     0
  9
$DIMUPT
 70
     0
  9
$DIMDEC
 70
     4
  9
$DIMTDEC
 70
     4
  9
$DIMALTU
 70
     2
  9
$DIMALTTD
 70
     2
  9
$DIMTXSTY
  7
Standard
  9
$DIMAUNIT
 70
     0
  9
$DIMADEC
 70
     0
  9
$DIMALTRND
 40
0.0
  9
$DIMAZIN
 70
     0
  9
$DIMDSEP
 70
    46
  9
$DIMATFIT
 70
     3
  9
$DIMFRAC
 70
     0
  9
$DIMLDRBLK
  1

  9
$DIMLUNIT
 70
     2
  9
$DIMLWD
 70
    -2
  9
$DIMLWE
 70
    -2
  9
$DIMTMOVE
 70
     0
  9
$DIMFXL
 40
1.0
  9
$DIMFXLON
 70
     0
  9
$DIMJOGANG
 40
0.785398
  9
$DIMTFILL
 70
     0
  9
$DIMTFILLCLR
 70
     0
  9
$DIMARCSYM
 70
     0
  9
$DIMLTYPE
  6

  9
$DIMLTEX1
  6

  9
$DIMLTEX2
  6

  9
$DIMTXTDIRECTION
 70
     0
  9
$LUNITS
 70
     2
  9
$LUPREC
 70
     4
  9
$SKETCHINC
 40
0.1
  9
$FILLETRAD
 40
0.0
  9
$AUNITS
 70
     0
  9
$AUPREC
 70
     0
  9
$MENU
  1
.
  9
$ELEVATION
 40
0.0
  9
$PELEVATION
 40
0.0
  9
$THICKNESS
 40
0.0
  9
$LIMCHECK
 70
     0
  9
$CHAMFERA
 40
0.0
  9
$CHAMFERB
 40
0.0
  9
$CHAMFERC
 40
0.0
  9
$CHAMFERD
 40
0.0
  9
$SKPOLY
 70
     0
  9
$TDCREATE
 40
2460085.590044502
  9
$TDUCREATE
 40
2460085.506711169
  9
$TDUPDATE
 40
2460086.421077882
  9
$TDUUPDATE
 40
2460086.337744548
  9
$TDINDWG
 40
0.0000000116
  9
$TDUSRTIMER
 40
0.0000000116
  9
$USRTIMER
 70
     1
  9
$ANGBASE
 50
0.0
  9
$ANGDIR
 70
     0
  9
$PDMODE
 70
     0
  9
$PDSIZE
 40
0.0
  9
$PLINEWID
 40
0.0
  9
$SPLFRAME
 70
     0
  9
$SPLINETYPE
 70
     6
  9
$SPLINESEGS
 70
     8
  9
$HANDSEED
  5
248
  9
$SURFTAB1
 70
     6
  9
$SURFTAB2
 70
     6
  9
$SURFTYPE
 70
     6
  9
$SURFU
 70
     6
  9
$SURFV
 70
     6
  9
$UCSBASE
  2

  9
$UCSNAME
  2

  9
$UCSORG
 10
0.0
 20
0.0
 30
0.0
  9
$UCSXDIR
 10
1.0
 20
0.0
 30
0.0
  9
$UCSYDIR
 10
0.0
 20
1.0
 30
0.0
  9
$UCSORTHOREF
  2

  9
$UCSORTHOVIEW
 70
     0
  9
$UCSORGTOP
 10
0.0
 20
0.0
 30
0.0
  9
$UCSORGBOTTOM
 10
0.0
 20
0.0
 30
0.0
  9
$UCSORGLEFT
 10
0.0
 20
0.0
 30
0.0
  9
$UCSORGRIGHT
 10
0.0
 20
0.0
 30
0.0
  9
$UCSORGFRONT
 10
0.0
 20
0.0
 30
0.0
  9
$UCSORGBACK
 10
0.0
 20
0.0
 30
0.0
  9
$PUCSBASE
  2

  9
$PUCSNAME
  2

  9
$PUCSORG
 10
0.0
 20
0.0
 30
0.0
  9
$PUCSXDIR
 10
1.0
 20
0.0
 30
0.0
  9
$PUCSYDIR
 10
0.0
 20
1.0
 30
0.0
  9
$PUCSORTHOREF
  2

  9
$PUCSORTHOVIEW
 70
     0
  9
$PUCSORGTOP
 10
0.0
 20
0.0
 30
0.0
  9
$PUCSORGBOTTOM
 10
0.0
 20
0.0
 30
0.0
  9
$PUCSORGLEFT
 10
0.0
 20
0.0
 30
0.0
  9
$PUCSORGRIGHT
 10
0.0
 20
0.0
 30
0.0
  9
$PUCSORGFRONT
 10
0.0
 20
0.0
 30
0.0
  9
$PUCSORGBACK
 10
0.0
 20
0.0
 30
0.0
  9
$USERI1
 70
     0
  9
$USERI2
 70
     0
  9
$USERI3
 70
     0
  9
$USERI4
 70
     0
  9
$USERI5
 70
     0
  9
$USERR1
 40
0.0
  9
$USERR2
 40
0.0
  9
$USERR3
 40
0.0
  9
$USERR4
 40
0.0
  9
$USERR5
 40
0.0
  9
$WORLDVIEW
 70
     1
  9
$SHADEDGE
 70
     3
  9
$SHADEDIF
 70
    70
  9
$TILEMODE
 70
     1
  9
$MAXACTVP
 70
    64
  9
$PINSBASE
 10
0.0
 20
0.0
 30
0.0
  9
$PLIMCHECK
 70
     0
  9
$PEXTMIN
 10
-0.5
 20
-0.5
 30
-0.5
  9
$PEXTMAX
 10
5.0
 20
5.0
 30
5.0
  9
$PLIMMIN
 10
-0.5
 20
-0.5
  9
$PLIMMAX
 10
5.0
 20
5.0
  9
$UNITMODE
 70
     0
  9
$VISRETAIN
 70
     1
  9
$PLINEGEN
 70
     0
  9
$PSLTSCALE
 70
     0
  9
$TREEDEPTH
 70
  3020
  9
$CMLSTYLE
  2
Standard
  9
$CMLJUST
 70
     0
  9
$CMLSCALE
 40
1.0
  9
$PROXYGRAPHICS
 70
     1
  9
$MEASUREMENT
 70
     1
  9
$CELWEIGHT
370
    70
  9
$ENDCAPS
280
     0
  9
$JOINSTYLE
280
     0
  9
$LWDISPLAY
290
     1
  9
$INSUNITS
 70
     4
  9
$HYPERLINKBASE
  1

  9
$STYLESHEET
  1

  9
$XEDIT
290
     1
  9
$CEPSNTYPE
380
     0
  9
$PSTYLEMODE
290
     1
  9
$FINGERPRINTGUID
  2
{4d611e41-be86-494a-86f5-8528e4c2a7ff}
  9
$VERSIONGUID
  2
{FAEB1C32-E019-11D5-929B-00C0DF256EC4}
  9
$EXTNAMES
290
     1
  9
$PSVPSCALE
 40
0.0
  9
$OLESTARTUP
290
     0
  9
$SORTENTS
280
   127
  9
$INDEXCTL
280
     0
  9
$HIDETEXT
280
     1
  9
$XCLIPFRAME
280
     2
  9
$HALOGAP
280
     0
  9
$OBSCOLOR
 70
   257
  9
$OBSLTYPE
280
     0
  9
$INTERSECTIONDISPLAY
280
     0
  9
$INTERSECTIONCOLOR
 70
   257
  9
$DIMASSOC
280
     2
  9
$PROJECTNAME
  1

  9
$CAMERADISPLAY
290
     0
  9
$LENSLENGTH
 40
50.0
  9
$CAMERAHEIGHT
 40
0.0
  9
$STEPSPERSEC
 40
2.0
  9
$STEPSIZE
 40
6.0
  9
$3DDWFPREC
 40
2.0
  9
$PSOLWIDTH
 40
0.25
  9
$PSOLHEIGHT
 40
4.0
  9
$LOFTANG1
 40
1.570796
  9
$LOFTANG2
 40
1.570796
  9
$LOFTMAG1
 40
0.0
  9
$LOFTMAG2
 40
0.0
  9
$LOFTPARAM
 70
     7
  9
$LOFTNORMALS
280
     1
  9
$LATITUDE
 40
37.795
  9
$LONGITUDE
 40
-122.394
  9
$NORTHDIRECTION
 40
0.0
  9
$TIMEZONE
 70
 -8000
  9
$LIGHTGLYPHDISPLAY
280
     1
  9
$TILEMODELIGHTSYNCH
280
     1
  9
$SOLIDHIST
280
     1
  9
$SHOWHIST
280
     1
  9
$DWFFRAME
280
     2
  9
$DGNFRAME
280
     2
  9
$REALWORLDSCALE
290
     1
  9
$INTERFERECOLOR
 62
   256
  9
$CSHADOW
280
     0
  9
$SHADOWPLANELOCATION
 40
0.0
  0
ENDSEC
  0
SECTION
  2
CLASSES
  0
CLASS
  1
ACDBDICTIONARYWDFLT
  2
AcDbDictionaryWithDefault
  3
ObjectDBX Classes
 90
        0
 91
        6
280
     0
281
     0
  0
CLASS
  1
VISUALSTYLE
  2
AcDbVisualStyle
  3
ObjectDBX Classes
 90
     4095
 91
        5
280
     0
281
     0
  0
CLASS
  1
MATERIAL
  2
AcDbMaterial
  3
ObjectDBX Classes
 90
     1153
 91
        5
280
     0
281
     0
  0
CLASS
  1
SCALE
  2
AcDbScale
  3
ObjectDBX Classes
 90
     1153
 91
        5
280
     0
281
     0
  0
CLASS
  1
TABLESTYLE
  2
AcDbTableStyle
  3
ObjectDBX Classes
 90
     4095
 91
        5
280
     0
281
     0
  0
CLASS
  1
MLEADERSTYLE
  2
AcDbMLeaderStyle
  3
ACDB_MLEADERSTYLE_CLASS
 90
     4095
 91
        4
280
     0
281
     0
  0
CLASS
  1
SUN
  2
AcDbSun
  3
SCENEOE
 90
     1153
 91
        5
280
     0
281
     0
  0
CLASS
  1
RASTERVARIABLES
  2
AcDbRasterVariables
  3
ISM
 90
        0
 91
        4
280
     0
281
     0
  0
CLASS
  1
DICTIONARYVAR
  2
AcDbDictionaryVar
  3
ObjectDBX Classes
 90
        0
 91
        4
280
     0
281
     0
  0
CLASS
  1
CELLSTYLEMAP
  2
AcDbCellStyleMap
  3
ObjectDBX Classes
 90
     1152
 91
        4
280
     0
281
     0
  0
CLASS
  1
CSACDOCUMENTOPTIONS
  2
CDocDataContainer
  3
"DERU003_CSAPP"
 90
     4095
 91
        4
280
     0
281
     0
  0
ENDSEC
  0
SECTION
  2
TABLES
  0
TABLE
  2
VPORT
  5
8
330
0
100
AcDbSymbolTable
 70
    16
  0
VPORT
  5
29
330
8
100
AcDbSymbolTableRecord
100
AcDbViewportTableRecord
  2
*Active
 70
     0
 10
0.0
 20
0.0
 11
1.0
 21
1.0
 12
54.674276
 22
21.960014
 13
0.0
 23
0.0
 14
0.5
 24
0.5
 15
0.5
 25
0.5
 16
0.0
 26
0.0
 36
1.0
 17
0.0
 27
0.0
 37
0.0
 40
112.888889
 41
3.065511
 42
50.0
 43
238.482618
 44
-238.482618
 50
0.0
 51
0.0
 71
    16
 72
   100
 73
     1
 74
     3
 75
     0
 76
     0
 77
     0
 78
     0
281
     0
 65
     1
110
0.0
120
0.0
130
0.0
111
1.0
121
0.0
131
0.0
112
0.0
122
1.0
132
0.0
 79
     0
146
0.0
 60
     3
 61
     5
292
     1
282
     1
141
0.0
142
0.0
 63
   256
361
23D
  0
VPORT
  5
1E2
330
8
100
AcDbSymbolTableRecord
100
AcDbViewportTableRecord
  2
L1
 70
     0
 10
0.0
 20
0.0
 11
1.0
 21
1.0
 12
75.0
 22
10.0
 13
0.0
 23
0.0
 14
0.5
 24
0.5
 15
0.5
 25
0.5
 16
0.0
 26
0.0
 36
1.0
 17
0.0
 27
0.0
 37
0.0
 40
254.0
 41
0.069908
 42
50.0
 43
238.482618
 44
-238.482618
 50
0.0
 51
0.0
 71
     0
 72
   100
 73
     1
 74
     3
 75
     0
 76
     0
 77
     0
 78
     0
281
     0
 65
     1
110
0.0
120
0.0
130
0.0
111
1.0
121
0.0
131
0.0
112
0.0
122
1.0
132
0.0
 79
     0
146
0.0
348
2F
 60
     3
 61
     5
292
     1
282
     1
141
0.0
142
0.0
 63
   256
  0
VPORT
  5
1E3
330
8
100
AcDbSymbolTableRecord
100
AcDbViewportTableRecord
  2
L2
 70
     0
 10
0.0
 20
0.0
 11
0.5
 21
1.0
 12
0.0
 22
0.0
 13
0.0
 23
0.0
 14
0.5
 24
0.5
 15
0.5
 25
0.5
 16
0.0
 26
-1.0
 36
0.0
 17
0.0
 27
0.0
 37
0.0
 40
1693.815381
 41
0.010483
 42
50.0
 43
874.465193
 44
-874.465193
 50
0.0
 51
0.0
 71
     0
 72
   100
 73
     1
 74
     3
 75
     0
 76
     0
 77
     0
 78
     0
281
     0
 65
     1
110
0.0
120
0.0
130
0.0
111
1.0
121
0.0
131
0.0
112
0.0
122
1.0
132
0.0
 79
     0
146
0.0
348
2F
 60
     3
 61
     5
292
     1
282
     1
141
0.0
142
0.0
 63
   256
  0
VPORT
  5
1E4
330
8
100
AcDbSymbolTableRecord
100
AcDbViewportTableRecord
  2
L2
 70
     0
 10
0.5
 20
0.0
 11
1.0
 21
1.0
 12
0.0
 22
0.0
 13
0.0
 23
0.0
 14
0.5
 24
0.5
 15
0.5
 25
0.5
 16
1.0
 26
0.0
 36
0.0
 17
0.0
 27
0.0
 37
0.0
 40
1693.815381
 41
0.010483
 42
50.0
 43
856.377041
 44
-856.377041
 50
0.0
 51
0.0
 71
     0
 72
   100
 73
     1
 74
     3
 75
     0
 76
     0
 77
     0
 78
     0
281
     0
 65
     1
110
0.0
120
0.0
130
0.0
111
1.0
121
0.0
131
0.0
112
0.0
122
1.0
132
0.0
 79
     0
146
0.0
348
2F
 60
     3
 61
     5
292
     1
282
     1
141
0.0
142
0.0
 63
   256
  0
VPORT
  5
1E5
330
8
100
AcDbSymbolTableRecord
100
AcDbViewportTableRecord
  2
L3
 70
     0
 10
0.0
 20
0.5
 11
1.0
 21
1.0
 12
75.0
 22
10.0
 13
0.0
 23
0.0
 14
0.5
 24
0.5
 15
0.5
 25
0.5
 16
0.0
 26
0.0
 36
1.0
 17
0.0
 27
0.0
 37
0.0
 40
254.0
 41
0.069908
 42
50.0
 43
238.482618
 44
-238.482618
 50
0.0
 51
0.0
 71
     0
 72
   100
 73
     1
 74
     3
 75
     0
 76
     0
 77
     0
 78
     0
281
     0
 65
     1
110
0.0
120
0.0
130
0.0
111
1.0
121
0.0
131
0.0
112
0.0
122
1.0
132
0.0
 79
     0
146
0.0
348
2F
 60
     3
 61
     5
292
     1
282
     1
141
0.0
142
0.0
 63
   256
  0
VPORT
  5
1E6
330
8
100
AcDbSymbolTableRecord
100
AcDbViewportTableRecord
  2
L3
 70
     0
 10
0.0
 20
0.0
 11
1.0
 21
0.5
 12
0.0
 22
0.0
 13
0.0
 23
0.0
 14
0.5
 24
0.5
 15
0.5
 25
0.5
 16
0.0
 26
-1.0
 36
0.0
 17
0.0
 27
0.0
 37
0.0
 40
1693.815381
 41
0.010483
 42
50.0
 43
874.465193
 44
-874.465193
 50
0.0
 51
0.0
 71
     0
 72
   100
 73
     1
 74
     3
 75
     0
 76
     0
 77
     0
 78
     0
281
     0
 65
     1
110
0.0
120
0.0
130
0.0
111
1.0
121
0.0
131
0.0
112
0.0
122
1.0
132
0.0
 79
     0
146
0.0
348
2F
 60
     3
 61
     5
292
     1
282
     1
141
0.0
142
0.0
 63
   256
  0
VPORT
  5
1E7
330
8
100
AcDbSymbolTableRecord
100
AcDbViewportTableRecord
  2
L4
 70
     0
 10
0.0
 20
0.5
 11
0.5
 21
1.0
 12
75.0
 22
10.0
 13
0.0
 23
0.0
 14
0.5
 24
0.5
 15
0.5
 25
0.5
 16
0.0
 26
0.0
 36
1.0
 17
0.0
 27
0.0
 37
0.0
 40
254.0
 41
0.069908
 42
50.0
 43
238.482618
 44
-238.482618
 50
0.0
 51
0.0
 71
     0
 72
   100
 73
     1
 74
     3
 75
     0
 76
     0
 77
     0
 78
     0
281
     0
 65
     1
110
0.0
120
0.0
130
0.0
111
1.0
121
0.0
131
0.0
112
0.0
122
1.0
132
0.0
 79
     0
146
0.0
348
2F
 60
     3
 61
     5
292
     1
282
     1
141
0.0
142
0.0
 63
   256
  0
VPORT
  5
1E8
330
8
100
AcDbSymbolTableRecord
100
AcDbViewportTableRecord
  2
L4
 70
     0
 10
0.0
 20
0.0
 11
0.5
 21
0.5
 12
0.0
 22
0.0
 13
0.0
 23
0.0
 14
0.5
 24
0.5
 15
0.5
 25
0.5
 16
0.0
 26
-1.0
 36
0.0
 17
0.0
 27
0.0
 37
0.0
 40
1693.815381
 41
0.010483
 42
50.0
 43
874.465193
 44
-874.465193
 50
0.0
 51
0.0
 71
     0
 72
   100
 73
     1
 74
     3
 75
     0
 76
     0
 77
     0
 78
     0
281
     0
 65
     1
110
0.0
120
0.0
130
0.0
111
1.0
121
0.0
131
0.0
112
0.0
122
1.0
132
0.0
 79
     0
146
0.0
348
2F
 60
     3
 61
     5
292
     1
282
     1
141
0.0
142
0.0
 63
   256
  0
VPORT
  5
1E9
330
8
100
AcDbSymbolTableRecord
100
AcDbViewportTableRecord
  2
L4
 70
     0
 10
0.5
 20
0.0
 11
1.0
 21
0.5
 12
0.0
 22
0.0
 13
0.0
 23
0.0
 14
0.5
 24
0.5
 15
0.5
 25
0.5
 16
1.0
 26
0.0
 36
0.0
 17
0.0
 27
0.0
 37
0.0
 40
1693.815381
 41
0.010483
 42
50.0
 43
856.377041
 44
-856.377041
 50
0.0
 51
0.0
 71
     0
 72
   100
 73
     1
 74
     3
 75
     0
 76
     0
 77
     0
 78
     0
281
     0
 65
     1
110
0.0
120
0.0
130
0.0
111
1.0
121
0.0
131
0.0
112
0.0
122
1.0
132
0.0
 79
     0
146
0.0
348
2F
 60
     3
 61
     5
292
     1
282
     1
141
0.0
142
0.0
 63
   256
  0
VPORT
  5
1EA
330
8
100
AcDbSymbolTableRecord
100
AcDbViewportTableRecord
  2
L4
 70
     0
 10
0.5
 20
0.5
 11
1.0
 21
1.0
 12
0.0
 22
0.0
 13
0.0
 23
0.0
 14
0.5
 24
0.5
 15
0.5
 25
0.5
 16
0.5773502691896258
 26
-0.5773502691896258
 36
0.5773502691896258
 17
0.0
 27
0.0
 37
0.0
 40
1664.522296
 41
0.010668
 42
50.0
 43
867.238178
 44
-867.238178
 50
0.0
 51
0.0
 71
     0
 72
   100
 73
     1
 74
     3
 75
     0
 76
     0
 77
     0
 78
     0
281
     0
 65
     1
110
0.0
120
0.0
130
0.0
111
1.0
121
0.0
131
0.0
112
0.0
122
1.0
132
0.0
 79
     0
146
0.0
348
2F
 60
     3
 61
     5
292
     1
282
     1
141
0.0
142
0.0
 63
   256
  0
VPORT
  5
1EB
330
8
100
AcDbSymbolTableRecord
100
AcDbViewportTableRecord
  2
L6
 70
     0
 10
0.0
 20
0.5
 11
0.333333
 21
1.0
 12
0.0
 22
0.0
 13
0.0
 23
0.0
 14
0.5
 24
0.5
 15
0.5
 25
0.5
 16
0.7188730927569433
 26
-0.5850486126764433
 36
0.3754192287502549
 17
0.0
 27
0.0
 37
0.0
 40
1756.948791
 41
0.010107
 42
50.0
 43
909.617703
 44
-909.617703
 50
0.0
 51
0.0
 71
     0
 72
   100
 73
     1
 74
     3
 75
     0
 76
     0
 77
     0
 78
     0
281
     0
 65
     1
110
0.0
120
0.0
130
0.0
111
1.0
121
0.0
131
0.0
112
0.0
122
1.0
132
0.0
 79
     0
146
0.0
348
2F
 60
     3
 61
     5
292
     1
282
     1
141
0.0
142
0.0
 63
   256
  0
VPORT
  5
1EC
330
8
100
AcDbSymbolTableRecord
100
AcDbViewportTableRecord
  2
L6
 70
     0
 10
0.0
 20
0.0
 11
0.333333
 21
0.5
 12
0.0
 22
0.0
 13
0.0
 23
0.0
 14
0.5
 24
0.5
 15
0.5
 25
0.5
 16
-1.0
 26
0.0
 36
0.0
 17
0.0
 27
0.0
 37
0.0
 40
1693.815381
 41
0.010483
 42
50.0
 43
856.377041
 44
-856.377041
 50
0.0
 51
0.0
 71
     0
 72
   100
 73
     1
 74
     3
 75
     0
 76
     0
 77
     0
 78
     0
281
     0
 65
     1
110
0.0
120
0.0
130
0.0
111
1.0
121
0.0
131
0.0
112
0.0
122
1.0
132
0.0
 79
     0
146
0.0
348
2F
 60
     3
 61
     5
292
     1
282
     1
141
0.0
142
0.0
 63
   256
  0
VPORT
  5
1ED
330
8
100
AcDbSymbolTableRecord
100
AcDbViewportTableRecord
  2
L6
 70
     0
 10
0.333333
 20
0.5
 11
0.666667
 21
1.0
 12
75.0
 22
10.0
 13
0.0
 23
0.0
 14
0.5
 24
0.5
 15
0.5
 25
0.5
 16
0.0
 26
0.0
 36
1.0
 17
0.0
 27
0.0
 37
0.0
 40
254.0
 41
0.069908
 42
50.0
 43
238.482618
 44
-238.482618
 50
0.0
 51
0.0
 71
     0
 72
   100
 73
     1
 74
     3
 75
     0
 76
     0
 77
     0
 78
     0
281
     0
 65
     1
110
0.0
120
0.0
130
0.0
111
1.0
121
0.0
131
0.0
112
0.0
122
1.0
132
0.0
 79
     0
146
0.0
348
2F
 60
     3
 61
     5
292
     1
282
     1
141
0.0
142
0.0
 63
   256
  0
VPORT
  5
1EE
330
8
100
AcDbSymbolTableRecord
100
AcDbViewportTableRecord
  2
L6
 70
     0
 10
0.333333
 20
0.0
 11
0.666667
 21
0.5
 12
0.0
 22
0.0
 13
0.0
 23
0.0
 14
0.5
 24
0.5
 15
0.5
 25
0.5
 16
0.0
 26
-1.0
 36
0.0
 17
0.0
 27
0.0
 37
0.0
 40
1693.815381
 41
0.010483
 42
50.0
 43
874.465193
 44
-874.465193
 50
0.0
 51
0.0
 71
     0
 72
   100
 73
     1
 74
     3
 75
     0
 76
     0
 77
     0
 78
     0
281
     0
 65
     1
110
0.0
120
0.0
130
0.0
111
1.0
121
0.0
131
0.0
112
0.0
122
1.0
132
0.0
 79
     0
146
0.0
348
2F
 60
     3
 61
     5
292
     1
282
     1
141
0.0
142
0.0
 63
   256
  0
VPORT
  5
1EF
330
8
100
AcDbSymbolTableRecord
100
AcDbViewportTableRecord
  2
L6
 70
     0
 10
0.666667
 20
0.5
 11
1.0
 21
1.0
 12
0.0
 22
0.0
 13
0.0
 23
0.0
 14
0.5
 24
0.5
 15
0.5
 25
0.5
 16
0.5773502691896258
 26
-0.5773502691896258
 36
0.5773502691896258
 17
0.0
 27
0.0
 37
0.0
 40
1664.522296
 41
0.010668
 42
50.0
 43
867.238178
 44
-867.238178
 50
0.0
 51
0.0
 71
     0
 72
   100
 73
     1
 74
     3
 75
     0
 76
     0
 77
     0
 78
     0
281
     0
 65
     1
110
0.0
120
0.0
130
0.0
111
1.0
121
0.0
131
0.0
112
0.0
122
1.0
132
0.0
 79
     0
146
0.0
348
2F
 60
     3
 61
     5
292
     1
282
     1
141
0.0
142
0.0
 63
   256
  0
VPORT
  5
1F0
330
8
100
AcDbSymbolTableRecord
100
AcDbViewportTableRecord
  2
L6
 70
     0
 10
0.666667
 20
0.0
 11
1.0
 21
0.5
 12
0.0
 22
0.0
 13
0.0
 23
0.0
 14
0.5
 24
0.5
 15
0.5
 25
0.5
 16
1.0
 26
0.0
 36
0.0
 17
0.0
 27
0.0
 37
0.0
 40
1693.815381
 41
0.010483
 42
50.0
 43
856.377041
 44
-856.377041
 50
0.0
 51
0.0
 71
     0
 72
   100
 73
     1
 74
     3
 75
     0
 76
     0
 77
     0
 78
     0
281
     0
 65
     1
110
0.0
120
0.0
130
0.0
111
1.0
121
0.0
131
0.0
112
0.0
122
1.0
132
0.0
 79
     0
146
0.0
348
2F
 60
     3
 61
     5
292
     1
282
     1
141
0.0
142
0.0
 63
   256
  0
ENDTAB
  0
TABLE
  2
LTYPE
  5
5
330
0
100
AcDbSymbolTable
 70
    10
  0
LTYPE
  5
14
330
5
100
AcDbSymbolTableRecord
100
AcDbLinetypeTableRecord
  2
ByBlock
 70
     0
  3

 72
    65
 73
     0
 40
0.0
  0
LTYPE
  5
15
330
5
100
AcDbSymbolTableRecord
100
AcDbLinetypeTableRecord
  2
ByLayer
 70
     0
  3

 72
    65
 73
     0
 40
0.0
  0
LTYPE
  5
16
330
5
100
AcDbSymbolTableRecord
100
AcDbLinetypeTableRecord
  2
Continuous
 70
     0
  3
Solid line
 72
    65
 73
     0
 40
0.0
  0
LTYPE
  5
5F
330
5
100
AcDbSymbolTableRecord
100
AcDbLinetypeTableRecord
  2
ACAD_ISO04W100
 70
     0
  3
ISO long-dash dot ____ . ____ . ____ . ____ . _
 72
    65
 73
     4
 40
30.0
 49
24.0
 74
     4
 75
     0
340
0
 46
0.0
 50
0.0
 44
0.0
 45
0.0
 49
-3.0
 74
     4
 75
     0
340
0
 46
0.0
 50
0.0
 44
0.0
 45
0.0
 49
0.0
 74
     4
 75
     0
340
0
 46
0.0
 50
0.0
 44
0.0
 45
0.0
 49
-3.0
 74
     4
 75
     0
340
0
 46
0.0
 50
0.0
 44
0.0
 45
0.0
  0
LTYPE
  5
60
330
5
100
AcDbSymbolTableRecord
100
AcDbLinetypeTableRecord
  2
ACAD_ISO05W100
 70
     0
  3
ISO long-dash double-dot ____ .. ____ .. ____ . 
 72
    65
 73
     6
 40
33.0
 49
24.0
 74
     4
 75
     0
340
0
 46
0.0
 50
0.0
 44
0.0
 45
0.0
 49
-3.0
 74
     4
 75
     0
340
0
 46
0.0
 50
0.0
 44
0.0
 45
0.0
 49
0.0
 74
     4
 75
     0
340
0
 46
0.0
 50
0.0
 44
0.0
 45
0.0
 49
-3.0
 74
     4
 75
     0
340
0
 46
0.0
 50
0.0
 44
0.0
 45
0.0
 49
0.0
 74
     4
 75
     0
340
0
 46
0.0
 50
0.0
 44
0.0
 45
0.0
 49
-3.0
 74
     4
 75
     0
340
0
 46
0.0
 50
0.0
 44
0.0
 45
0.0
  0
LTYPE
  5
61
330
5
100
AcDbSymbolTableRecord
100
AcDbLinetypeTableRecord
  2
ACAD_ISO06W100
 70
     0
  3
ISO long-dash triple-dot ____ ... ____ ... ____
 72
    65
 73
     8
 40
36.0
 49
24.0
 74
     4
 75
     0
340
0
 46
0.0
 50
0.0
 44
0.0
 45
0.0
 49
-3.0
 74
     4
 75
     0
340
0
 46
0.0
 50
0.0
 44
0.0
 45
0.0
 49
0.0
 74
     4
 75
     0
340
0
 46
0.0
 50
0.0
 44
0.0
 45
0.0
 49
-3.0
 74
     4
 75
     0
340
0
 46
0.0
 50
0.0
 44
0.0
 45
0.0
 49
0.0
 74
     4
 75
     0
340
0
 46
0.0
 50
0.0
 44
0.0
 45
0.0
 49
-3.0
 74
     4
 75
     0
340
0
 46
0.0
 50
0.0
 44
0.0
 45
0.0
 49
0.0
 74
     4
 75
     0
340
0
 46
0.0
 50
0.0
 44
0.0
 45
0.0
 49
-3.0
 74
     4
 75
     0
340
0
 46
0.0
 50
0.0
 44
0.0
 45
0.0
  0
LTYPE
  5
62
330
5
100
AcDbSymbolTableRecord
100
AcDbLinetypeTableRecord
  2
ACAD_ISO09W100
 70
     0
  3
ISO long-dash double-short-dash ____ __ __ ____
 72
    65
 73
     6
 40
45.0
 49
24.0
 74
     4
 75
     0
340
0
 46
0.0
 50
0.0
 44
0.0
 45
0.0
 49
-3.0
 74
     4
 75
     0
340
0
 46
0.0
 50
0.0
 44
0.0
 45
0.0
 49
6.0
 74
     4
 75
     0
340
0
 46
0.0
 50
0.0
 44
0.0
 45
0.0
 49
-3.0
 74
     4
 75
     0
340
0
 46
0.0
 50
0.0
 44
0.0
 45
0.0
 49
6.0
 74
     4
 75
     0
340
0
 46
0.0
 50
0.0
 44
0.0
 45
0.0
 49
-3.0
 74
     4
 75
     0
340
0
 46
0.0
 50
0.0
 44
0.0
 45
0.0
  0
LTYPE
  5
63
330
5
100
AcDbSymbolTableRecord
100
AcDbLinetypeTableRecord
  2
CENTER
 70
     0
  3
____ _ ____ _ ____ _ ____
 72
    65
 73
     4
 40
47.4
 49
22.0
 74
     4
 75
     0
340
0
 46
0.0
 50
0.0
 44
0.0
 45
0.0
 49
-8.5
 74
     4
 75
     0
340
0
 46
0.0
 50
0.0
 44
0.0
 45
0.0
 49
8.5
 74
     4
 75
     0
340
0
 46
0.0
 50
0.0
 44
0.0
 45
0.0
 49
-8.5
 74
     4
 75
     0
340
0
 46
0.0
 50
0.0
 44
0.0
 45
0.0
  0
LTYPE
  5
64
330
5
100
AcDbSymbolTableRecord
100
AcDbLinetypeTableRecord
  2
DASHDOT
 70
     0
  3
_._._._._._._._._._._._._._._._.
 72
    65
 73
     4
 40
70.0
 49
31.0
 74
     4
 75
     0
340
0
 46
0.0
 50
0.0
 44
0.0
 45
0.0
 49
-13.0
 74
     4
 75
     0
340
0
 46
0.0
 50
0.0
 44
0.0
 45
0.0
 49
13.0
 74
     4
 75
     0
340
0
 46
0.0
 50
0.0
 44
0.0
 45
0.0
 49
-13.0
 74
     4
 75
     0
340
0
 46
0.0
 50
0.0
 44
0.0
 45
0.0
  0
LTYPE
  5
65
330
5
100
AcDbSymbolTableRecord
100
AcDbLinetypeTableRecord
  2
DASHED
 70
     0
  3
__ __ __ __ __ __ __ __ __
 72
    65
 73
     2
 40
25.72
 49
12.86
 74
     4
 75
     0
340
0
 46
0.0
 50
0.0
 44
0.0
 45
0.0
 49
-12.86
 74
     4
 75
     0
340
0
 46
0.0
 50
0.0
 44
0.0
 45
0.0
  0
LTYPE
  5
66
330
5
100
AcDbSymbolTableRecord
100
AcDbLinetypeTableRecord
  2
DOT
 70
     0
  3
.........................
 72
    65
 73
     2
 40
10.0
 49
0.0
 74
     4
 75
     0
340
0
 46
0.0
 50
0.0
 44
0.0
 45
0.0
 49
-10.0
 74
     4
 75
     0
340
0
 46
0.0
 50
0.0
 44
0.0
 45
0.0
  0
LTYPE
  5
67
330
5
100
AcDbSymbolTableRecord
100
AcDbLinetypeTableRecord
  2
PHANTOM
 70
     0
  3
____ _ _ ____ _ _ _____ _ _ ____
 72
    65
 73
     6
 40
50.5
 49
18.0
 74
     4
 75
     0
340
0
 46
0.0
 50
0.0
 44
0.0
 45
0.0
 49
-6.5
 74
     4
 75
     0
340
0
 46
0.0
 50
0.0
 44
0.0
 45
0.0
 49
6.5
 74
     4
 75
     0
340
0
 46
0.0
 50
0.0
 44
0.0
 45
0.0
 49
-6.5
 74
     4
 75
     0
340
0
 46
0.0
 50
0.0
 44
0.0
 45
0.0
 49
6.5
 74
     4
 75
     0
340
0
 46
0.0
 50
0.0
 44
0.0
 45
0.0
 49
-6.5
 74
     4
 75
     0
340
0
 46
0.0
 50
0.0
 44
0.0
 45
0.0
  0
ENDTAB
  0
TABLE
  2
LAYER
  5
2
330
0
100
AcDbSymbolTable
 70
     2
  0
LAYER
  5
10
330
2
100
AcDbSymbolTableRecord
100
AcDbLayerTableRecord
  2
0
 70
     0
 62
     7
  6
Continuous
370
    -3
390
F
347
46
348
0
  0
LAYER
  5
69
330
2
100
AcDbSymbolTableRecord
100
AcDbLayerTableRecord
  2
1
 70
     0
 62
     7
420
 16777215
  6
Continuous
370
    -3
390
F
347
46
348
0
  0
ENDTAB
  0
TABLE
  2
STYLE
  5
3
330
0
100
AcDbSymbolTable
 70
     1
  0
STYLE
  5
11
330
3
100
AcDbSymbolTableRecord
100
AcDbTextStyleTableRecord
  2
Standard
 70
     0
 40
0.0
 41
1.0
 50
0.0
 71
     0
 42
0.2
  3
txt
  4

  0
ENDTAB
  0
TABLE
  2
VIEW
  5
6
330
0
100
AcDbSymbolTable
 70
     8
  0
VIEW
  5
1DA
330
6
100
AcDbSymbolTableRecord
100
AcDbViewTableRecord
  2
Top
 70
     0
 40
254.0
 10
75.0
 20
10.0
 41
435.599529
 11
0.0
 21
0.0
 31
1.0
 12
0.0
 22
0.0
 32
0.0
 42
50.0
 43
238.482618
 44
-238.482618
 50
0.0
 71
     0
281
     0
 72
     0
 73
     0
348
2F
  0
VIEW
  5
1DB
330
6
100
AcDbSymbolTableRecord
100
AcDbViewTableRecord
  2
Front
 70
     0
 40
1693.815381
 10
0.0
 20
0.0
 41
435.599529
 11
0.0
 21
-1.0
 31
0.0
 12
0.0
 22
0.0
 32
0.0
 42
50.0
 43
874.465193
 44
-874.465193
 50
0.0
 71
     0
281
     0
 72
     0
 73
     0
348
2F
  0
VIEW
  5
1DC
330
6
100
AcDbSymbolTableRecord
100
AcDbViewTableRecord
  2
Right
 70
     0
 40
1693.815381
 10
0.0
 20
0.0
 41
254.0
 11
1.0
 21
0.0
 31
0.0
 12
0.0
 22
0.0
 32
0.0
 42
50.0
 43
856.377041
 44
-856.377041
 50
0.0
 71
     0
281
     0
 72
     0
 73
     0
348
2F
  0
VIEW
  5
1DD
330
6
100
AcDbSymbolTableRecord
100
AcDbViewTableRecord
  2
Back
 70
     0
 40
1693.815381
 10
0.0
 20
0.0
 41
435.599529
 11
0.0
 21
1.0
 31
0.0
 12
0.0
 22
0.0
 32
0.0
 42
50.0
 43
874.465193
 44
-874.465193
 50
0.0
 71
     0
281
     0
 72
     0
 73
     0
348
2F
  0
VIEW
  5
1DE
330
6
100
AcDbSymbolTableRecord
100
AcDbViewTableRecord
  2
Bottom
 70
     0
 40
254.0
 10
0.0
 20
0.0
 41
435.599529
 11
0.0
 21
0.0
 31
-1.0
 12
0.0
 22
0.0
 32
0.0
 42
50.0
 43
846.907691
 44
-846.907691
 50
180.0
 71
     0
281
     0
 72
     0
 73
     0
348
2F
  0
VIEW
  5
1DF
330
6
100
AcDbSymbolTableRecord
100
AcDbViewTableRecord
  2
Left
 70
     0
 40
1693.815381
 10
0.0
 20
0.0
 41
254.0
 11
-1.0
 21
0.0
 31
0.0
 12
0.0
 22
0.0
 32
0.0
 42
50.0
 43
856.377041
 44
-856.377041
 50
0.0
 71
     0
281
     0
 72
     0
 73
     0
348
2F
  0
VIEW
  5
1E0
330
6
100
AcDbSymbolTableRecord
100
AcDbViewTableRecord
  2
Isometric
 70
     0
 40
1664.522296
 10
0.0
 20
0.0
 41
487.620503
 11
0.5773502691896258
 21
-0.5773502691896258
 31
0.5773502691896258
 12
0.0
 22
0.0
 32
0.0
 42
50.0
 43
867.238178
 44
-867.238178
 50
0.0
 71
     0
281
     0
 72
     0
 73
     0
348
2F
  0
VIEW
  5
1E1
330
6
100
AcDbSymbolTableRecord
100
AcDbViewTableRecord
  2
Trimetric
 70
     0
 40
1756.948791
 10
0.0
 20
0.0
 41
471.962294
 11
0.7188730927569433
 21
-0.5850486126764433
 31
0.3754192287502549
 12
0.0
 22
0.0
 32
0.0
 42
50.0
 43
909.617703
 44
-909.617703
 50
0.0
 71
     0
281
     0
 72
     0
 73
     0
348
2F
  0
ENDTAB
  0
TABLE
  2
UCS
  5
7
330
0
100
AcDbSymbolTable
 70
     0
  0
ENDTAB
  0
TABLE
  2
APPID
  5
9
330
0
100
AcDbSymbolTable
 70
     7
  0
APPID
  5
12
330
9
100
AcDbSymbolTableRecord
100
AcDbRegAppTableRecord
  2
ACAD
 70
     0
  0
APPID
  5
230
330
9
100
AcDbSymbolTableRecord
100
AcDbRegAppTableRecord
  2
ACAD_MLEADERVER
 70
     0
  0
APPID
  5
238
330
9
100
AcDbSymbolTableRecord
100
AcDbRegAppTableRecord
  2
MCS_DIM1
 70
     0
  0
APPID
  5
239
330
9
100
AcDbSymbolTableRecord
100
AcDbRegAppTableRecord
  2
McsXdata5
 70
     0
  0
APPID
  5
23C
330
9
100
AcDbSymbolTableRecord
100
AcDbRegAppTableRecord
  2
MCS_DOCUMENT_ID
 70
     0
  0
APPID
  5
242
330
9
100
AcDbSymbolTableRecord
100
AcDbRegAppTableRecord
  2
MCS_PARAMS_DATA
 70
     0
  0
APPID
  5
244
330
9
100
AcDbSymbolTableRecord
100
AcDbRegAppTableRecord
  2
MC_VERSION_DATA
 70
     0
  0
ENDTAB
  0
TABLE
  2
DIMSTYLE
  5
A
330
0
100
AcDbSymbolTable
 70
     1
100
AcDbDimStyleTable
  0
DIMSTYLE
105
27
330
A
100
AcDbSymbolTableRecord
100
AcDbDimStyleTableRecord
  2
Standard
 70
     0
178
     0
340
11
  0
ENDTAB
  0
TABLE
  2
BLOCK_RECORD
  5
1
330
0
100
AcDbSymbolTable
 70
     1
  0
BLOCK_RECORD
  5
1F
330
1
100
AcDbSymbolTableRecord
100
AcDbBlockTableRecord
  2
*Model_Space
340
22
 70
     0
280
     1
281
     0
  0
BLOCK_RECORD
  5
1B
330
1
100
AcDbSymbolTableRecord
100
AcDbBlockTableRecord
  2
*Paper_Space
340
1E
 70
     0
280
     1
281
     0
  0
BLOCK_RECORD
  5
23
330
1
100
AcDbSymbolTableRecord
100
AcDbBlockTableRecord
  2
*Paper_Space0
340
26
 70
     0
280
     1
281
     0
  0
ENDTAB
  0
ENDSEC
  0
SECTION
  2
BLOCKS
  0
BLOCK
  5
20
330
1F
100
AcDbEntity
  8
0
100
AcDbBlockBegin
  2
*Model_Space
 70
     0
 10
0.0
 20
0.0
 30
0.0
  3
*Model_Space
  1
*Model_Space
  0
ENDBLK
  5
21
330
1F
100
AcDbEntity
  8
0
100
AcDbBlockEnd
  0
BLOCK
  5
1C
330
1B
100
AcDbEntity
 67
     1
  8
0
100
AcDbBlockBegin
  2
*Paper_Space
 70
     0
 10
0.0
 20
0.0
 30
0.0
  3
*Paper_Space
  1
*Paper_Space
  0
ENDBLK
  5
1D
330
1B
100
AcDbEntity
 67
     1
  8
0
100
AcDbBlockEnd
  0
BLOCK
  5
24
330
23
100
AcDbEntity
  8
0
100
AcDbBlockBegin
  2
*Paper_Space0
 70
     0
 10
0.0
 20
0.0
 30
0.0
  3
*Paper_Space0
  1
*Paper_Space0
  0
ENDBLK
  5
25
330
23
100
AcDbEntity
  8
0
100
AcDbBlockEnd
  0
ENDSEC
  0
SECTION
  2
ENTITIES
  0
LINE
  5
1BD
330
1F
100
AcDbEntity
  8
1
  6
Continuous
 62
   163
370
    70
100
AcDbLine
 10
149.625259
 20
20.0
 30
0.0
 11
150.0
 21
19.810057
 31
0.0
  0
SPLINE
  5
1BE
330
1F
100
AcDbEntity
  8
1
  6
Continuous
 62
   163
370
    70
100
AcDbSpline
210
0.0
220
0.0
230
1.0
 70
     8
 71
     5
 72
    85
 73
    79
 74
     0
 42
0.000000001
 43
0.0000000001
 40
0.0
 40
0.0
 40
0.0
 40
0.0
 40
0.0
 40
0.0
 40
0.0058750645908777
 40
0.042088337652433
 40
0.0785244103208705
 40
0.1150015991675352
 40
0.1514833049342966
 40
0.1879611912141392
 40
0.2244041230608572
 40
0.2606596681456135
 40
0.2962319128270694
 40
0.3300232244833238
 40
0.3606046136564031
 40
0.3879380423522978
 40
0.4151700069765679
 40
0.4446677153693328
 40
0.4757976317433893
 40
0.5057979227821652
 40
0.5323076420983276
 40
0.5549063095917189
 40
0.5746642080727795
 40
0.5927001357289311
 40
0.609279364895272
 40
0.6241281200302748
 40
0.6373758009467554
 40
0.6499350919467002
 40
0.6628128028223897
 40
0.6770652787191154
 40
0.6937933660700891
 40
0.7123984543834554
 40
0.7300090719960352
 40
0.7440668151472271
 40
0.7542774523214959
 40
0.7585143614127589
 40
0.7621868231376924
 40
0.7637225798590279
 40
0.7645906162667394
 40
0.7654586526744511
 40
0.7663266890821626
 40
0.769629902185174
 40
0.7700206048102614
 40
0.7709440837422862
 40
0.7718675626743109
 40
0.7776211223235644
 40
0.7862594960589727
 40
0.7952469911926112
 40
0.8043442282778566
 40
0.813462026939232
 40
0.8225798202331113
 40
0.8316751784769194
 40
0.8406502393979591
 40
0.8492295405021737
 40
0.8569902632230932
 40
0.8636439467615082
 40
0.8692732741247229
 40
0.8742374511886422
 40
0.8789039182612618
 40
0.8834825970577824
 40
0.888044904204157
 40
0.8926053343975129
 40
0.8971656364109671
 40
0.9017259412887767
 40
0.9062863986935086
 40
0.910849185402531
 40
0.9154324244291242
 40
0.9201251319004231
 40
0.9251809163891368
 40
0.9310041368440151
 40
0.9379068431356804
 40
0.9458615469211614
 40
0.9545328620441598
 40
0.9635355076432386
 40
0.9726380582659039
 40
0.9817587055106027
 40
0.9908793527553013
 40
1.0
 40
1.0
 40
1.0
 40
1.0
 40
1.0
 40
1.0
 10
17.37545008469387
 20
20.00000000001278
 30
0.0
 10
17.49012323878958
 20
19.99771705759287
 30
0.0
 10
18.3117183786015
 20
19.98092576100654
 30
0.0
 10
19.84547520870304
 20
19.94362024753049
 30
0.0
 10
22.0886709156811
 20
19.87059688013795
 30
0.0
 10
25.02508160056703
 20
19.75359988529101
 30
0.0
 10
28.53846147533703
 20
19.6210203177573
 30
0.0
 10
32.05266319872623
 20
19.51209761993019
 30
0.0
 10
35.56923835387241
 20
19.42668100125165
 30
0.0
 10
39.07675880489096
 20
19.35166243876769
 30
0.0
 10
42.53162345802217
 20
19.28187841106438
 30
0.0
 10
45.8731657378336
 20
19.22113616942076
 30
0.0
 10
49.04775629901005
 20
19.16104910718304
 30
0.0
 10
52.05930755739772
 20
19.08471480501385
 30
0.0
 10
54.962834973143
 20
18.9753575678465
 30
0.0
 10
57.81542022845284
 20
18.82139450071433
 30
0.0
 10
60.63332990467559
 20
18.63029476032451
 30
0.0
 10
63.39250504297355
 20
18.45031401183191
 30
0.0
 10
66.04727273788122
 20
18.33170784345358
 30
0.0
 10
68.55331531803118
 20
18.25723541249439
 30
0.0
 10
70.85071374494167
 20
18.17311203437966
 30
0.0
 10
72.91529737752995
 20
18.04773819347463
 30
0.0
 10
74.75959465609081
 20
17.86849978354431
 30
0.0
 10
76.37333449106536
 20
17.66076857016504
 30
0.0
 10
77.76658614417504
 20
17.48868597755217
 30
0.0
 10
79.03022130966188
 20
17.37844567720803
 30
0.0
 10
80.29966945460866
 20
17.30931448301196
 30
0.0
 10
81.68513946855447
 20
17.23990677926728
 30
0.0
 10
83.24616794093569
 20
17.10365607170857
 30
0.0
 10
84.87103876432647
 20
16.85974677948992
 30
0.0
 10
86.41395096838757
 20
16.58458789011984
 30
0.0
 10
87.81158431923959
 20
16.36962406363208
 30
0.0
 10
89.01510527463999
 20
16.22494747080663
 30
0.0
 10
90.00843894554578
 20
16.10135992121693
 30
0.0
 10
90.72670715300796
 20
15.98663559813789
 30
0.0
 10
91.1841998973184
 20
15.89504512069891
 30
0.0
 10
91.44004698629078
 20
15.83691722765859
 30
0.0
 10
91.62075910137119
 20
15.792036583531
 30
0.0
 10
91.79680348960672
 20
15.74593537149624
 30
0.0
 10
91.93941498179348
 20
15.70563401544638
 30
0.0
 10
92.09035506833132
 20
15.66055616578486
 30
0.0
 10
92.20967466074926
 20
15.62284802640065
 30
0.0
 10
92.40886168221982
 20
15.56185849136427
 30
0.0
 10
92.57873861591158
 20
15.5118423719134
 30
0.0
 10
92.88932328471562
 20
15.44433843160163
 30
0.0
 10
93.56495778689293
 20
15.34936514320522
 30
0.0
 10
94.46156121661386
 20
15.18376847708762
 30
0.0
 10
95.3819750760268
 20
14.95828973707166
 30
0.0
 10
96.25748055676154
 20
14.71842387134528
 30
0.0
 10
97.12457606939373
 20
14.46586333714592
 30
0.0
 10
97.97480372090436
 20
14.20735026873618
 30
0.0
 10
98.811094509172
 20
13.93822311100047
 30
0.0
 10
99.61212014836956
 20
13.65720352682557
 30
0.0
 10
100.3599978555584
 20
13.36358460193556
 30
0.0
 10
101.0327315095432
 20
13.06542595923117
 30
0.0
 10
101.6261259777091
 20
12.77055916756531
 30
0.0
 10
102.1494289081665
 20
12.48203364367906
 30
0.0
 10
102.627144105234
 20
12.19140119438726
 30
0.0
 10
103.079930780308
 20
11.88620089109051
 30
0.0
 10
103.519296126189
 20
11.55589796543335
 30
0.0
 10
103.947357269259
 20
11.1939594295513
 30
0.0
 10
104.3616865168999
 20
10.79678525942239
 30
0.0
 10
104.7566051466509
 20
10.36252995255405
 30
0.0
 10
105.1233435285076
 20
9.893706986831356
 30
0.0
 10
105.4539195030455
 20
9.395429541071282
 30
0.0
 10
105.7423654712335
 20
8.879206268758995
 30
0.0
 10
105.9955620284513
 20
8.348889137511918
 30
0.0
 10
106.2308108896242
 20
7.78365722551046
 30
0.0
 10
106.4599839079709
 20
7.157184120731679
 30
0.0
 10
106.6866945101187
 20
6.450929145353149
 30
0.0
 10
106.9061088677389
 20
5.653811361124825
 30
0.0
 10
107.1024649900213
 20
4.774262441761285
 30
0.0
 10
107.2591951973986
 20
3.834536372405575
 30
0.0
 10
107.3672576580785
 20
2.863734834471058
 30
0.0
 10
107.4286337979061
 20
1.893551153041465
 30
0.0
 10
107.4485528944977
 20
1.13711005923963
 30
0.0
 10
107.4541347521993
 20
0.5885487008279278
 30
0.0
 10
107.4563994975811
 20
0.2315654969741561
 30
0.0
 10
107.457517532562
 20
0.0551122927009658
 30
0.0
  0
SPLINE
  5
1BF
330
1F
100
AcDbEntity
  8
1
  6
Continuous
 62
   163
370
    70
100
AcDbSpline
210
0.0
220
0.0
230
1.0
 70
     8
 71
     5
 72
    46
 73
    40
 74
     0
 42
0.000000001
 43
0.0000000001
 40
0.0
 40
0.0
 40
0.0
 40
0.0
 40
0.0
 40
0.0
 40
0.0019719609892024
 40
0.0103813131313131
 40
0.017519817965368
 40
0.0190128327380952
 40
0.0216688948306595
 40
0.0329099821746881
 40
0.0909090909090909
 40
0.1505050505050505
 40
0.2101010101010101
 40
0.2696969696969697
 40
0.3292929292929293
 40
0.388888888888889
 40
0.4484848484848485
 40
0.5080808080808082
 40
0.5676767676767679
 40
0.6272727272727273
 40
0.6601010101010101
 40
0.6898989898989899
 40
0.7216450216450214
 40
0.7656565656565655
 40
0.7996767676767675
 40
0.8037629049111805
 40
0.8076571494252872
 40
0.8093386234482758
 40
0.8127525252525252
 40
0.8318181818181817
 40
0.8616161616161615
 40
0.8853535353535351
 40
0.8939393939393937
 40
0.9088383838383837
 40
0.9237373737373735
 40
0.9318181818181815
 40
0.9535353535353532
 40
0.97020202020202
 40
1.0
 40
1.0
 40
1.0
 40
1.0
 40
1.0
 40
1.0
 10
0.0
 20
19.03641128540039
 30
0.0
 10
0.0440354441987873
 20
19.03274394508142
 30
0.0
 10
0.2758765259013632
 20
19.01343585901595
 30
0.0
 10
0.6619005131632465
 20
18.92760825992994
 30
0.0
 10
1.071781002801827
 20
18.79872041357514
 30
0.0
 10
1.536405472201732
 20
18.62752637661191
 30
0.0
 10
2.21018390512705
 20
18.43843291272193
 30
0.0
 10
4.034713236837609
 20
18.24154004700185
 30
0.0
 10
7.084929074755958
 20
18.18886439140651
 30
0.0
 10
11.44586986942297
 20
18.03189552640704
 30
0.0
 10
17.12421015847755
 20
18.08352102465082
 30
0.0
 10
23.89546854363154
 20
17.79242342655075
 30
0.0
 10
30.70093173354809
 20
17.52733784580237
 30
0.0
 10
37.51123793552489
 20
17.38485801873223
 30
0.0
 10
44.32346294765374
 20
17.23910496177367
 30
0.0
 10
51.13709341881663
 20
17.14215095813793
 30
0.0
 10
57.94897315658308
 20
16.88879288301406
 30
0.0
 10
64.11195003794869
 20
16.29729903984845
 30
0.0
 10
69.62709944303454
 20
16.2804288847423
 30
0.0
 10
74.52720580880747
 20
15.98594879877594
 30
0.0
 10
78.94418367146005
 20
15.19115214287634
 30
0.0
 10
82.96381617311376
 20
15.41027377023794
 30
0.0
 10
86.11627163981011
 20
14.46922088127435
 30
0.0
 10
88.79494381658857
 20
14.25596738719401
 30
0.0
 10
90.79081413962551
 20
13.99251276608718
 30
0.0
 10
91.8017342334244
 20
13.65069751712806
 30
0.0
 10
92.50229347153287
 20
13.46349679043102
 30
0.0
 10
93.83678726393322
 20
13.31926751354148
 30
0.0
 10
95.50556018805445
 20
12.86581589871131
 30
0.0
 10
97.38542538833465
 20
12.31254261137693
 30
0.0
 10
99.43184358026016
 20
11.65978036338309
 30
0.0
 10
101.3423080054307
 20
10.70629147380229
 30
0.0
 10
102.6138556287316
 20
9.785720263907907
 30
0.0
 10
103.7298473201471
 20
8.606220977718413
 30
0.0
 10
104.4168815352912
 20
7.043743148164244
 30
0.0
 10
105.060745310433
 20
5.051348904892367
 30
0.0
 10
105.3643308456631
 20
3.37529348519456
 30
0.0
 10
105.4465807117079
 20
1.774873430702745
 30
0.0
 10
105.4532464110525
 20
0.7228634062890685
 30
0.0
 10
105.4575576782227
 20
0.0424402356147766
 30
0.0
  0
SPLINE
  5
1C0
330
1F
100
AcDbEntity
  8
1
  6
Continuous
 62
   163
370
    70
100
AcDbSpline
210
0.0
220
0.0
230
1.0
 70
     8
 71
     5
 72
    61
 73
    55
 74
     0
 42
0.000000001
 43
0.0000000001
 40
0.0
 40
0.0
 40
0.0
 40
0.0
 40
0.0
 40
0.0
 40
0.0004261247841585
 40
0.002845077702928
 40
0.0083781028368794
 40
0.0102577260638298
 40
0.0111835106382979
 40
0.0132978723404255
 40
0.0171418439716312
 40
0.0299397163120567
 40
0.0574468085106383
 40
0.1021276595744681
 40
0.1468085106382979
 40
0.1914893617021277
 40
0.2361702127659574
 40
0.2808510638297873
 40
0.325531914893617
 40
0.3702127659574469
 40
0.4148936170212766
 40
0.4595744680851064
 40
0.5042553191489363
 40
0.5489361702127661
 40
0.593617021276596
 40
0.6358156028368797
 40
0.6581560283687945
 40
0.6804964539007095
 40
0.7056737588652483
 40
0.7503546099290782
 40
0.7808510638297873
 40
0.7887087009167965
 40
0.7929640200657325
 40
0.7977404428299604
 40
0.8012765957446808
 40
0.8152198581560282
 40
0.8285830276351186
 40
0.8324406858267709
 40
0.8343407264286296
 40
0.8404195188934014
 40
0.8447405635217354
 40
0.8479167469331033
 40
0.8599290780141844
 40
0.8822695035460992
 40
0.8886524822695033
 40
0.8942375886524824
 40
0.8998226950354609
 40
0.9095744680851062
 40
0.9125
 40
0.915159574468085
 40
0.9248226950354608
 40
0.930496453900709
 40
0.9553191489361702
 40
1.0
 40
1.0
 40
1.0
 40
1.0
 40
1.0
 40
1.0
 10
0.0
 20
18.76993560791016
 30
0.0
 10
0.0078573139437317
 20
18.76935350709713
 30
0.0
 10
0.0603187998795818
 20
18.76546695326527
 30
0.0
 10
0.2139402455257126
 20
18.74361288579331
 30
0.0
 10
0.3984668708503447
 20
18.68951060138905
 30
0.0
 10
0.5894609196807912
 20
18.59427564504519
 30
0.0
 10
0.8125359444981282
 20
18.49791734675216
 30
0.0
 10
1.066440639622748
 20
18.41904097426796
 30
0.0
 10
1.464596733415063
 20
18.3612743935171
 30
0.0
 10
2.33401675581695
 20
18.23319644477959
 30
0.0
 10
4.020175510787307
 20
17.96296768778867
 30
0.0
 10
6.571724721510311
 20
18.21103841990887
 30
0.0
 10
9.791058433875413
 20
17.45317160910696
 30
0.0
 10
13.69255951173027
 20
17.5306622757317
 30
0.0
 10
17.88132649036925
 20
17.26788615532223
 30
0.0
 10
22.09545177550233
 20
17.26499324490739
 30
0.0
 10
26.28972672922052
 20
17.04618431238782
 30
0.0
 10
30.50551502759348
 20
17.09279534386565
 30
0.0
 10
34.69177148740675
 20
16.68859765750472
 30
0.0
 10
38.88954458739848
 20
16.48736531659404
 30
0.0
 10
43.0811150929195
 20
16.24134557355175
 30
0.0
 10
47.29648220182442
 20
16.18286460956661
 30
0.0
 10
51.43062229971436
 20
15.78872368752293
 30
0.0
 10
55.1404496562818
 20
15.36926324278795
 30
0.0
 10
58.43580916048454
 20
15.14028549069249
 30
0.0
 10
61.41232798870921
 20
15.09093646839831
 30
0.0
 10
64.25715424189119
 20
14.25031824750498
 30
0.0
 10
67.01860939970227
 20
14.42152559529721
 30
0.0
 10
69.44930562039218
 20
13.87181155309696
 30
0.0
 10
71.46194944724745
 20
13.36454046598121
 30
0.0
 10
73.18453054299731
 20
13.13023870437164
 30
0.0
 10
74.138395938846
 20
13.01451475612574
 30
0.0
 10
74.7297632439111
 20
12.74209894276662
 30
0.0
 10
75.46117105711579
 20
12.6006431318877
 30
0.0
 10
76.17932537924898
 20
12.43280521474128
 30
0.0
 10
76.82604145065892
 20
12.21251338433324
 30
0.0
 10
77.56370150753364
 20
12.12323198765432
 30
0.0
 10
78.09672221738175
 20
11.97611846452149
 30
0.0
 10
78.42712825187985
 20
11.82409041368324
 30
0.0
 10
78.86553175290561
 20
11.539996387442
 30
0.0
 10
79.71870092590807
 20
11.27855644426222
 30
0.0
 10
80.64564972895502
 20
11.17638353832394
 30
0.0
 10
81.41195151241845
 20
10.58885420783771
 30
0.0
 10
82.26414284147856
 20
10.12182516539097
 30
0.0
 10
82.9539652818759
 20
9.485844580663152
 30
0.0
 10
83.24974365571401
 20
8.99772390064832
 30
0.0
 10
83.55815151440237
 20
8.597206900671736
 30
0.0
 10
83.71599932846232
 20
8.049730330842543
 30
0.0
 10
83.9843141598721
 20
7.544082175207533
 30
0.0
 10
84.31781962756119
 20
6.737893357887113
 30
0.0
 10
84.36044745995142
 20
5.090267272034473
 30
0.0
 10
84.96603442552987
 20
3.571486915438353
 30
0.0
 10
84.97103238535232
 20
2.164255202497906
 30
0.0
 10
84.98975837955484
 20
0.8460739392974908
 30
0.0
 10
85.00177764892581
 20
0.0
 30
0.0
  0
SPLINE
  5
1C1
330
1F
100
AcDbEntity
  8
1
  6
Continuous
 62
   163
370
    70
100
AcDbSpline
210
0.0
220
0.0
230
1.0
 70
     8
 71
     5
 72
    55
 73
    49
 74
     0
 42
0.000000001
 43
0.0000000001
 40
0.0
 40
0.0
 40
0.0
 40
0.0
 40
0.0
 40
0.0
 40
0.0006247747206536
 40
0.0043445872882374
 40
0.0153774680603949
 40
0.0422764227642276
 40
0.0764227642276423
 40
0.0916452717158751
 40
0.100506345947185
 40
0.1048970335218062
 40
0.1114690036043528
 40
0.1151112926440269
 40
0.1166666666666667
 40
0.1177012757426865
 40
0.1207390468824404
 40
0.1346429282965958
 40
0.1539916165058041
 40
0.1792682926829268
 40
0.1920325203252032
 40
0.1979674796747967
 40
0.2019993495934959
 40
0.2045605912786401
 40
0.2233411382113821
 40
0.2338824650406504
 40
0.2552845528455285
 40
0.2991869918699187
 40
0.3430894308943089
 40
0.3869918699186992
 40
0.4308943089430894
 40
0.4747967479674795
 40
0.5186991869918698
 40
0.5626016260162601
 40
0.6065040650406502
 40
0.6504065040650404
 40
0.6943089430894305
 40
0.7382113821138209
 40
0.7821138211382113
 40
0.8260162601626012
 40
0.8699186991869915
 40
0.9138211382113814
 40
0.9414689299055148
 40
0.9448861566249172
 40
0.9465692682926824
 40
0.9508536585365849
 40
0.9621219512195117
 40
1.0
 40
1.0
 40
1.0
 40
1.0
 40
1.0
 40
1.0
 10
69.36750793457031
 20
0.0
 30
0.0
 10
69.36745466754248
 20
0.0098335434910315
 30
0.0
 10
69.3670842572168
 20
0.0782144198825248
 30
0.0
 10
69.36561715186659
 20
0.3202472355722465
 30
0.0
 10
69.35919155244406
 20
0.9855928739047974
 30
0.0
 10
69.34034662578063
 20
2.188469434604506
 30
0.0
 10
69.28342043118752
 20
3.620037159721252
 30
0.0
 10
69.16151247046785
 20
5.134470704876703
 30
0.0
 10
68.900559873091
 20
6.51766677224852
 30
0.0
 10
68.52172254982861
 20
7.51812876776992
 30
0.0
 10
68.33930055011072
 20
8.094863117398388
 30
0.0
 10
68.22972060257074
 20
8.47027424892799
 30
0.0
 10
68.14193157796907
 20
8.721283551400788
 30
0.0
 10
68.03985123480363
 20
8.942789471847773
 30
0.0
 10
67.86581272862034
 20
9.252733735590784
 30
0.0
 10
67.49819667087306
 20
9.738786399591202
 30
0.0
 10
66.68514140051249
 20
10.32327787376501
 30
0.0
 10
65.63537707824968
 20
10.85859009763689
 30
0.0
 10
64.52117063289407
 20
11.29669488475431
 30
0.0
 10
63.47390391293712
 20
11.50485660415298
 30
0.0
 10
62.74483401824789
 20
11.80347216528494
 30
0.0
 10
62.0994135673333
 20
12.03778179996981
 30
0.0
 10
61.45820058188948
 20
12.16924022032555
 30
0.0
 10
60.56521691323646
 20
12.31309506771468
 30
0.0
 10
59.0576945994243
 20
12.52654591307706
 30
0.0
 10
57.02009506828291
 20
13.33753371527407
 30
0.0
 10
54.3665249360301
 20
13.19139641997877
 30
0.0
 10
51.4557572926689
 20
14.33396585401202
 30
0.0
 10
47.90180438824787
 20
14.09433632945234
 30
0.0
 10
44.56402016037322
 20
14.86407325449732
 30
0.0
 10
41.0989850174298
 20
15.10054045371062
 30
0.0
 10
37.66272076150017
 20
15.34688295137416
 30
0.0
 10
34.20605739519549
 20
15.46381468934375
 30
0.0
 10
30.79297512006808
 20
15.97102073443308
 30
0.0
 10
27.33303744690048
 20
16.10568969528909
 30
0.0
 10
23.88430015183956
 20
16.22760378377113
 30
0.0
 10
20.43345474142888
 20
16.41817321223135
 30
0.0
 10
16.9798946539293
 20
16.47439692555482
 30
0.0
 10
13.55519838731487
 20
16.9817707855954
 30
0.0
 10
10.35377079848486
 20
17.04387017095252
 30
0.0
 10
7.80008003385184
 20
17.20449983557811
 30
0.0
 10
5.900462280002916
 20
17.29657857018423
 30
0.0
 10
4.636919404582162
 20
17.40300847600589
 30
0.0
 10
3.896305638182576
 20
17.53691662234922
 30
0.0
 10
3.008742218593739
 20
17.7541942708939
 30
0.0
 10
2.181013330090929
 20
17.99131353547104
 30
0.0
 10
1.353659122151226
 20
18.12071596173776
 30
0.0
 10
0.5894392435464909
 20
18.19994448965889
 30
0.0
 10
0.0000000000000001
 20
18.26105308532715
 30
0.0
  0
SPLINE
  5
1C2
330
1F
100
AcDbEntity
  8
1
  6
Continuous
 62
   163
370
    70
100
AcDbSpline
210
0.0
220
0.0
230
1.0
 70
     8
 71
     5
 72
    35
 73
    29
 74
     0
 42
0.000000001
 43
0.0000000001
 40
0.0
 40
0.0
 40
0.0
 40
0.0
 40
0.0
 40
0.0
 40
0.0090579710144928
 40
0.0251207729468599
 40
0.0516249611209446
 40
0.0851852989856145
 40
0.1268392184688836
 40
0.1730338023133201
 40
0.2202929243598958
 40
0.2676312747995863
 40
0.3149739681589415
 40
0.3623166809753205
 40
0.4096593939560959
 40
0.4570021069368712
 40
0.5043448199176463
 40
0.5516875328984215
 40
0.5990302458791968
 40
0.6463729588599718
 40
0.7048267167239902
 40
0.7521694299076579
 40
0.7995121547725762
 40
0.8468552789274506
 40
0.8942021414367439
 40
0.9222222222222219
 40
0.9526570048309175
 40
1.0
 40
1.0
 40
1.0
 40
1.0
 40
1.0
 40
1.0
 10
50.20439147949219
 20
9.5
 30
0.0
 10
50.1580137404014
 20
9.55929218230165
 30
0.0
 10
49.98478112146729
 20
9.803622771278816
 30
0.0
 10
49.61991644941828
 20
10.14110347934611
 30
0.0
 10
48.70652196187482
 20
10.34304652724724
 30
0.0
 10
47.75108701324939
 20
11.34464350968359
 30
0.0
 10
45.87418504144855
 20
11.11669197752841
 30
0.0
 10
44.22598061327157
 20
12.40639369523179
 30
0.0
 10
41.81780847523689
 20
12.09413105269925
 30
0.0
 10
39.69856381323766
 20
13.07389248486691
 30
0.0
 10
37.21990674821156
 20
13.2267256923307
 30
0.0
 10
34.82834900245226
 20
13.39353876885428
 30
0.0
 10
32.45570892530241
 20
14.00197362671107
 30
0.0
 10
30.0289495910074
 20
14.12816393600049
 30
0.0
 10
27.60820295224324
 20
14.36130152669325
 30
0.0
 10
25.17834547817392
 20
14.45681874407629
 30
0.0
 10
22.79436619165222
 20
14.90013709265786
 30
0.0
 10
20.25229237212326
 20
15.10531348575773
 30
0.0
 10
17.71157902856776
 20
15.20538139332482
 30
0.0
 10
15.17294787435404
 20
15.41232592696764
 30
0.0
 10
12.63465296886561
 20
15.52116576285457
 30
0.0
 10
10.14556869138172
 20
16.07296305037855
 30
0.0
 10
7.902058704377946
 20
16.12840545280098
 30
0.0
 10
5.858644880274108
 20
16.32700458650821
 30
0.0
 10
3.819350502260091
 20
16.62007206245118
 30
0.0
 10
2.370881281230239
 20
17.13223520207467
 30
0.0
 10
1.240216957225267
 20
17.26540066681428
 30
0.0
 10
0.4936864296719705
 20
17.3599003952574
 30
0.0
 10
0.0
 20
17.42239379882812
 30
0.0
  0
SPLINE
  5
1C3
330
1F
100
AcDbEntity
  8
1
  6
Continuous
 62
   163
370
    70
100
AcDbSpline
210
0.0
220
0.0
230
1.0
 70
     8
 71
     5
 72
    30
 73
    24
 74
     0
 42
0.000000001
 43
0.0000000001
 40
0.0
 40
0.0
 40
0.0
 40
0.0
 40
0.0
 40
0.0
 40
0.0392156862745098
 40
0.1117647058823529
 40
0.1843137254901961
 40
0.2568627450980392
 40
0.3294117647058824
 40
0.4019607843137256
 40
0.4745098039215687
 40
0.5470588235294118
 40
0.619607843137255
 40
0.6921568627450981
 40
0.7647058823529412
 40
0.8200718179271712
 40
0.8374803921568629
 40
0.8717279912244617
 40
0.8817727326477444
 40
0.8834053779328122
 40
0.8867201426024954
 40
0.9274509803921566
 40
1.0
 40
1.0
 40
1.0
 40
1.0
 40
1.0
 40
1.0
 10
51.7456741333008
 20
0.0
 30
0.0
 10
51.74508884471418
 20
0.0767917373640251
 30
0.0
 10
51.7434207753236
 20
0.2956477846046007
 30
0.0
 10
51.73989203385572
 20
0.6565625948882056
 30
0.0
 10
51.73336405351585
 20
1.159487912909627
 30
0.0
 10
51.71470621002291
 20
1.804217498324469
 30
0.0
 10
51.68230376717271
 20
2.513530979239743
 30
0.0
 10
51.63574843277654
 20
3.221706222198284
 30
0.0
 10
51.57226435499095
 20
3.927847100313979
 30
0.0
 10
51.50006182409481
 20
4.632191631553889
 30
0.0
 10
51.43287781116508
 20
5.336960336237739
 30
0.0
 10
51.34525701434878
 20
6.039562654969893
 30
0.0
 10
51.26223351512799
 20
6.709361913870046
 30
0.0
 10
51.16629938698531
 20
7.270614725135339
 30
0.0
 10
51.0729054418158
 20
7.75457467842314
 30
0.0
 10
50.94826713642777
 20
8.100748074254637
 30
0.0
 10
50.84761102957638
 20
8.30827965435085
 30
0.0
 10
50.78437428672163
 20
8.421723939855177
 30
0.0
 10
50.69340659846613
 20
8.57186730530762
 30
0.0
 10
50.55155196487521
 20
8.780422746288643
 30
0.0
 10
50.42760148293124
 20
8.971257997070476
 30
0.0
 10
50.28959569768779
 20
9.160747812359597
 30
0.0
 10
50.23765276662291
 20
9.367565659754927
 30
0.0
 10
50.20439147949219
 20
9.5
 30
0.0
  0
SPLINE
  5
1C4
330
1F
100
AcDbEntity
  8
1
  6
Continuous
 62
   163
370
    70
100
AcDbSpline
210
0.0
220
0.0
230
1.0
 70
     8
 71
     5
 72
    29
 73
    23
 74
     0
 42
0.000000001
 43
0.0000000001
 40
0.0
 40
0.0
 40
0.0
 40
0.0
 40
0.0
 40
0.0
 40
0.0411764705882353
 40
0.091264705882353
 40
0.1108720691073632
 40
0.1200534759358289
 40
0.1694122549019608
 40
0.182225
 40
0.1930294117647059
 40
0.2549019607843138
 40
0.3294117647058824
 40
0.403921568627451
 40
0.4784313725490197
 40
0.5529411764705885
 40
0.6274509803921572
 40
0.7019607843137258
 40
0.7764705882352945
 40
0.8509803921568633
 40
0.9254901960784319
 40
1.0
 40
1.0
 40
1.0
 40
1.0
 40
1.0
 40
1.0
 10
30.02654835991836
 20
10.00537208051396
 30
0.0
 10
30.07660381646556
 20
9.937690299557715
 30
0.0
 10
30.18755088754845
 20
9.787674779158033
 30
0.0
 10
30.29411797865719
 20
9.585093377422814
 30
0.0
 10
30.40482000388408
 20
9.36470124204065
 30
0.0
 10
30.55152516078495
 20
9.048477527096992
 30
0.0
 10
30.70297330484099
 20
8.802883509713354
 30
0.0
 10
30.81886247700709
 20
8.630079348114721
 30
0.0
 10
30.96879738336235
 20
8.379344005459817
 30
0.0
 10
31.12563504745956
 20
7.984343435998676
 30
0.0
 10
31.22577096480983
 20
7.509594136571799
 30
0.0
 10
31.30936082502623
 20
6.897311432216435
 30
0.0
 10
31.40518839377841
 20
6.158515097220837
 30
0.0
 10
31.4777365541089
 20
5.392060641531931
 30
0.0
 10
31.55950235801741
 20
4.626848873556525
 30
0.0
 10
31.63385337921115
 20
3.859355131624351
 30
0.0
 10
31.68677823010824
 20
3.089123696643864
 30
0.0
 10
31.7247405573888
 20
2.317619734244715
 30
0.0
 10
31.74951812294555
 20
1.545365372870549
 30
0.0
 10
31.76129404588102
 20
0.9273134125248647
 30
0.0
 10
31.76486290612394
 20
0.4636549726954661
 30
0.0
 10
31.76694643382064
 20
0.1545523783411544
 30
0.0
 10
31.76798820495605
 20
0.0000000000000001
 30
0.0
  0
SPLINE
  5
1C5
330
1F
100
AcDbEntity
  8
1
  6
Continuous
 62
   163
370
    70
100
AcDbSpline
210
0.0
220
0.0
230
1.0
 70
     8
 71
     5
 72
    46
 73
    40
 74
     0
 42
0.000000001
 43
0.0000000001
 40
0.0
 40
0.0
 40
0.0
 40
0.0
 40
0.0
 40
0.0
 40
0.0019125740160223
 40
0.0132929292929293
 40
0.0515151515151515
 40
0.0843434343434343
 40
0.1031186868686869
 40
0.1181818181818182
 40
0.1535353535353535
 40
0.1928336363636363
 40
0.2212121212121212
 40
0.2525252525252525
 40
0.2888888888888889
 40
0.3393939393939392
 40
0.3898989898989898
 40
0.4368686868686867
 40
0.4582424242424241
 40
0.4665937373737373
 40
0.4707070707070706
 40
0.4959595959595958
 40
0.5424242424242424
 40
0.5929292929292929
 40
0.6434343434343434
 40
0.6939393939393939
 40
0.7444444444444445
 40
0.7837852206273259
 40
0.8121212121212118
 40
0.8533758639021795
 40
0.8650167739096957
 40
0.8701646637562557
 40
0.9064032888888887
 40
0.922421705789006
 40
0.9250350591301245
 40
0.9284001782531192
 40
0.9494949494949494
 40
0.9666666666666665
 40
1.0
 40
1.0
 40
1.0
 40
1.0
 40
1.0
 40
1.0
 10
0.0
 20
16.12221145629883
 30
0.0
 10
0.0117622605984273
 20
16.12091655119247
 30
0.0
 10
0.0935158448285217
 20
16.11191631413785
 30
0.0
 10
0.4101158101898434
 20
16.07607715360119
 30
0.0
 10
0.929822294164587
 20
16.0248977480158
 30
0.0
 10
1.544852953298738
 20
15.86971819699409
 30
0.0
 10
2.232875598786723
 20
15.68846295625298
 30
0.0
 10
3.049754960855114
 20
15.44692764699741
 30
0.0
 10
3.904638094309409
 20
15.30946522951588
 30
0.0
 10
4.73315519426287
 20
15.1562389371639
 30
0.0
 10
5.661240249291938
 20
15.09093126496053
 30
0.0
 10
6.670472639111771
 20
14.79485981023757
 30
0.0
 10
7.769344865943019
 20
14.49811488115258
 30
0.0
 10
8.963337806909715
 20
14.30191838641336
 30
0.0
 10
10.28992859503793
 20
14.17283291390415
 30
0.0
 10
11.56024456586168
 20
14.06936205516593
 30
0.0
 10
12.63267641820573
 20
13.83052248978738
 30
0.0
 10
13.41592751231734
 20
13.64100605553115
 30
0.0
 10
14.05031688721226
 20
13.50803757985951
 30
0.0
 10
14.6894661832424
 20
13.4248814403209
 30
0.0
 10
15.51222279305991
 20
13.32302611088161
 30
0.0
 10
16.59303775878966
 20
13.17817387653629
 30
0.0
 10
17.98162046066335
 20
13.11988514719002
 30
0.0
 10
19.47454531169384
 20
12.77689991425661
 30
0.0
 10
20.90722437408491
 20
12.39409329069403
 30
0.0
 10
22.25274378601254
 20
12.23867374394623
 30
0.0
 10
23.54921329146605
 20
12.11100995712587
 30
0.0
 10
24.56985953648232
 20
11.86299826916812
 30
0.0
 10
25.2899850675048
 20
11.57688348531652
 30
0.0
 10
26.0165893718416
 20
11.37694464286126
 30
0.0
 10
26.68587148526257
 20
11.24998864059484
 30
0.0
 10
27.12330548713756
 20
11.17655315009804
 30
0.0
 10
27.50805952811826
 20
11.10420499835157
 30
0.0
 10
27.96873230309681
 20
10.95594669331793
 30
0.0
 10
28.30433643193563
 20
10.8045354979991
 30
0.0
 10
28.72308888583608
 20
10.57401491806832
 30
0.0
 10
29.13032759804665
 20
10.35097264040787
 30
0.0
 10
29.54734057740448
 20
10.20242298481215
 30
0.0
 10
29.83601741112553
 20
10.08371867071219
 30
0.0
 10
30.02654835991835
 20
10.00537208051396
 30
0.0
  0
SPLINE
  5
1C6
330
1F
100
AcDbEntity
  8
1
  6
Continuous
 62
   163
370
    70
100
AcDbSpline
210
0.0
220
0.0
230
1.0
 70
     8
 71
     5
 72
    35
 73
    29
 74
     0
 42
0.000000001
 43
0.0000000001
 40
0.0
 40
0.0
 40
0.0
 40
0.0
 40
0.0
 40
0.0
 40
0.0148148148148148
 40
0.0185185185185185
 40
0.0222222222222222
 40
0.0259259259259259
 40
0.0296296296296296
 40
0.0333333333333333
 40
0.037037037037037
 40
0.0407407407407407
 40
0.0513888888888889
 40
0.1138885924499388
 40
0.1763878499451882
 40
0.2388874650229654
 40
0.3013870924579709
 40
0.3638867199262136
 40
0.4263863473944565
 40
0.4888859748626993
 40
0.5513856023309421
 40
0.613885229799185
 40
0.6763848572674277
 40
0.7388844847954977
 40
0.801384130516333
 40
0.8638844974705598
 40
0.9263888888888894
 40
1.0
 40
1.0
 40
1.0
 40
1.0
 40
1.0
 40
1.0
 10
14.0537633895874
 20
9.5
 30
0.0
 10
14.05675099599078
 20
9.472093572618718
 30
0.0
 10
14.05049978960167
 20
9.436087484083712
 30
0.0
 10
14.08283647031492
 20
9.397557584926462
 30
0.0
 10
14.09094229882493
 20
9.350011217038436
 30
0.0
 10
14.11656290588681
 20
9.297438670843185
 30
0.0
 10
14.12488944066063
 20
9.263513319447098
 30
0.0
 10
14.144647944992
 20
9.231378249879958
 30
0.0
 10
14.14393155879744
 20
9.19587671973749
 30
0.0
 10
14.18743002519017
 20
9.15448542055109
 30
0.0
 10
14.17075305782877
 20
8.990501676436413
 30
0.0
 10
14.44476073830754
 20
8.763398226413619
 30
0.0
 10
14.33825858575331
 20
8.362965205202501
 30
0.0
 10
14.44738116998828
 20
7.861867940677699
 30
0.0
 10
14.66235435179022
 20
7.312240730448215
 30
0.0
 10
14.63783133902293
 20
6.691542236777941
 30
0.0
 10
14.83320469750946
 20
6.123586467620756
 30
0.0
 10
14.78166568610359
 20
5.504890372250031
 30
0.0
 10
14.89821142585846
 20
4.920467833760438
 30
0.0
 10
14.87083369178056
 20
4.30960381782258
 30
0.0
 10
14.92627352947882
 20
3.716128487142979
 30
0.0
 10
14.9158635097784
 20
3.110232464114893
 30
0.0
 10
14.9385579632165
 20
2.512679192039796
 30
0.0
 10
14.93357461639736
 20
1.909025500337131
 30
0.0
 10
14.94218244261064
 20
1.288803823978567
 30
0.0
 10
14.93921090623824
 20
0.7844429816466204
 30
0.0
 10
14.93977572751407
 20
0.4042254924635256
 30
0.0
 10
14.93974762277965
 20
0.1411009264567431
 30
0.0
 10
14.93973255157471
 20
0.0
 30
0.0
  0
SPLINE
  5
1C7
330
1F
100
AcDbEntity
  8
1
  6
Continuous
 62
   163
370
    70
100
AcDbSpline
210
0.0
220
0.0
230
1.0
 70
     8
 71
     5
 72
    32
 73
    26
 74
     0
 42
0.000000001
 43
0.0000000001
 40
0.0
 40
0.0
 40
0.0
 40
0.0
 40
0.0
 40
0.0
 40
0.037037037037037
 40
0.0851851851851852
 40
0.133332621879853
 40
0.1814804097943337
 40
0.2296282611055224
 40
0.2777761220810791
 40
0.3259239832417994
 40
0.3740718444025197
 40
0.4222197055632402
 40
0.4703675667239605
 40
0.518515427884681
 40
0.5666632890454014
 40
0.6148111502061216
 40
0.6629590113668421
 40
0.7111068725275626
 40
0.7592547339674772
 40
0.8074026393907099
 40
0.8555510500984003
 40
0.9037037037037042
 40
0.9518518518518524
 40
1.0
 40
1.0
 40
1.0
 40
1.0
 40
1.0
 40
1.0
 10
0.0
 20
14.29287052154541
 30
0.0
 10
0.1138087350305172
 20
14.28700401288851
 30
0.0
 10
0.369083740866895
 20
14.2738453301984
 30
0.0
 10
0.7847999871177629
 20
14.29553980947767
 30
0.0
 10
1.308371180477812
 20
14.10821479871695
 30
0.0
 10
2.035127055174194
 20
14.1889180654283
 30
0.0
 10
2.70831261456185
 20
13.85588945916864
 30
0.0
 10
3.459111568810444
 20
13.83361697361836
 30
0.0
 10
4.04036476835978
 20
13.30710662357957
 30
0.0
 10
4.850128458079878
 20
13.47510655135481
 30
0.0
 10
5.465777142043851
 20
13.01669210462288
 30
0.0
 10
6.296762866556128
 20
13.21738860703269
 30
0.0
 10
6.835548603132392
 20
12.54833503919851
 30
0.0
 10
7.626688490714631
 20
12.66088692669213
 30
0.0
 10
8.222813182589933
 20
12.12852650493464
 30
0.0
 10
9.030633616420998
 20
12.28582019909057
 30
0.0
 10
9.66542348326114
 20
11.87125685115413
 30
0.0
 10
10.38263708765796
 20
11.74068490908611
 30
0.0
 10
10.96728528136069
 20
11.24544582891467
 30
0.0
 10
11.75570651037446
 20
11.260706011776
 30
0.0
 10
12.39799056126711
 20
10.9452327195598
 30
0.0
 10
13.02312221978958
 20
10.47601225122572
 30
0.0
 10
13.35845374655676
 20
10.07113168414772
 30
0.0
 10
13.92498464695132
 20
9.960182369656309
 30
0.0
 10
13.98573842769211
 20
9.616811076917731
 30
0.0
 10
14.0537633895874
 20
9.5
 30
0.0
  0
SPLINE
  5
1C8
330
1F
100
AcDbEntity
  8
1
  6
Continuous
 62
   163
370
    70
100
AcDbSpline
210
0.0
220
0.0
230
1.0
 70
     8
 71
     5
 72
    26
 73
    20
 74
     0
 42
0.000000001
 43
0.0000000001
 40
0.0
 40
0.0
 40
0.0
 40
0.0
 40
0.0
 40
0.0
 40
0.0487179487179487
 40
0.1307692307692307
 40
0.2128205128205128
 40
0.2477005982905983
 40
0.2550555555555556
 40
0.2648803418803419
 40
0.3435897435897436
 40
0.4256410256410257
 40
0.5076923076923078
 40
0.5897435897435898
 40
0.6717948717948717
 40
0.7538461538461538
 40
0.8358974358974361
 40
0.917948717948718
 40
1.0
 40
1.0
 40
1.0
 40
1.0
 40
1.0
 40
1.0
 10
5.403146743774414
 20
11.0
 30
0.0
 10
5.351771755928588
 20
11.02183470404595
 30
0.0
 10
5.213869675737888
 20
11.08044398522615
 30
0.0
 10
4.990885108968014
 20
11.17897975998331
 30
0.0
 10
4.743268578752251
 20
11.32015011410814
 30
0.0
 10
4.472419586416475
 20
11.42032927390161
 30
0.0
 10
4.227825825235302
 20
11.46282290124367
 30
0.0
 10
4.003760574111038
 20
11.54250697532111
 30
0.0
 10
3.799289063176062
 20
11.66531024761775
 30
0.0
 10
3.582165821831306
 20
11.88673516223877
 30
0.0
 10
3.249223496854278
 20
12.05348797372582
 30
0.0
 10
2.789184166984457
 20
12.17441119792452
 30
0.0
 10
2.326040127718944
 20
12.21810877828011
 30
0.0
 10
1.866825575514969
 20
12.31490560074832
 30
0.0
 10
1.410757219976905
 20
12.41572100222031
 30
0.0
 10
0.9367285774398246
 20
12.3873833252914
 30
0.0
 10
0.56429108188001
 20
12.37088315541825
 30
0.0
 10
0.2816178109315855
 20
12.36144310168984
 30
0.0
 10
0.0939309910117387
 20
12.35980102816728
 30
0.0
 10
-0.0000000000000001
 20
12.35897922515869
 30
0.0
  0
SPLINE
  5
1C9
330
1F
100
AcDbEntity
  8
1
  6
Continuous
 62
   163
370
    70
100
AcDbSpline
210
0.0
220
0.0
230
1.0
 70
     8
 71
     5
 72
    24
 73
    18
 74
     0
 42
0.000000001
 43
0.0000000001
 40
0.0
 40
0.0
 40
0.0
 40
0.0
 40
0.0
 40
0.0
 40
0.0461538461538462
 40
0.1256404783691177
 40
0.2051269836061136
 40
0.2846136881630749
 40
0.364100393866276
 40
0.443587099569477
 40
0.5230738052726781
 40
0.6025605109758793
 40
0.6820472166790801
 40
0.76153392268602
 40
0.8410209367315576
 40
0.9205128205128208
 40
1.0
 40
1.0
 40
1.0
 40
1.0
 40
1.0
 40
1.0
 10
6.216999053955078
 20
0.0
 30
0.0
 10
6.217497579556252
 20
0.1036775051121323
 30
0.0
 10
6.218860932979756
 20
0.3872117533082443
 30
0.0
 10
6.220265570845145
 20
0.846160895417568
 30
0.0
 10
6.236951735956214
 20
1.490336355965437
 30
0.0
 10
6.243601531456692
 20
2.30365461410807
 30
0.0
 10
6.2816417298969
 20
3.203636197981458
 30
0.0
 10
6.287349804883226
 20
4.088570545694721
 30
0.0
 10
6.339065887775893
 20
4.994139765789878
 30
0.0
 10
6.317147293565177
 20
5.870028762715866
 30
0.0
 10
6.387407927501234
 20
6.790957009905349
 30
0.0
 10
6.275515542653975
 20
7.643279126832238
 30
0.0
 10
6.388860075622801
 20
8.60295638985246
 30
0.0
 10
5.989816159816055
 20
9.369967885602188
 30
0.0
 10
6.371331031669072
 20
10.26849739625794
 30
0.0
 10
5.561304178871367
 20
10.51048560591504
 30
0.0
 10
5.503783716178961
 20
10.83794809584495
 30
0.0
 10
5.403146743774415
 20
11.0
 30
0.0
  0
SPLINE
  5
1CA
330
1F
100
AcDbEntity
  8
1
  6
Continuous
 62
   163
370
    70
100
AcDbSpline
210
0.0
220
0.0
230
1.0
 70
     8
 71
     5
 72
    12
 73
     6
 74
     0
 42
0.000000001
 43
0.0000000001
 40
0.0
 40
0.0
 40
0.0
 40
0.0
 40
0.0
 40
0.0
 40
1.0
 40
1.0
 40
1.0
 40
1.0
 40
1.0
 40
1.0
 10
0.2914350032806396
 20
6.0
 30
0.0
 10
0.2322447686344212
 20
6.173610069478705
 30
0.0
 10
0.1731912782431816
 20
6.346819056249262
 30
0.0
 10
0.1559625182756848
 20
6.536911780057456
 30
0.0
 10
0.0779453119627803
 20
6.698692623492877
 30
0.0
 10
0.0
 20
6.860324382781982
 30
0.0
  0
SPLINE
  5
1CB
330
1F
100
AcDbEntity
  8
1
  6
Continuous
 62
   163
370
    70
100
AcDbSpline
210
0.0
220
0.0
230
1.0
 70
     8
 71
     5
 72
    55
 73
    49
 74
     0
 42
0.000000001
 43
0.0000000001
 40
0.0
 40
0.0
 40
0.0
 40
0.0
 40
0.0
 40
0.0
 40
0.0006250150186231
 40
0.0042852336897753
 40
0.018931475029036
 40
0.0522470172104318
 40
0.0668883961566888
 40
0.0760331395697249
 40
0.0826861179361179
 40
0.0871552605820898
 40
0.0949399932082859
 40
0.124390243902439
 40
0.168264648163723
 40
0.1817774039809363
 40
0.1996355480796187
 40
0.2203672553966919
 40
0.2601626016260162
 40
0.2757235772357723
 40
0.3073170731707317
 40
0.3486585365853659
 40
0.3607295731707318
 40
0.3651418699186992
 40
0.3716407988583741
 40
0.3850683955008711
 40
0.4235772357723578
 40
0.4707317073170733
 40
0.5178861788617886
 40
0.5650406504065043
 40
0.6083148558758317
 40
0.6310051736881007
 40
0.637194991522108
 40
0.6395521616117027
 40
0.6467473989425212
 40
0.6813008130081303
 40
0.7284552845528458
 40
0.7756097560975612
 40
0.8050824390243906
 40
0.8174294057570483
 40
0.8212783265308842
 40
0.8222077904017204
 40
0.8240948837152362
 40
0.8293185825075498
 40
0.8585365853658539
 40
0.9056910569105693
 40
0.9528455284552848
 40
1.0
 40
1.0
 40
1.0
 40
1.0
 40
1.0
 40
1.0
 10
0.6542009711265564
 20
0.5
 30
0.0
 10
0.653934701324454
 20
0.5006378388727878
 30
0.0
 10
0.6521090999845145
 20
0.5050109953164845
 30
0.0
 10
0.6440657989384618
 20
0.5243400187327072
 30
0.0
 10
0.6221127334594411
 20
0.5777819945822795
 30
0.0
 10
0.5950892334178128
 20
0.6465828911461492
 30
0.0
 10
0.5669416826923352
 20
0.7247928186820959
 30
0.0
 10
0.5412726483875716
 20
0.8069736105831924
 30
0.0
 10
0.5224436467700108
 20
0.8792583810722079
 30
0.0
 10
0.511923579030842
 20
0.9247626691051922
 30
0.0
 10
0.4991475807259688
 20
0.9863440067383602
 30
0.0
 10
0.4824559005493154
 20
1.085908723880992
 30
0.0
 10
0.4708399771587909
 20
1.19419775505993
 30
0.0
 10
0.4628887260312349
 20
1.318265578347045
 30
0.0
 10
0.4571212441457692
 20
1.457410652467709
 30
0.0
 10
0.4517578024665285
 20
1.608384287129395
 30
0.0
 10
0.4477606139942102
 20
1.728015704127372
 30
0.0
 10
0.44302349476991
 20
1.867799277801178
 30
0.0
 10
0.437524822788236
 20
2.033706917135036
 30
0.0
 10
0.4325551120026139
 20
2.189886526841028
 30
0.0
 10
0.4289780561792971
 20
2.306636166530504
 30
0.0
 10
0.4256059339628536
 20
2.413248747679931
 30
0.0
 10
0.4227557636613249
 20
2.499635265073948
 30
0.0
 10
0.4199388366598873
 20
2.58285604644201
 30
0.0
 10
0.4156631400801002
 20
2.705006437077533
 30
0.0
 10
0.4096739746481375
 20
2.874549821930492
 30
0.0
 10
0.4023028536949574
 20
3.089116495784498
 30
0.0
 10
0.395419854385544
 20
3.336733968971811
 30
0.0
 10
0.3902593811884169
 20
3.566705180816312
 30
0.0
 10
0.3872036007648434
 20
3.751207984151668
 30
0.0
 10
0.3850767374759119
 20
3.885991586508223
 30
0.0
 10
0.3835033348539327
 20
3.976462946195899
 30
0.0
 10
0.3820079544602484
 20
4.05725556072895
 30
0.0
 10
0.3798451263541468
 20
4.165089174395732
 30
0.0
 10
0.376510838897903
 20
4.318170195949556
 30
0.0
 10
0.3721099912467489
 20
4.501126074798074
 30
0.0
 10
0.3657478369749091
 20
4.689597659748921
 30
0.0
 10
0.3583652632170689
 20
4.84416690849091
 30
0.0
 10
0.3514470507890328
 20
4.947682301890608
 30
0.0
 10
0.3472877937891535
 20
5.001213266852081
 30
0.0
 10
0.3450823706476208
 20
5.02797103579267
 30
0.0
 10
0.3412215703242134
 20
5.07335325112759
 30
0.0
 10
0.3323410249167576
 20
5.166553750497367
 30
0.0
 10
0.3172847299126731
 20
5.310673680135277
 30
0.0
 10
0.2928711836342385
 20
5.504969525421764
 30
0.0
 10
0.2809052329968524
 20
5.692201857365947
 30
0.0
 10
0.275782832181844
 20
5.847127000058315
 30
0.0
 10
0.2862177132110976
 20
5.949043312939621
 30
0.0
 10
0.2914350032806397
 20
6.000000000000001
 30
0.0
  0
SPLINE
  5
1CC
330
1F
100
AcDbEntity
  8
1
  6
Continuous
 62
   163
370
    70
100
AcDbSpline
210
0.0
220
0.0
230
1.0
 70
    24
 71
     5
 72
    12
 73
     6
 74
     0
 42
0.000000001
 43
0.0000000001
 40
0.0
 40
0.0
 40
0.0
 40
0.0
 40
0.0
 40
0.0
 40
1.0
 40
1.0
 40
1.0
 40
1.0
 40
1.0
 40
1.0
 10
0.6654831171035767
 20
0.0
 30
0.0
 10
0.6632266879081726
 20
0.1000000000000024
 30
0.0
 10
0.6609702587127687
 20
0.2000000000000049
 30
0.0
 10
0.6587138295173649
 20
0.300000000000003
 30
0.0
 10
0.6564574003219606
 20
0.4000000000000016
 30
0.0
 10
0.6542009711265564
 20
0.5
 30
0.0
  0
SPLINE
  5
1CD
330
1F
100
AcDbEntity
  8
1
  6
Continuous
 62
   163
370
    70
100
AcDbSpline
210
0.0
220
0.0
230
1.0
 70
     8
 71
     5
 72
   106
 73
   100
 74
     0
 42
0.000000001
 43
0.0000000001
 40
0.0
 40
0.0
 40
0.0
 40
0.0
 40
0.0
 40
0.0
 40
0.0070940170940171
 40
0.0182051282051282
 40
0.0245299145299145
 40
0.0279273504273504
 40
0.0330640582222469
 40
0.0393451571853592
 40
0.0453138324863766
 40
0.050663150386647
 40
0.0554412606866858
 40
0.060022333961185
 40
0.0648256418188427
 40
0.071442332229305
 40
0.0799093173466803
 40
0.0899623907857384
 40
0.1013683417557614
 40
0.1137466669235159
 40
0.1265698630841183
 40
0.1399704363095736
 40
0.1482417564340198
 40
0.1541098775846092
 40
0.1614028953661083
 40
0.1636710587909764
 40
0.1696031785175545
 40
0.1704755490655808
 40
0.1859746565600342
 40
0.202643139355191
 40
0.2194021911343311
 40
0.2362159997672994
 40
0.2532234206270215
 40
0.2703782793766596
 40
0.2878960910493959
 40
0.3064050350376861
 40
0.3272464540296129
 40
0.3497316552418999
 40
0.3734038669173363
 40
0.397591996873394
 40
0.4203148683822
 40
0.4288768138210066
 40
0.431625870368794
 40
0.4343749269165815
 40
0.4371239834643689
 40
0.4405497308546886
 40
0.4453711531077312
 40
0.4481202096555187
 40
0.4508692662033061
 40
0.4536183227510935
 40
0.4557358595420257
 40
0.4580162837784142
 40
0.4620884699148222
 40
0.4642060067057544
 40
0.4663235434966865
 40
0.4684410802876187
 40
0.4705586170785509
 40
0.4724806889349354
 40
0.4745791513150722
 40
0.4764821487606613
 40
0.4783851462062504
 40
0.4802881436518395
 40
0.4840941385430177
 40
0.4854994289643758
 40
0.4859971359886068
 40
0.487900133434196
 40
0.4898031308797851
 40
0.4920858592435219
 40
0.5002334435571675
 40
0.5173700850983521
 40
0.5374696551189185
 40
0.5607936536099886
 40
0.5851852375178809
 40
0.6101625070245802
 40
0.6353907155253574
 40
0.6606817136971957
 40
0.6859727118690343
 40
0.7112332385828577
 40
0.7364035182822085
 40
0.7612181073927747
 40
0.7848240909893127
 40
0.8065017107058521
 40
0.8257141336905173
 40
0.8412959532165245
 40
0.8545680410631243
 40
0.8679473644552708
 40
0.8822719773586851
 40
0.8984418307144642
 40
0.91446047164187
 40
0.9286464321400616
 40
0.9342881857470327
 40
0.9393944375891435
 40
0.9405161797672149
 40
0.9407201328905007
 40
0.9495716984411008
 40
0.9620512820512825
 40
0.9747008547008551
 40
0.9873504273504277
 40
1.0
 40
1.0
 40
1.0
 40
1.0
 40
1.0
 40
1.0
 10
137.6006317138672
 20
0.0
 30
0.0
 10
137.596434249285
 20
0.1631828304496485
 30
0.0
 10
137.5850702918064
 20
0.6049739903180582
 30
0.0
 10
137.5215281584781
 20
1.137019057314962
 30
0.0
 10
137.4261389707318
 20
1.845859789547312
 30
0.0
 10
137.1981544883188
 20
2.517494623886866
 30
0.0
 10
137.1505473469975
 20
3.340597822328657
 30
0.0
 10
136.575851599921
 20
3.760235796563708
 30
0.0
 10
136.676975176818
 20
4.462239575844478
 30
0.0
 10
136.1078312572557
 20
4.899116071655452
 30
0.0
 10
136.1121115926151
 20
5.626672387519776
 30
0.0
 10
135.3950475146433
 20
5.874744588296308
 30
0.0
 10
135.46304400503
 20
6.59798712343965
 30
0.0
 10
134.963657912096
 20
7.108686123099305
 30
0.0
 10
134.463980043378
 20
7.730279522202419
 30
0.0
 10
133.8490829183997
 20
8.482305345460524
 30
0.0
 10
133.0712568449099
 20
9.328029523794008
 30
0.0
 10
132.1094575290562
 20
10.19072302973844
 30
0.0
 10
131.0341156553258
 20
11.11376762113149
 30
0.0
 10
129.8225343227412
 20
11.76106839937398
 30
0.0
 10
128.7853210215985
 20
12.4031375527995
 30
0.0
 10
127.7645179621486
 20
12.87871099878134
 30
0.0
 10
127.0015098061509
 20
13.25823398527389
 30
0.0
 10
126.3306746365253
 20
13.48132094190429
 30
0.0
 10
125.8210020678203
 20
13.5574968415979
 30
0.0
 10
125.259784861777
 20
14.15095565586999
 30
0.0
 10
124.2233693647433
 20
14.14122587680829
 30
0.0
 10
123.051609688738
 20
14.6720397442752
 30
0.0
 10
121.6057225214711
 20
15.29016911479116
 30
0.0
 10
119.6314675624524
 20
15.35931142421391
 30
0.0
 10
117.8458161774829
 20
16.29571939800276
 30
0.0
 10
115.7603862251648
 20
16.18179780508239
 30
0.0
 10
113.8259357353487
 20
16.75287273340687
 30
0.0
 10
111.7121034643638
 20
17.12332573564881
 30
0.0
 10
109.4518663005666
 20
17.26310233180032
 30
0.0
 10
107.0446190316153
 20
17.48153808923767
 30
0.0
 10
104.5057304120814
 20
17.84434824423423
 30
0.0
 10
101.8455177327829
 20
18.16757344174634
 30
0.0
 10
99.46330928208535
 20
18.28012870992632
 30
0.0
 10
97.5480944016451
 20
18.45414814716397
 30
0.0
 10
96.11920334759807
 20
18.5249292439914
 30
0.0
 10
95.19697706410808
 20
18.63235456140453
 30
0.0
 10
94.7207857771878
 20
18.63461585517132
 30
0.0
 10
94.33992203200273
 20
18.72578798619798
 30
0.0
 10
93.94711652580067
 20
18.67526010691813
 30
0.0
 10
93.56677239278031
 20
18.76432990371263
 30
0.0
 10
93.1776816482492
 20
18.7698187981573
 30
0.0
 10
92.82311644302415
 20
18.78846031747526
 30
0.0
 10
92.52579032178258
 20
18.81982093718987
 30
0.0
 10
92.20245479219291
 20
18.84544831085712
 30
0.0
 10
91.88277262084522
 20
18.85317528673301
 30
0.0
 10
91.59549004071984
 20
18.88191614781386
 30
0.0
 10
91.28536195302317
 20
18.9050643911787
 30
0.0
 10
91.00808151830405
 20
18.92042358217313
 30
0.0
 10
90.73829588805388
 20
18.93522096827984
 30
0.0
 10
90.54127917056178
 20
18.95405424320566
 30
0.0
 10
90.2206358345076
 20
18.9696230466474
 30
0.0
 10
90.13653173023509
 20
18.9843069775515
 30
0.0
 10
89.6191187460615
 20
19.00098646808448
 30
0.0
 10
90.15987302815178
 20
19.00302656698171
 30
0.0
 10
90.23849529828162
 20
19.01344324782884
 30
0.0
 10
90.57026388967735
 20
19.01405447588323
 30
0.0
 10
90.74540025407211
 20
19.02078051539739
 30
0.0
 10
90.98955977314402
 20
19.0244631951149
 30
0.0
 10
91.16851321383263
 20
19.02873700074369
 30
0.0
 10
91.51828292220432
 20
19.03555426616728
 30
0.0
 10
92.25199782204119
 20
19.05081485053567
 30
0.0
 10
93.41773319955472
 20
19.07342379353104
 30
0.0
 10
95.08238932895283
 20
19.10380663392641
 30
0.0
 10
97.26897044539992
 20
19.14025786579872
 30
0.0
 10
99.84869330090893
 20
19.17666372312236
 30
0.0
 10
102.6197912686543
 20
19.20964053879098
 30
0.0
 10
105.5119229811281
 20
19.23491467486385
 30
0.0
 10
108.450978406841
 20
19.25414988599912
 30
0.0
 10
111.4098944307693
 20
19.26266347744455
 30
0.0
 10
114.3739248303568
 20
19.26617185089502
 30
0.0
 10
117.3274156472658
 20
19.25252017555799
 30
0.0
 10
120.2423340932579
 20
19.24166255229048
 30
0.0
 10
123.0707513686883
 20
19.20205048015614
 30
0.0
 10
125.7593977980265
 20
19.1854954945685
 30
0.0
 10
128.2194397029062
 20
19.11977829553441
 30
0.0
 10
130.4134655374436
 20
19.11816333389848
 30
0.0
 10
132.3599115044671
 20
19.01522896619145
 30
0.0
 10
134.1454234449524
 20
19.07009884385878
 30
0.0
 10
135.8382226256604
 20
18.84332983950654
 30
0.0
 10
137.5182512111982
 20
18.51360644240496
 30
0.0
 10
139.2344709009845
 20
18.37144572357845
 30
0.0
 10
140.8068948005038
 20
18.26797907416429
 30
0.0
 10
142.10350206408
 20
18.04410430568418
 30
0.0
 10
143.1343981065154
 20
18.06285753246991
 30
0.0
 10
143.6595464252542
 20
17.69806140233647
 30
0.0
 10
144.0772613332682
 20
17.44320623754225
 30
0.0
 10
144.7477474522129
 20
17.41297612637124
 30
0.0
 10
145.5083190752651
 20
17.02898459681924
 30
0.0
 10
146.4118443220144
 20
16.44847909786056
 30
0.0
 10
147.5397292052536
 20
15.59208824629812
 30
0.0
 10
148.4650118518986
 20
14.88465045028909
 30
0.0
 10
149.2411589869297
 20
14.41631048113733
 30
0.0
 10
149.7434847642938
 20
14.11451433298208
 30
0.0
 10
150.0
 20
13.96040058135987
 30
0.0
  0
SPLINE
  5
1CE
330
1F
100
AcDbEntity
  8
1
  6
Continuous
 62
   163
370
    70
100
AcDbSpline
210
0.0
220
0.0
230
1.0
 70
     8
 71
     5
 72
    58
 73
    52
 74
     0
 42
0.000000001
 43
0.0000000001
 40
0.0
 40
0.0
 40
0.0
 40
0.0
 40
0.0
 40
0.0
 40
0.0007028896011234
 40
0.005050929819643
 40
0.0254835996635828
 40
0.0402828729352904
 40
0.0439247732075194
 40
0.0527205210402232
 40
0.0656244271720638
 40
0.070305845915602
 40
0.0714285714285714
 40
0.0725519644359005
 40
0.0765378556910569
 40
0.0811577719705769
 40
0.0833333333333333
 40
0.0856574146616128
 40
0.0997226115643082
 40
0.1194623983739837
 40
0.1254065040650407
 40
0.1433758807588076
 40
0.1707317073170732
 40
0.2219512195121952
 40
0.273170731707317
 40
0.324390243902439
 40
0.3711382113821138
 40
0.3967479674796748
 40
0.4139065040650407
 40
0.4223577235772358
 40
0.4626016260162601
 40
0.4750356174990322
 40
0.4820380136202224
 40
0.4844146898973898
 40
0.4868848199856488
 40
0.4918999325890837
 40
0.4993099223452081
 40
0.502755194218609
 40
0.5252032520325204
 40
0.5723577235772359
 40
0.623577235772358
 40
0.6440040650406507
 40
0.6540650406504066
 40
0.6926829268292686
 40
0.7095853658536587
 40
0.7439024390243907
 40
0.7951219512195125
 40
0.8463414634146345
 40
0.8975609756097566
 40
0.9487804878048787
 40
1.0
 40
1.0
 40
1.0
 40
1.0
 40
1.0
 40
1.0
 10
142.35791015625
 20
0.0
 30
0.0
 10
142.3574428201946
 20
0.0063090018305536
 30
0.0
 10
142.3540845746955
 20
0.0516450651520148
 30
0.0
 10
142.3384583964431
 20
0.2804846770332571
 30
0.0
 10
142.3222683797974
 20
0.6427984513883559
 30
0.0
 10
142.2915909204522
 20
1.037345863247523
 30
0.0
 10
142.2236678065404
 20
1.496414947255685
 30
0.0
 10
142.0702058936328
 20
2.007999818731907
 30
0.0
 10
141.8964206346069
 20
2.363240393201935
 30
0.0
 10
141.7597794562906
 20
2.603202318546811
 30
0.0
 10
141.6412226719677
 20
2.826345870160518
 30
0.0
 10
141.5551601705144
 20
3.017200244941187
 30
0.0
 10
141.5036424461418
 20
3.143561624034935
 30
0.0
 10
141.4638952317769
 20
3.25093240525128
 30
0.0
 10
141.4217438617464
 20
3.368681620873961
 30
0.0
 10
141.3382118663678
 20
3.592315928620894
 30
0.0
 10
141.180387699228
 20
3.934911894467131
 30
0.0
 10
140.9781731299246
 20
4.270615862257206
 30
0.0
 10
140.6416081074479
 20
4.689275257721163
 30
0.0
 10
140.2442973056317
 20
5.323893390806321
 30
0.0
 10
139.7277525038299
 20
6.271479763115909
 30
0.0
 10
138.8579263189749
 20
7.342661758095072
 30
0.0
 10
137.6429088017387
 20
8.644907809452619
 30
0.0
 10
136.2606775168778
 20
10.1295045645016
 30
0.0
 10
134.6908319980321
 20
11.45023159807522
 30
0.0
 10
133.1579175842563
 20
12.21851761131629
 30
0.0
 10
132.0699501203492
 20
12.99024448708028
 30
0.0
 10
130.9180416390187
 20
13.42659679495496
 30
0.0
 10
130.1145452057766
 20
13.87810693043437
 30
0.0
 10
129.4038958456613
 20
14.14469317346774
 30
0.0
 10
128.8062636308012
 20
14.33484319805459
 30
0.0
 10
128.2611099789722
 20
14.50426445188515
 30
0.0
 10
128.0196220380202
 20
14.59637778078967
 30
0.0
 10
127.8234195554157
 20
14.68257316207885
 30
0.0
 10
127.6578949033943
 20
14.76124949615203
 30
0.0
 10
127.3330689516958
 20
14.91947237029919
 30
0.0
 10
126.6243880826531
 20
15.1865812792468
 30
0.0
 10
125.4513795879329
 20
15.37494990528494
 30
0.0
 10
124.2666748912617
 20
15.84462497865694
 30
0.0
 10
122.9497528365188
 20
16.18116748975228
 30
0.0
 10
121.4663120220139
 20
16.38106437870927
 30
0.0
 10
120.2737964230416
 20
16.62322797738015
 30
0.0
 10
119.2448227304231
 20
16.93476002718416
 30
0.0
 10
117.9165844755209
 20
17.16501009566706
 30
0.0
 10
116.1966855121082
 20
17.32125947904417
 30
0.0
 10
114.3981823705445
 20
17.60840254192863
 30
0.0
 10
112.2676956403913
 20
17.82871443046678
 30
0.0
 10
110.0507279116849
 20
18.40226801817297
 30
0.0
 10
108.2434191198335
 20
18.65177814653148
 30
0.0
 10
106.8862516866091
 20
18.85421908263922
 30
0.0
 10
105.9730237504429
 20
18.92944731335949
 30
0.0
 10
105.5165556710331
 20
18.96704941096705
 30
0.0
  0
SPLINE
  5
1CF
330
1F
100
AcDbEntity
  8
1
  6
Continuous
 62
   163
370
    70
100
AcDbSpline
210
0.0
220
0.0
230
1.0
 70
     8
 71
     5
 72
    36
 73
    30
 74
     0
 42
0.000000001
 43
0.0000000001
 40
0.0
 40
0.0
 40
0.0
 40
0.0
 40
0.0
 40
0.0
 40
0.0333333333333333
 40
0.1
 40
0.1666666666666667
 40
0.2166666666666666
 40
0.2373509068627451
 40
0.2402424659313725
 40
0.2416666666666666
 40
0.25
 40
0.2666666666666667
 40
0.3
 40
0.325
 40
0.3666666666666666
 40
0.394773489010989
 40
0.4153846153846154
 40
0.4333333333333333
 40
0.4666666666666666
 40
0.5333333333333333
 40
0.6
 40
0.6666666666666666
 40
0.7333333333333332
 40
0.7999999999999997
 40
0.8666666666666661
 40
0.9333333333333327
 40
0.966666666666666
 40
1.0
 40
1.0
 40
1.0
 40
1.0
 40
1.0
 40
1.0
 10
150.0
 20
8.055524826049806
 30
0.0
 10
149.7532926908851
 20
8.260201080994388
 30
0.0
 10
149.0129150931185
 20
8.874441958166868
 30
0.0
 10
147.9173704470745
 20
10.05895665244926
 30
0.0
 10
146.3642805696741
 20
11.45186752194899
 30
0.0
 10
144.7288045020937
 20
13.04141241356155
 30
0.0
 10
143.1307517009726
 20
14.25690052112152
 30
0.0
 10
142.0066140259791
 20
15.01714814630783
 30
0.0
 10
141.2781955307758
 20
15.33885828774665
 30
0.0
 10
140.8562728994042
 20
15.55883234224505
 30
0.0
 10
140.3389988042943
 20
15.85848679777365
 30
0.0
 10
139.6364264492572
 20
16.26279706222735
 30
0.0
 10
138.4141989496037
 20
16.44380510115913
 30
0.0
 10
137.1917826723798
 20
17.06701840134691
 30
0.0
 10
135.7638730174156
 20
17.32581488053285
 30
0.0
 10
134.4761423118404
 20
17.38114263469236
 30
0.0
 10
133.179600242962
 20
17.77106100077978
 30
0.0
 10
131.6232657020046
 20
18.12092824966831
 30
0.0
 10
129.6290178387946
 20
18.16911719809274
 30
0.0
 10
127.233633373625
 20
18.41103501440298
 30
0.0
 10
124.3362765173866
 20
18.46608295844705
 30
0.0
 10
121.1616174285921
 20
18.77232684104559
 30
0.0
 10
117.9527130661512
 20
19.02271654499708
 30
0.0
 10
114.7468738625657
 20
19.02261682802457
 30
0.0
 10
111.8547410365667
 20
19.04119950280063
 30
0.0
 10
109.2883575736506
 20
19.00751701001762
 30
0.0
 10
107.3627305185552
 20
19.05265545570895
 30
0.0
 10
106.0766703224957
 20
18.95990366739262
 30
0.0
 10
105.4365778676643
 20
18.98663518556804
 30
0.0
 10
105.1165542602539
 20
19.0
 30
0.0
  0
SPLINE
  5
1D0
330
1F
100
AcDbEntity
  8
1
  6
Continuous
 62
   163
370
    70
100
AcDbSpline
210
0.0
220
0.0
230
1.0
 70
     8
 71
     5
 72
    50
 73
    44
 74
     0
 42
0.000000001
 43
0.0000000001
 40
0.0
 40
0.0
 40
0.0
 40
0.0
 40
0.0
 40
0.0
 40
0.0004897060069474
 40
0.0038888418198763
 40
0.0209009009009009
 40
0.0402083629931347
 40
0.0516165662566591
 40
0.0554923228181742
 40
0.0599935849161855
 40
0.0779279279279279
 40
0.1007766387076732
 40
0.1221497359428394
 40
0.1451273562023562
 40
0.1837837837837838
 40
0.2324324324324324
 40
0.281081081081081
 40
0.3
 40
0.3254504504504504
 40
0.3345754845754846
 40
0.361029211029211
 40
0.409009009009009
 40
0.4576576576576576
 40
0.5063063063063064
 40
0.554954954954955
 40
0.6036036036036034
 40
0.6522522522522519
 40
0.7009009009009005
 40
0.7414414414414411
 40
0.7657657657657654
 40
0.7919780888030884
 40
0.7965492223938219
 40
0.7985175836550833
 40
0.8025953811261255
 40
0.8206375342342338
 40
0.8567567567567561
 40
0.9046570083876972
 40
0.9315870736253486
 40
0.9504321227658709
 40
0.9553295141124165
 40
0.961457704682281
 40
1.0
 40
1.0
 40
1.0
 40
1.0
 40
1.0
 40
1.0
 10
125.298469543457
 20
17.0
 30
0.0
 10
125.3011073675568
 20
16.99931400595674
 30
0.0
 10
125.3220547769432
 20
16.99386641069766
 30
0.0
 10
125.434487666389
 20
16.96400493069284
 30
0.0
 10
125.6493746320517
 20
16.90133188543857
 30
0.0
 10
125.9230337083659
 20
16.81317286224685
 30
0.0
 10
126.2132444402838
 20
16.71621136405619
 30
0.0
 10
126.5029515413529
 20
16.60637901437532
 30
0.0
 10
126.7998294450356
 20
16.50151076155686
 30
0.0
 10
127.1212510043596
 20
16.40529524253068
 30
0.0
 10
127.502217756553
 20
16.31310768530675
 30
0.0
 10
127.9816892336255
 20
16.17330558798994
 30
0.0
 10
128.6082883896502
 20
15.88119934870146
 30
0.0
 10
129.3994521782753
 20
15.53553913683328
 30
0.0
 10
130.3684753531937
 20
15.27742092449514
 30
0.0
 10
131.2999871547029
 20
14.90101782208997
 30
0.0
 10
132.1725618069009
 20
14.42066398714762
 30
0.0
 10
132.9696743612299
 20
14.14688849064506
 30
0.0
 10
133.5787132220757
 20
13.76455225524462
 30
0.0
 10
134.1871178977992
 20
13.39726056565949
 30
0.0
 10
135.0083048079872
 20
13.07758981919371
 30
0.0
 10
135.8488763028032
 20
12.49958631301178
 30
0.0
 10
136.85055316048
 20
11.78569068923977
 30
0.0
 10
137.9710820057339
 20
11.00436473857735
 30
0.0
 10
138.9786709051265
 20
10.07741890088566
 30
0.0
 10
139.9560149472085
 20
9.120927829606464
 30
0.0
 10
140.876029266377
 20
8.17147663673814
 30
0.0
 10
141.6736742112919
 20
7.293131044247415
 30
0.0
 10
142.307025032969
 20
6.448166401030828
 30
0.0
 10
142.7827821399734
 20
5.807268949523656
 30
0.0
 10
143.103786458395
 20
5.369343010715079
 30
0.0
 10
143.3055741961498
 20
5.094860648577546
 30
0.0
 10
143.4961921758601
 20
4.855182123714471
 30
0.0
 10
143.7290205632805
 20
4.577927967317541
 30
0.0
 10
144.1295801830896
 20
4.122700276837636
 30
0.0
 10
144.574443547941
 20
3.523518994165329
 30
0.0
 10
145.0267936550871
 20
2.833865179248861
 30
0.0
 10
145.3018943577661
 20
2.133825183649667
 30
0.0
 10
145.5738180470912
 20
1.619097245317622
 30
0.0
 10
145.7820425023624
 20
1.136384438617756
 30
0.0
 10
145.8712116546154
 20
0.7673020327540538
 30
0.0
 10
145.9204243584673
 20
0.4938856150716123
 30
0.0
 10
145.9631469343485
 20
0.2455282227224834
 30
0.0
 10
146.0
 20
0.0312918126583099
 30
0.0
  0
SPLINE
  5
1D1
330
1F
100
AcDbEntity
  8
1
  6
Continuous
 62
   163
370
    70
100
AcDbSpline
210
0.0
220
0.0
230
1.0
 70
    24
 71
     5
 72
    12
 73
     6
 74
     0
 42
0.000000001
 43
0.0000000001
 40
0.0
 40
0.0
 40
0.0
 40
0.0
 40
0.0
 40
0.0
 40
1.0
 40
1.0
 40
1.0
 40
1.0
 40
1.0
 40
1.0
 10
125.4216918945312
 20
17.07830619812012
 30
0.0
 10
125.3970474243164
 20
17.06264495849607
 30
0.0
 10
125.3724029541015
 20
17.04698371887202
 30
0.0
 10
125.3477584838867
 20
17.03132247924804
 30
0.0
 10
125.3231140136719
 20
17.01566123962402
 30
0.0
 10
125.298469543457
 20
17.0
 30
0.0
  0
SPLINE
  5
1D2
330
1F
100
AcDbEntity
  8
1
  6
Continuous
 62
   163
370
    70
100
AcDbSpline
210
0.0
220
0.0
230
1.0
 70
     8
 71
     5
 72
    57
 73
    51
 74
     0
 42
0.000000001
 43
0.0000000001
 40
0.0
 40
0.0
 40
0.0
 40
0.0
 40
0.0
 40
0.0
 40
0.0181286549707602
 40
0.0473684210526316
 40
0.0766081871345029
 40
0.1058478283999742
 40
0.1350869938984493
 40
0.1643265275417213
 40
0.1935661020679042
 40
0.2228056899536064
 40
0.2520452813163251
 40
0.2812848729659151
 40
0.310524458258755
 40
0.3397639228556426
 40
0.369002364801267
 40
0.3982335148145003
 40
0.4273941309086924
 40
0.4562088877811707
 40
0.4839866874572358
 40
0.509829985133994
 40
0.5333463366414142
 40
0.5552232617126448
 40
0.5772611524543155
 40
0.6012610996681501
 40
0.6265351578500159
 40
0.6507059719503616
 40
0.6728500223251783
 40
0.6934216828290835
 40
0.713299911062723
 40
0.7331253277963063
 40
0.7532497096749823
 40
0.7746429157404138
 40
0.7990094059552595
 40
0.8258323444974299
 40
0.85412676071243
 40
0.8830923540533733
 40
0.9122807017543861
 40
0.9415204678362575
 40
0.9555555555555558
 40
0.9592592592592596
 40
0.9629629629629631
 40
0.9707602339181289
 40
0.977777777777778
 40
0.9814814814814816
 40
0.9851851851851853
 40
0.9888888888888889
 40
0.9925925925925927
 40
1.0
 40
1.0
 40
1.0
 40
1.0
 40
1.0
 40
1.0
 10
150.0
 20
4.084533214569092
 30
0.0
 10
149.9248471048748
 20
4.160557490403932
 30
0.0
 10
149.7330419720458
 20
4.354586560081526
 30
0.0
 10
149.4052078901734
 20
4.663243669995027
 30
0.0
 10
149.0202481046631
 20
5.142031770289451
 30
0.0
 10
148.4330151042267
 20
5.671811410613158
 30
0.0
 10
147.8703728258199
 20
6.308268469584488
 30
0.0
 10
147.2500867825427
 20
6.893628079522726
 30
0.0
 10
146.6670930956372
 20
7.511450100670711
 30
0.0
 10
146.0585010613649
 20
8.10744486960122
 30
0.0
 10
145.4577505922061
 20
8.70834648107192
 30
0.0
 10
144.8540832092452
 20
9.309040649038113
 30
0.0
 10
144.2377451837559
 20
9.894592930043835
 30
0.0
 10
143.6247201624439
 20
10.48622832189395
 30
0.0
 10
142.9944943157046
 20
11.05690140005226
 30
0.0
 10
142.3580590612569
 20
11.62316209621732
 30
0.0
 10
141.718423491881
 20
12.17874773437226
 30
0.0
 10
141.0286055973435
 20
12.66172948613851
 30
0.0
 10
140.3949019128667
 20
13.17869210140424
 30
0.0
 10
139.6707869362749
 20
13.50885341818966
 30
0.0
 10
139.1515582202048
 20
14.06441910812182
 30
0.0
 10
138.4662233851039
 20
14.31916103611961
 30
0.0
 10
137.8006762317936
 20
14.44313732835389
 30
0.0
 10
137.3349510191662
 20
15.02544146845172
 30
0.0
 10
136.6335356826867
 20
15.1683364151579
 30
0.0
 10
135.9768695886506
 20
15.28382821290355
 30
0.0
 10
135.3826142583551
 20
15.66128764131831
 30
0.0
 10
134.7250464044419
 20
15.70905624915285
 30
0.0
 10
134.2252724197639
 20
16.14938070887165
 30
0.0
 10
133.5828982980171
 20
16.11644725992151
 30
0.0
 10
133.0354274462717
 20
16.29207233108652
 30
0.0
 10
132.4185275285706
 20
16.39364651264697
 30
0.0
 10
131.7831636708168
 20
16.48126907829476
 30
0.0
 10
131.1186800441437
 20
16.71336276681652
 30
0.0
 10
130.3901918073936
 20
16.87505468353482
 30
0.0
 10
129.6265792026367
 20
17.12928396812511
 30
0.0
 10
128.76896054745
 20
17.052517733855
 30
0.0
 10
128.040964186412
 20
17.20459839763687
 30
0.0
 10
127.417535926925
 20
17.18397573648457
 30
0.0
 10
126.9582162947558
 20
17.18189424114474
 30
0.0
 10
126.6246276022726
 20
17.22368701059047
 30
0.0
 10
126.4113068763237
 20
17.17694074473957
 30
0.0
 10
126.2623790088757
 20
17.2132325952019
 30
0.0
 10
126.1143351003841
 20
17.16242693269061
 30
0.0
 10
125.9642137897403
 20
17.11706740743848
 30
0.0
 10
125.8412028735712
 20
17.18451005742166
 30
0.0
 10
125.7107625454114
 20
17.1384234829927
 30
0.0
 10
125.612487414165
 20
17.13086730181635
 30
0.0
 10
125.5285268155376
 20
17.06299352445069
 30
0.0
 10
125.464452608503
 20
17.08000179541031
 30
0.0
 10
125.4216918945312
 20
17.07830619812012
 30
0.0
  0
SPLINE
  5
1D3
330
1F
100
AcDbEntity
  8
1
  6
Continuous
 62
   163
370
    70
100
AcDbSpline
210
0.0
220
0.0
230
1.0
 70
     8
 71
     5
 72
    36
 73
    30
 74
     0
 42
0.000000001
 43
0.0000000001
 40
0.0
 40
0.0
 40
0.0
 40
0.0
 40
0.0
 40
0.0
 40
0.0120718462823726
 40
0.053968253968254
 40
0.1072103476190476
 40
0.1136515914920635
 40
0.1168241444444445
 40
0.1268148148148148
 40
0.1682539682539683
 40
0.2285714285714286
 40
0.2888888888888889
 40
0.3492063492063491
 40
0.4095238095238095
 40
0.4698412698412698
 40
0.5301587301587302
 40
0.5904761904761906
 40
0.650793650793651
 40
0.7111111111111114
 40
0.7714285714285718
 40
0.8317460317460321
 40
0.8920634920634927
 40
0.8993870301270402
 40
0.9029941458896831
 40
0.925186685476191
 40
0.9386969121534469
 40
0.9473133809523816
 40
1.0
 40
1.0
 40
1.0
 40
1.0
 40
1.0
 40
1.0
 10
139.5948333740235
 20
11.40516662597657
 30
0.0
 10
139.6282745430985
 20
11.39328438781399
 30
0.0
 10
139.777725641559
 20
11.34018177224494
 30
0.0
 10
140.0756826413241
 20
11.23587441476147
 30
0.0
 10
140.3912013635173
 20
11.14583443036751
 30
0.0
 10
140.7098602148088
 20
11.02073280484963
 30
0.0
 10
141.0217376445872
 20
10.89441153217764
 30
0.0
 10
141.3092614194668
 20
10.72943749898597
 30
0.0
 10
141.5956939366209
 20
10.51741184350662
 30
0.0
 10
141.9651557522584
 20
10.151783656518
 30
0.0
 10
142.5163823717956
 20
9.744698511816242
 30
0.0
 10
143.1037834919246
 20
9.155860834879732
 30
0.0
 10
143.7738379951821
 20
8.575085031516279
 30
0.0
 10
144.3930380049138
 20
7.940541198820593
 30
0.0
 10
145.0337362225729
 20
7.329494418575713
 30
0.0
 10
145.6525042618865
 20
6.69430141415573
 30
0.0
 10
146.2668898425965
 20
6.058115570071045
 30
0.0
 10
146.887393645726
 20
5.423857030303629
 30
0.0
 10
147.4728888021979
 20
4.761280248729236
 30
0.0
 10
148.0904127541243
 20
4.123380792323839
 30
0.0
 10
148.5130871553434
 20
3.524147698006865
 30
0.0
 10
148.8649797912515
 20
3.081931335088171
 30
0.0
 10
149.1490857763415
 20
2.729728009207602
 30
0.0
 10
149.2831014708025
 20
2.449911247587817
 30
0.0
 10
149.3375888878602
 20
2.297655544460414
 30
0.0
 10
149.4359299398678
 20
2.023142490566934
 30
0.0
 10
149.6160441158144
 20
1.803713623024564
 30
0.0
 10
149.7974754623359
 20
1.664678644435684
 30
0.0
 10
149.9063527325815
 20
1.520459745880841
 30
0.0
 10
150.0
 20
1.396414518356323
 30
0.0
  0
SPLINE
  5
1D4
330
1F
100
AcDbEntity
  8
1
  6
Continuous
 62
   163
370
    70
100
AcDbSpline
210
0.0
220
0.0
230
1.0
 70
     8
 71
     5
 72
    20
 73
    14
 74
     0
 42
0.000000001
 43
0.0000000001
 40
0.0
 40
0.0
 40
0.0
 40
0.0
 40
0.0
 40
0.0
 40
0.1142857142857143
 40
0.2619047619047619
 40
0.3097619047619047
 40
0.3333333333333333
 40
0.4095238095238095
 40
0.5571428571428569
 40
0.7047619047619046
 40
0.852380952380952
 40
1.0
 40
1.0
 40
1.0
 40
1.0
 40
1.0
 40
1.0
 10
147.5347601789515
 20
1.462267466483696
 30
0.0
 10
147.3616539770684
 20
1.695999181973237
 30
0.0
 10
146.964975762813
 20
2.231602635267188
 30
0.0
 10
146.503687440201
 20
2.869647975456866
 30
0.0
 10
146.0144548853208
 20
3.556859158777747
 30
0.0
 10
145.4286298877953
 20
4.413383358642237
 30
0.0
 10
144.7586719429885
 20
5.317783959424852
 30
0.0
 10
144.0373189058241
 20
6.187924204540243
 30
0.0
 10
143.14005181512
 20
7.242064226850014
 30
0.0
 10
142.0511928491059
 20
8.54638200164915
 30
0.0
 10
141.0671782666469
 20
9.688466266245346
 30
0.0
 10
140.2993648734697
 20
10.52086386517336
 30
0.0
 10
139.8296657172586
 20
11.11041346077101
 30
0.0
 10
139.5948333740235
 20
11.40516662597657
 30
0.0
  0
SPLINE
  5
1D5
330
1F
100
AcDbEntity
  8
1
  6
Continuous
 62
   163
370
    70
100
AcDbSpline
210
0.0
220
0.0
230
1.0
 70
     8
 71
     5
 72
    12
 73
     6
 74
     0
 42
0.000000001
 43
0.0000000001
 40
0.0
 40
0.0
 40
0.0
 40
0.0
 40
0.0
 40
0.0
 40
1.0
 40
1.0
 40
1.0
 40
1.0
 40
1.0
 40
1.0
 10
148.0282440185547
 20
0.0
 30
0.0
 10
147.9767141929568
 20
0.298510071280342
 30
0.0
 10
147.9250930745284
 20
0.5975489979874217
 30
0.0
 10
147.6951786047512
 20
0.8625219927205808
 30
0.0
 10
147.6159231428764
 20
1.162650216687857
 30
0.0
 10
147.5364685058594
 20
1.463532686233521
 30
0.0
  0
SPLINE
  5
1D6
330
1F
100
AcDbEntity
  8
1
  6
Continuous
 62
   163
370
    70
100
AcDbSpline
210
0.0
220
0.0
230
1.0
 70
     8
 71
     5
 72
    46
 73
    40
 74
     0
 42
0.000000001
 43
0.0000000001
 40
0.0
 40
0.0
 40
0.0
 40
0.0
 40
0.0
 40
0.0
 40
0.0008779524568998
 40
0.0056627933470039
 40
0.0216108452950558
 40
0.0606060606060606
 40
0.0887147335423198
 40
0.1071055381400209
 40
0.1393939393939394
 40
0.1878787878787879
 40
0.2363636363636364
 40
0.2848484848484849
 40
0.3333333333333333
 40
0.3818181818181818
 40
0.4303030303030303
 40
0.4733593073593073
 40
0.4927857142857143
 40
0.4987665865393864
 40
0.4999999999999999
 40
0.5018471276871276
 40
0.510759296923256
 40
0.5272152861952861
 40
0.5696969696969697
 40
0.6181818181818182
 40
0.6666666666666667
 40
0.7151515151515151
 40
0.7636363636363638
 40
0.7934169278996869
 40
0.812225705329154
 40
0.8424242424242427
 40
0.8909090909090914
 40
0.9369408369408374
 40
0.9589271284271289
 40
0.9671294670476197
 40
0.9805508919480524
 40
0.9878787428571432
 40
1.0
 40
1.0
 40
1.0
 40
1.0
 40
1.0
 40
1.0
 10
149.0
 20
0.042826734483242
 30
0.0
 10
148.9988602158373
 20
0.0448171420928751
 30
0.0
 10
148.9915088429844
 20
0.057654860801688
 30
0.0
 10
148.963501214108
 20
0.1066955000660927
 30
0.0
 10
148.8862968728467
 20
0.2446489253442166
 30
0.0
 10
148.7707827180036
 20
0.4475181822941935
 30
0.0
 10
148.6207234128631
 20
0.6731523048608141
 30
0.0
 10
148.3678162132919
 20
0.9337763903304792
 30
0.0
 10
148.2459178159459
 20
1.358016168529517
 30
0.0
 10
148.0654940021607
 20
1.769811274048806
 30
0.0
 10
147.8258896595915
 20
2.231053716629322
 30
0.0
 10
147.4335344720397
 20
2.665892759996829
 30
0.0
 10
147.1752181635873
 20
3.257034084820833
 30
0.0
 10
146.7516084091787
 20
3.741922899391275
 30
0.0
 10
146.2732323838726
 20
4.12846319809953
 30
0.0
 10
146.2413742582876
 20
4.7839150119125
 30
0.0
 10
145.8160544546118
 20
4.9618752090461
 30
0.0
 10
145.6652912815593
 20
5.309056188593895
 30
0.0
 10
145.5485621595217
 20
5.446096953248555
 30
0.0
 10
145.5387408779263
 20
5.469759493223354
 30
0.0
 10
145.5605911647484
 20
5.459778115275159
 30
0.0
 10
145.7000125533446
 20
5.353706410452247
 30
0.0
 10
145.9925349807504
 20
5.133292858223957
 30
0.0
 10
146.2513179197429
 20
4.848193012690185
 30
0.0
 10
146.7729253204696
 20
4.583388219996685
 30
0.0
 10
147.1308622647546
 20
4.094912757217918
 30
0.0
 10
147.5728520333097
 20
3.703233733226107
 30
0.0
 10
147.9726970833154
 20
3.391105099104444
 30
0.0
 10
148.2168270876818
 20
2.992117456773642
 30
0.0
 10
148.5530144349738
 20
2.683252197817324
 30
0.0
 10
148.899474250793
 20
2.381074815973429
 30
0.0
 10
149.1266299006598
 20
2.011997152015691
 30
0.0
 10
149.3773986233319
 20
1.697035731057417
 30
0.0
 10
149.6251550097183
 20
1.430909856522045
 30
0.0
 10
149.7685984612216
 20
1.222694773717005
 30
0.0
 10
149.8367708863969
 20
1.072660153249831
 30
0.0
 10
149.8880627476991
 20
0.980183692830877
 30
0.0
 10
149.9451498419778
 20
0.9171086882871784
 30
0.0
 10
149.978930602959
 20
0.8797594671588218
 30
0.0
 10
150.0
 20
0.8564643859863281
 30
0.0
  0
SPLINE
  5
1D7
330
1F
100
AcDbEntity
  8
1
  6
Continuous
 62
   163
370
    70
100
AcDbSpline
210
0.0
220
0.0
230
1.0
 70
     8
 71
     5
 72
    28
 73
    22
 74
     0
 42
0.000000001
 43
0.0000000001
 40
0.0
 40
0.0
 40
0.0
 40
0.0
 40
0.0
 40
0.0
 40
0.0157023433333333
 40
0.0267781066333333
 40
0.0285783314443333
 40
0.0322333333333333
 40
0.1047619047619048
 40
0.1422333333333334
 40
0.2
 40
0.28
 40
0.36
 40
0.4400000000000001
 40
0.5200000000000001
 40
0.6000000000000003
 40
0.6800000000000004
 40
0.7600000000000001
 40
0.8400000000000002
 40
0.9200000000000002
 40
1.0
 40
1.0
 40
1.0
 40
1.0
 40
1.0
 40
1.0
 10
150.0
 20
19.02402114868164
 30
0.0
 10
149.9409549362372
 20
19.0563670588272
 30
0.0
 10
149.8402575143087
 20
19.11153085329746
 30
0.0
 10
149.7213552597586
 20
19.14934094825095
 30
0.0
 10
149.588737755151
 20
19.19440232372692
 30
0.0
 10
149.1463359820817
 20
19.3167862910856
 30
0.0
 10
148.611956168051
 20
19.45355785204816
 30
0.0
 10
147.8587378812609
 20
19.5319110082988
 30
0.0
 10
146.7547374140214
 20
19.50956141583058
 30
0.0
 10
145.3216815513789
 20
19.52034183398698
 30
0.0
 10
143.8541076557431
 20
19.52516634954403
 30
0.0
 10
142.2014746908804
 20
19.54579121198407
 30
0.0
 10
140.4511998786712
 20
19.57332659295179
 30
0.0
 10
138.7019636646031
 20
19.61983881783052
 30
0.0
 10
136.9523814357488
 20
19.66355696736734
 30
0.0
 10
135.2037973650002
 20
19.72680979830813
 30
0.0
 10
133.4549641981374
 20
19.78550037956958
 30
0.0
 10
131.7063803242361
 20
19.8587905143714
 30
0.0
 10
130.3073243867054
 20
19.91314858831436
 30
0.0
 10
129.2580065230273
 20
19.95605916474963
 30
0.0
 10
128.558410608464
 20
19.98535320880929
 30
0.0
 10
128.2086181640625
 20
20.0
 30
0.0
  0
SPLINE
  5
1D8
330
1F
100
AcDbEntity
  8
1
  6
Continuous
 62
   163
370
    70
100
AcDbSpline
210
0.0
220
0.0
230
1.0
 70
     8
 71
     5
 72
    34
 73
    28
 74
     0
 42
0.000000001
 43
0.0000000001
 40
0.0
 40
0.0
 40
0.0
 40
0.0
 40
0.0
 40
0.0
 40
0.0113617376775271
 40
0.0507936507936508
 40
0.1095238095238095
 40
0.1682539682539682
 40
0.226984126984127
 40
0.2857142857142856
 40
0.3242661904761904
 40
0.3322707703081231
 40
0.3333333333333333
 40
0.335158299057823
 40
0.3562036281179138
 40
0.4126984126984125
 40
0.4714285714285713
 40
0.5301587301587299
 40
0.5888888888888886
 40
0.6476190476190473
 40
0.7063492063492061
 40
0.7650793650793648
 40
0.7844603174603172
 40
0.8238095238095235
 40
0.8825396825396823
 40
0.9412698412698414
 40
1.0
 40
1.0
 40
1.0
 40
1.0
 40
1.0
 40
1.0
 10
150.0
 20
19.25604057312012
 30
0.0
 10
149.9819177531229
 20
19.26594740689955
 30
0.0
 10
149.9010794890306
 20
19.31023677264163
 30
0.0
 10
149.7232729954095
 20
19.39925608434189
 30
0.0
 10
149.4424516872605
 20
19.52031469692544
 30
0.0
 10
149.0469209687014
 20
19.64409631424135
 30
0.0
 10
148.5522477533344
 20
19.74006034967858
 30
0.0
 10
148.0480096486703
 20
19.78959192348076
 30
0.0
 10
147.6342366404724
 20
19.80920979558897
 30
0.0
 10
147.3270938557451
 20
19.81737209814721
 30
0.0
 10
147.1259751041341
 20
19.82147239899231
 30
0.0
 10
146.9949847714099
 20
19.82391571788519
 30
0.0
 10
146.8307105427808
 20
19.82682731646902
 30
0.0
 10
146.57244229577
 20
19.83089779364145
 30
0.0
 10
146.2076996439855
 20
19.83610972962602
 30
0.0
 10
145.7382557991399
 20
19.84308931996325
 30
0.0
 10
145.1996443612394
 20
19.85253881331861
 30
0.0
 10
144.657123916818
 20
19.86382809951372
 30
0.0
 10
144.1146485115282
 20
19.87705885055791
 30
0.0
 10
143.6448548152475
 20
19.89026891671505
 30
0.0
 10
143.2108610621127
 20
19.90385130388413
 30
0.0
 10
142.7768790758089
 20
19.91874473902776
 30
0.0
 10
142.3429211994459
 20
19.93499753601602
 30
0.0
 10
141.9089944358678
 20
19.95245892982619
 30
0.0
 10
141.5109174161641
 20
19.96997495175286
 30
0.0
 10
141.1855305054688
 20
19.98486749438415
 30
0.0
 10
140.9686123046112
 20
19.99495583127742
 30
0.0
 10
140.8601531982422
 20
20.0
 30
0.0
  0
SPLINE
  5
1D9
330
1F
100
AcDbEntity
  8
1
  6
Continuous
 62
   163
370
    70
100
AcDbSpline
210
0.0
220
0.0
230
1.0
 70
     8
 71
     5
 72
    12
 73
     6
 74
     0
 42
0.000000001
 43
0.0000000001
 40
0.0
 40
0.0
 40
0.0
 40
0.0
 40
0.0
 40
0.0
 40
1.0
 40
1.0
 40
1.0
 40
1.0
 40
1.0
 40
1.0
 10
149.9782104492188
 20
19.5
 30
0.0
 10
149.6597751111536
 20
19.6201981633847
 30
0.0
 10
149.3430011418347
 20
19.73976921837952
 30
0.0
 10
149.0348298137885
 20
19.91166851996051
 30
0.0
 10
148.7081216646519
 20
19.95584424989283
 30
0.0
 10
148.3815612792969
 20
20.0
 30
0.0
  0
ENDSEC
  0
SECTION
  2
OBJECTS
  0
DICTIONARY
  5
C
330
0
100
AcDbDictionary
281
     1
  3
ACAD_DETAILVIEWSTYLE
350
236
  3
ACAD_GROUP
350
D
  3
ACAD_IMAGE_DICT
350
240
  3
ACAD_IMAGE_VARS
350
5E
  3
ACAD_LAYOUT
350
1A
  3
ACAD_MATERIAL
350
43
  3
ACAD_MLEADERSTYLE
350
5B
  3
ACAD_MLINESTYLE
350
17
  3
ACAD_PLOTSETTINGS
350
19
  3
ACAD_PLOTSTYLENAME
350
E
  3
ACAD_SCALELIST
350
47
  3
ACAD_SECTIONVIEWSTYLE
350
237
  3
ACAD_TABLESTYLE
350
59
  3
ACAD_VISUALSTYLE
350
2A
  3
ACDB_RECOMPOSE_DATA
350
247
  3
AcDbVariableDictionary
350
1F3
  3
HOST_DOC_SETTINGS
350
23E
  3
MCS_STREAM_DICT
350
23A
  0
SUN
  5
23D
330
29
100
AcDbSun
 90
        1
290
     0
 63
     7
421
 16777215
 40
1.0
291
     1
 91
  2455826
 92
 54000000
292
     0
 70
     2
 71
   256
280
     1
  0
DICTIONARY
  5
236
102
{ACAD_REACTORS
330
C
102
}
330
C
100
AcDbDictionary
281
     1
  0
DICTIONARY
  5
D
102
{ACAD_REACTORS
330
C
102
}
330
C
100
AcDbDictionary
281
     1
  0
DICTIONARY
  5
240
102
{ACAD_REACTORS
330
C
102
}
330
C
100
AcDbDictionary
281
     1
  0
RASTERVARIABLES
  5
5E
102
{ACAD_REACTORS
330
C
102
}
330
C
100
AcDbRasterVariables
 90
        0
 70
     0
 71
     1
 72
     1
  0
DICTIONARY
  5
1A
102
{ACAD_REACTORS
330
C
102
}
330
C
100
AcDbDictionary
281
     1
  3
Layout1
350
1E
  3
Layout2
350
26
  3
Model
350
22
  0
DICTIONARY
  5
43
102
{ACAD_REACTORS
330
C
102
}
330
C
100
AcDbDictionary
281
     1
  3
ByBlock
350
45
  3
ByLayer
350
44
  3
Global
350
46
  0
DICTIONARY
  5
5B
102
{ACAD_REACTORS
330
C
102
}
330
C
100
AcDbDictionary
281
     1
  3
Standard
350
5C
  0
DICTIONARY
  5
17
102
{ACAD_REACTORS
330
C
102
}
330
C
100
AcDbDictionary
281
     1
  3
Standard
350
18
  0
DICTIONARY
  5
19
102
{ACAD_REACTORS
330
C
102
}
330
C
100
AcDbDictionary
281
     1
  0
ACDBDICTIONARYWDFLT
  5
E
102
{ACAD_REACTORS
330
C
102
}
330
C
100
AcDbDictionary
281
     1
  3
Normal
350
F
100
AcDbDictionaryWithDefault
340
F
  0
DICTIONARY
  5
47
102
{ACAD_REACTORS
330
C
102
}
330
C
100
AcDbDictionary
281
     1
  3
A0
350
48
  3
A1
350
49
  3
A2
350
4A
  3
A3
350
4B
  3
A4
350
4C
  3
A5
350
4D
  3
A6
350
4E
  3
A7
350
4F
  3
A8
350
50
  3
A9
350
51
  3
B1
350
52
  3
B2
350
53
  3
B3
350
54
  3
B4
350
55
  3
B5
350
56
  3
B6
350
57
  3
B7
350
58
  0
DICTIONARY
  5
237
102
{ACAD_REACTORS
330
C
102
}
330
C
100
AcDbDictionary
281
     1
  0
DICTIONARY
  5
59
102
{ACAD_REACTORS
330
C
102
}
330
C
100
AcDbDictionary
281
     1
  3
Standard
350
5A
  0
DICTIONARY
  5
2A
102
{ACAD_REACTORS
330
C
102
}
330
C
100
AcDbDictionary
281
     1
  3
2dWireframe
350
2F
  3
Basic
350
32
  3
Brighten
350
36
  3
ColorChange
350
3A
  3
Conceptual
350
34
  3
Dim
350
35
  3
EdgeColorOff
350
3D
  3
Facepattern
350
39
  3
Flat
350
2B
  3
FlatWithEdges
350
2C
  3
Gouraud
350
2D
  3
GouraudWithEdges
350
2E
  3
Hidden
350
31
  3
JitterOff
350
3B
  3
Linepattern
350
38
  3
OverhangOff
350
3C
  3
Realistic
350
33
  3
Shaded
350
42
  3
Shaded with edges
350
41
  3
Shades of Gray
350
3E
  3
Sketchy
350
3F
  3
Thicken
350
37
  3
Wireframe
350
30
  3
X-Ray
350
40
  0
XRECORD
  5
247
102
{ACAD_REACTORS
330
C
102
}
330
C
100
AcDbXrecord
280
     1
 90
        1
330
5A
  0
DICTIONARY
  5
1F3
102
{ACAD_REACTORS
330
C
102
}
330
C
100
AcDbDictionary
281
     1
  3
CANNOSCALE
350
1F4
  3
CMLEADERSTYLE
350
235
  3
CTABLESTYLE
350
234
  3
MSLTSCALE
350
1F5
  3
XCLIPFRAME
350
1F6
  0
DICTIONARY
  5
23E
102
{ACAD_REACTORS
330
C
102
}
330
C
100
AcDbDictionary
281
     1
  3
NCDocParameters
350
23F
  0
DICTIONARY
  5
23A
102
{ACAD_REACTORS
330
C
102
}
330
C
100
AcDbDictionary
281
     1
  3
MC_VERSION_DATA
350
243
  3
MCS_DOCUMENT_ID
350
23B
  3
MCS_PARAMS_DATA
350
241
  0
LAYOUT
  5
1E
102
{ACAD_REACTORS
330
1A
102
}
330
1A
100
AcDbPlotSettings
  1

  2
none_device
  4

  6

 40
0.0
 41
0.0
 42
0.0
 43
0.0
 44
0.0
 45
0.0
 46
0.0
 47
0.0
 48
0.0
 49
0.0
140
0.0
141
0.0
142
1.0
143
1.0
 70
   688
 72
     0
 73
     0
 74
     5
  7

 75
    16
 76
     0
 77
     2
 78
   300
147
1.0
148
0.0
149
0.0
100
AcDbLayout
  1
Layout1
 70
     0
 71
     1
 10
-0.5
 20
-0.5
 11
5.0
 21
5.0
 12
0.0
 22
0.0
 32
0.0
 14
-0.5
 24
-0.5
 34
-0.5
 15
5.0
 25
5.0
 35
5.0
146
0.0
 13
0.0
 23
0.0
 33
0.0
 16
1.0
 26
0.0
 36
0.0
 17
0.0
 27
1.0
 37
0.0
 76
     0
330
1B
  0
LAYOUT
  5
26
102
{ACAD_REACTORS
330
1A
102
}
330
1A
100
AcDbPlotSettings
  1

  2
none_device
  4

  6

 40
0.0
 41
0.0
 42
0.0
 43
0.0
 44
0.0
 45
0.0
 46
0.0
 47
0.0
 48
0.0
 49
0.0
140
0.0
141
0.0
142
1.0
143
1.0
 70
   688
 72
     0
 73
     0
 74
     5
  7

 75
    16
 76
     0
 77
     2
 78
   300
147
1.0
148
0.0
149
0.0
100
AcDbLayout
  1
Layout2
 70
     1
 71
     2
 10
0.0
 20
0.0
 11
0.0
 21
0.0
 12
0.0
 22
0.0
 32
0.0
 14
0.0
 24
0.0
 34
0.0
 15
0.0
 25
0.0
 35
0.0
146
0.0
 13
0.0
 23
0.0
 33
0.0
 16
1.0
 26
0.0
 36
0.0
 17
0.0
 27
1.0
 37
0.0
 76
     0
330
23
  0
LAYOUT
  5
22
102
{ACAD_REACTORS
330
1A
102
}
330
1A
100
AcDbPlotSettings
  1

  2
none_device
  4
Letter_(8.50_x_11.00_Inches)
  6

 40
6.35
 41
6.35
 42
6.350005
 43
6.350005
 44
215.9
 45
279.4
 46
0.0
 47
0.0
 48
0.0
 49
0.0
140
0.0
141
0.0
142
1.0
143
1.0
 70
  1712
 72
     0
 73
     0
 74
     0
  7

 75
     0
 76
     0
 77
     2
 78
   300
147
1.0
148
0.0
149
0.0
100
AcDbLayout
  1
Model
 70
     1
 71
     0
 10
-0.5
 20
-0.5
 11
5.0
 21
5.0
 12
0.0
 22
0.0
 32
0.0
 14
-0.5
 24
-0.5
 34
-0.5
 15
5.0
 25
5.0
 35
5.0
146
0.0
 13
0.0
 23
0.0
 33
0.0
 16
1.0
 26
0.0
 36
0.0
 17
0.0
 27
1.0
 37
0.0
 76
     0
330
1F
331
29
  0
MATERIAL
  5
45
102
{ACAD_REACTORS
330
43
102
}
330
43
100
AcDbMaterial
  1
ByBlock
 72
     1
 94
      127
  0
MATERIAL
  5
44
102
{ACAD_REACTORS
330
43
102
}
330
43
100
AcDbMaterial
  1
ByLayer
 72
     1
 94
      127
  0
MATERIAL
  5
46
102
{ACAD_REACTORS
330
43
102
}
330
43
100
AcDbMaterial
  1
Global
 72
     1
 94
      127
  0
MLEADERSTYLE
  5
5C
102
{ACAD_REACTORS
330
5B
102
}
330
5B
100
AcDbMLeaderStyle
179
     2
170
     2
171
     1
172
     0
 90
        2
 40
0.0
 41
0.0
173
     1
 91
-1056964608
340
14
 92
       -2
290
     1
 42
0.09
291
     1
 43
0.36
  3
Standard
341
0
 44
0.18
300

342
11
174
     1
178
     6
175
     1
176
     0
 93
-1056964608
 45
0.18
292
     0
297
     0
 46
0.18
343
0
 94
-1056964608
 47
1.0
 49
1.0
140
1.0
293
     1
141
0.0
294
     1
177
     0
142
1.0
295
     0
296
     0
143
0.125
271
     0
272
     9
273
     9
298
     0
1001
ACAD_MLEADERVER
1070
     2
  0
MLINESTYLE
  5
18
102
{ACAD_REACTORS
330
17
102
}
330
17
100
AcDbMlineStyle
  2
Standard
 70
     0
  3

 62
   256
 51
90.0
 52
90.0
 71
     2
 49
0.5
 62
   256
  6
BYLAYER
 49
-0.5
 62
   256
  6
BYLAYER
  0
ACDBPLACEHOLDER
  5
F
102
{ACAD_REACTORS
330
E
102
}
330
E
  0
SCALE
  5
48
102
{ACAD_REACTORS
330
47
102
}
330
47
100
AcDbScale
 70
     0
300
1:1
140
1.0
141
1.0
290
     1
  0
SCALE
  5
49
102
{ACAD_REACTORS
330
47
102
}
330
47
100
AcDbScale
 70
     0
300
1/128" = 1'-0"
140
0.007812
141
12.0
290
     0
  0
SCALE
  5
4A
102
{ACAD_REACTORS
330
47
102
}
330
47
100
AcDbScale
 70
     0
300
1/64" = 1'-0"
140
0.015625
141
12.0
290
     0
  0
SCALE
  5
4B
102
{ACAD_REACTORS
330
47
102
}
330
47
100
AcDbScale
 70
     0
300
1/32" = 1'-0"
140
0.03125
141
12.0
290
     0
  0
SCALE
  5
4C
102
{ACAD_REACTORS
330
47
102
}
330
47
100
AcDbScale
 70
     0
300
1/16" = 1'-0"
140
0.0625
141
12.0
290
     0
  0
SCALE
  5
4D
102
{ACAD_REACTORS
330
47
102
}
330
47
100
AcDbScale
 70
     0
300
3/32" = 1'-0"
140
0.09375
141
12.0
290
     0
  0
SCALE
  5
4E
102
{ACAD_REACTORS
330
47
102
}
330
47
100
AcDbScale
 70
     0
300
1/8" = 1'-0"
140
0.125
141
12.0
290
     0
  0
SCALE
  5
4F
102
{ACAD_REACTORS
330
47
102
}
330
47
100
AcDbScale
 70
     0
300
3/16" = 1'-0"
140
0.1875
141
12.0
290
     0
  0
SCALE
  5
50
102
{ACAD_REACTORS
330
47
102
}
330
47
100
AcDbScale
 70
     0
300
1/4" = 1'-0"
140
0.25
141
12.0
290
     0
  0
SCALE
  5
51
102
{ACAD_REACTORS
330
47
102
}
330
47
100
AcDbScale
 70
     0
300
3/8" = 1'-0"
140
0.375
141
12.0
290
     0
  0
SCALE
  5
52
102
{ACAD_REACTORS
330
47
102
}
330
47
100
AcDbScale
 70
     0
300
1/2" = 1'-0"
140
0.5
141
12.0
290
     0
  0
SCALE
  5
53
102
{ACAD_REACTORS
330
47
102
}
330
47
100
AcDbScale
 70
     0
300
3/4" = 1'-0"
140
0.75
141
12.0
290
     0
  0
SCALE
  5
54
102
{ACAD_REACTORS
330
47
102
}
330
47
100
AcDbScale
 70
     0
300
1" = 1'-0"
140
1.0
141
12.0
290
     0
  0
SCALE
  5
55
102
{ACAD_REACTORS
330
47
102
}
330
47
100
AcDbScale
 70
     0
300
1-1/2" = 1'-0"
140
1.5
141
12.0
290
     0
  0
SCALE
  5
56
102
{ACAD_REACTORS
330
47
102
}
330
47
100
AcDbScale
 70
     0
300
3" = 1'-0"
140
3.0
141
12.0
290
     0
  0
SCALE
  5
57
102
{ACAD_REACTORS
330
47
102
}
330
47
100
AcDbScale
 70
     0
300
6" = 1'-0"
140
6.0
141
12.0
290
     0
  0
SCALE
  5
58
102
{ACAD_REACTORS
330
47
102
}
330
47
100
AcDbScale
 70
     0
300
1'-0" = 1'-0"
140
12.0
141
12.0
290
     0
  0
TABLESTYLE
  5
5A
102
{ACAD_REACTORS
330
59
102
}
102
{ACAD_XDICTIONARY
360
245
102
}
330
59
100
AcDbTableStyle
  3
Standard
 70
     0
 71
     0
 40
0.06
 41
0.06
280
     0
281
     0
  7
Standard
140
0.18
170
     2
 62
     0
 63
   257
283
     0
 90
        4
 91
        0
  1

274
    -2
284
     1
 64
     0
275
    -2
285
     1
 65
     0
276
    -2
286
     1
 66
     0
277
    -2
287
     1
 67
     0
278
    -2
288
     1
 68
     0
279
    -2
289
     1
 69
     0
  7
Standard
140
0.25
170
     5
 62
     0
 63
   257
283
     0
 90
        4
 91
        0
  1

274
    -2
284
     1
 64
     0
275
    -2
285
     1
 65
     0
276
    -2
286
     1
 66
     0
277
    -2
287
     1
 67
     0
278
    -2
288
     1
 68
     0
279
    -2
289
     1
 69
     0
  7
Standard
140
0.18
170
     5
 62
     0
 63
   257
283
     0
 90
        4
 91
        0
  1

274
    -2
284
     1
 64
     0
275
    -2
285
     1
 65
     0
276
    -2
286
     1
 66
     0
277
    -2
287
     1
 67
     0
278
    -2
288
     1
 68
     0
279
    -2
289
     1
 69
     0
  0
VISUALSTYLE
  5
2F
102
{ACAD_REACTORS
330
2A
102
}
330
2A
100
AcDbVisualStyle
  2
2dWireframe
 70
     4
177
     3
291
     0
 70
    58
 90
        0
176
     1
 90
        2
176
     1
 90
        0
176
     1
 90
        0
176
     1
 40
0.6
176
     1
 40
30.0
176
     1
 62
     7
420
 16777215
176
     1
 90
        1
176
     1
 90
        4
176
     1
 62
     7
176
     1
 62
   257
176
     1
 90
        1
176
     1
 90
        1
176
     1
 40
1.0
176
     1
 90
        0
176
     1
 62
   257
176
     1
 40
1.0
176
     1
 90
        1
176
     1
 90
        6
176
     1
 90
        2
176
     1
 62
     7
176
     1
 90
        5
176
     1
 90
        0
176
     1
 90
        0
176
     1
290
     0
176
     1
 90
        1
176
     1
 40
0.0
176
     1
 90
        0
176
     1
290
     1
176
     1
290
     1
176
     1
290
     0
176
     1
290
     0
176
     1
290
     0
176
     1
290
     0
176
     1
290
     0
176
     1
290
     0
176
     1
290
     0
176
     1
 90
       50
176
     1
 40
0.0
176
     1
 40
1.0
176
     1
 90
        0
176
     1
 62
    18
420
        0
176
     1
 90
       50
176
     1
 90
        3
176
     1
 62
     5
420
      255
176
     1
290
     0
176
     1
 90
       50
176
     1
 90
       50
176
     1
 90
       50
176
     1
290
     0
176
     1
 90
       50
176
     1
 62
   256
176
     0
 40
1.0
176
     0
 90
        2
176
     1
  1
strokes_ogs.tif
176
     1
290
     0
176
     1
 40
1.0
176
     1
 40
1.0
176
     1
  0
VISUALSTYLE
  5
32
102
{ACAD_REACTORS
330
2A
102
}
330
2A
100
AcDbVisualStyle
  2
Basic
 70
     7
177
     3
291
     1
 70
    58
 90
        1
176
     1
 90
        0
176
     1
 90
        1
176
     1
 90
        0
176
     1
 40
0.6
176
     1
 40
30.0
176
     1
 62
     7
420
 16777215
176
     1
 90
        0
176
     1
 90
        4
176
     1
 62
     7
176
     1
 62
   257
176
     1
 90
        1
176
     1
 90
        1
176
     1
 40
1.0
176
     1
 90
        8
176
     1
 62
     7
176
     1
 40
1.0
176
     1
 90
        1
176
     1
 90
        6
176
     1
 90
        2
176
     1
 62
     7
176
     1
 90
        5
176
     1
 90
        0
176
     1
 90
        0
176
     1
290
     0
176
     1
 90
        1
176
     1
 40
0.0
176
     1
 90
        0
176
     1
290
     0
176
     1
290
     1
176
     1
290
     1
176
     1
290
     0
176
     1
290
     0
176
     1
290
     0
176
     1
290
     0
176
     1
290
     0
176
     1
290
     0
176
     1
 90
       50
176
     1
 40
0.0
176
     1
 40
1.0
176
     1
 90
        0
176
     1
 62
    18
420
        0
176
     1
 90
       50
176
     1
 90
        3
176
     1
 62
     5
420
      255
176
     1
290
     0
176
     1
 90
       50
176
     1
 90
       50
176
     1
 90
       50
176
     1
290
     0
176
     1
 90
       50
176
     1
 62
   256
176
     0
 40
1.0
176
     0
 90
        2
176
     1
  1
strokes_ogs.tif
176
     1
290
     0
176
     1
 40
1.0
176
     1
 40
1.0
176
     1
  0
VISUALSTYLE
  5
36
102
{ACAD_REACTORS
330
2A
102
}
330
2A
100
AcDbVisualStyle
  2
Brighten
 70
    12
177
     3
291
     1
 70
    58
 90
        2
176
     1
 90
        2
176
     1
 90
        0
176
     1
 90
        0
176
     1
 40
0.6
176
     1
 40
30.0
176
     1
 62
     7
420
 16777215
176
     1
 90
        1
176
     1
 90
        4
176
     1
 62
     7
176
     1
 62
   257
176
     1
 90
        1
176
     1
 90
        1
176
     1
 40
1.0
176
     1
 90
        8
176
     1
 62
     7
176
     1
 40
1.0
176
     1
 90
        1
176
     1
 90
        6
176
     1
 90
        2
176
     1
 62
     7
176
     1
 90
        5
176
     1
 90
        0
176
     1
 90
        0
176
     1
290
     0
176
     1
 90
        1
176
     1
 40
50.0
176
     1
 90
        0
176
     1
290
     0
176
     1
290
     1
176
     1
290
     1
176
     1
290
     0
176
     1
290
     0
176
     1
290
     0
176
     1
290
     0
176
     1
290
     0
176
     1
290
     0
176
     1
 90
       50
176
     1
 40
0.0
176
     1
 40
1.0
176
     1
 90
        0
176
     1
 62
    18
420
        0
176
     1
 90
       50
176
     1
 90
        3
176
     1
 62
     5
420
      255
176
     1
290
     0
176
     1
 90
       50
176
     1
 90
       50
176
     1
 90
       50
176
     1
290
     0
176
     1
 90
       50
176
     1
 62
   256
176
     0
 40
1.0
176
     0
 90
        2
176
     1
  1
strokes_ogs.tif
176
     1
290
     0
176
     1
 40
1.0
176
     1
 40
1.0
176
     1
  0
VISUALSTYLE
  5
3A
102
{ACAD_REACTORS
330
2A
102
}
330
2A
100
AcDbVisualStyle
  2
ColorChange
 70
    16
177
     3
291
     1
 70
    58
 90
        2
176
     1
 90
        2
176
     1
 90
        3
176
     1
 90
        0
176
     1
 40
0.6
176
     1
 40
30.0
176
     1
 62
     8
420
  8421504
176
     1
 90
        1
176
     1
 90
        4
176
     1
 62
     7
176
     1
 62
   257
176
     1
 90
        1
176
     1
 90
        1
176
     1
 40
1.0
176
     1
 90
        8
176
     1
 62
     8
420
  8421504
176
     1
 40
1.0
176
     1
 90
        1
176
     1
 90
        6
176
     1
 90
        2
176
     1
 62
     7
176
     1
 90
        5
176
     1
 90
        0
176
     1
 90
        0
176
     1
290
     0
176
     1
 90
        1
176
     1
 40
0.0
176
     1
 90
        0
176
     1
290
     0
176
     1
290
     1
176
     1
290
     1
176
     1
290
     0
176
     1
290
     0
176
     1
290
     0
176
     1
290
     0
176
     1
290
     0
176
     1
290
     0
176
     1
 90
       50
176
     1
 40
0.0
176
     1
 40
1.0
176
     1
 90
        0
176
     1
 62
    18
420
        0
176
     1
 90
       50
176
     1
 90
        3
176
     1
 62
     5
420
      255
176
     1
290
     0
176
     1
 90
       50
176
     1
 90
       50
176
     1
 90
       50
176
     1
290
     0
176
     1
 90
       50
176
     1
 62
   256
176
     0
 40
1.0
176
     0
 90
        2
176
     1
  1
strokes_ogs.tif
176
     1
290
     0
176
     1
 40
1.0
176
     1
 40
1.0
176
     1
  0
VISUALSTYLE
  5
34
102
{ACAD_REACTORS
330
2A
102
}
330
2A
100
AcDbVisualStyle
  2
Conceptual
 70
     9
177
     3
291
     0
 70
    58
 90
        3
176
     1
 90
        2
176
     1
 90
        0
176
     1
 90
        0
176
     1
 40
0.6
176
     1
 40
30.0
176
     1
 62
     7
420
 16777215
176
     1
 90
        2
176
     1
 90
        2
176
     1
 62
     7
176
     1
 62
   257
176
     1
 90
        1
176
     1
 90
        1
176
     1
 40
179.0
176
     1
 90
        8
176
     1
 62
     7
176
     1
 40
1.0
176
     1
 90
        1
176
     1
 90
        6
176
     1
 90
        2
176
     1
 62
     7
176
     1
 90
        3
176
     1
 90
        0
176
     1
 90
        0
176
     1
290
     0
176
     1
 90
        1
176
     1
 40
0.0
176
     1
 90
        0
176
     1
290
     0
176
     1
290
     1
176
     1
290
     1
176
     1
290
     0
176
     1
290
     0
176
     1
290
     0
176
     1
290
     0
176
     1
290
     0
176
     1
290
     0
176
     1
 90
       50
176
     1
 40
0.0
176
     1
 40
1.0
176
     1
 90
        0
176
     1
 62
    18
420
        0
176
     1
 90
       50
176
     1
 90
        3
176
     1
 62
     5
420
      255
176
     1
290
     0
176
     1
 90
       50
176
     1
 90
       50
176
     1
 90
       50
176
     1
290
     0
176
     1
 90
       50
176
     1
 62
   256
176
     0
 40
1.0
176
     0
 90
        2
176
     1
  1
strokes_ogs.tif
176
     1
290
     0
176
     1
 40
1.0
176
     1
 40
1.0
176
     1
  0
VISUALSTYLE
  5
35
102
{ACAD_REACTORS
330
2A
102
}
330
2A
100
AcDbVisualStyle
  2
Dim
 70
    11
177
     3
291
     1
 70
    58
 90
        2
176
     1
 90
        2
176
     1
 90
        0
176
     1
 90
        0
176
     1
 40
0.6
176
     1
 40
30.0
176
     1
 62
     7
420
 16777215
176
     1
 90
        1
176
     1
 90
        4
176
     1
 62
     7
176
     1
 62
   257
176
     1
 90
        1
176
     1
 90
        1
176
     1
 40
1.0
176
     1
 90
        8
176
     1
 62
     7
176
     1
 40
1.0
176
     1
 90
        1
176
     1
 90
        6
176
     1
 90
        2
176
     1
 62
     7
176
     1
 90
        5
176
     1
 90
        0
176
     1
 90
        0
176
     1
290
     0
176
     1
 90
        1
176
     1
 40
-50.0
176
     1
 90
        0
176
     1
290
     0
176
     1
290
     1
176
     1
290
     1
176
     1
290
     0
176
     1
290
     0
176
     1
290
     0
176
     1
290
     0
176
     1
290
     0
176
     1
290
     0
176
     1
 90
       50
176
     1
 40
0.0
176
     1
 40
1.0
176
     1
 90
        0
176
     1
 62
    18
420
        0
176
     1
 90
       50
176
     1
 90
        3
176
     1
 62
     5
420
      255
176
     1
290
     0
176
     1
 90
       50
176
     1
 90
       50
176
     1
 90
       50
176
     1
290
     0
176
     1
 90
       50
176
     1
 62
   256
176
     0
 40
1.0
176
     0
 90
        2
176
     1
  1
strokes_ogs.tif
176
     1
290
     0
176
     1
 40
1.0
176
     1
 40
1.0
176
     1
  0
VISUALSTYLE
  5
3D
102
{ACAD_REACTORS
330
2A
102
}
330
2A
100
AcDbVisualStyle
  2
EdgeColorOff
 70
    22
177
     3
291
     1
 70
    58
 90
        2
176
     0
 90
        2
176
     0
 90
        0
176
     0
 90
        0
176
     0
 40
0.6
176
     0
 40
30.0
176
     0
 62
     7
420
 16777215
176
     0
 90
        1
176
     0
 90
        4
176
     0
 62
     7
176
     0
 62
   257
176
     0
 90
        1
176
     0
 90
        1
176
     0
 40
1.0
176
     0
 90
        8
176
     2
 62
     7
176
     0
 40
1.0
176
     0
 90
        1
176
     0
 90
        6
176
     0
 90
        2
176
     0
 62
     7
176
     0
 90
        5
176
     0
 90
        0
176
     0
 90
        0
176
     0
290
     0
176
     0
 90
        1
176
     0
 40
0.0
176
     0
 90
        0
176
     0
290
     0
176
     0
290
     1
176
     0
290
     1
176
     0
290
     0
176
     0
290
     0
176
     0
290
     0
176
     0
290
     0
176
     0
290
     0
176
     0
290
     0
176
     0
 90
       50
176
     0
 40
0.0
176
     0
 40
1.0
176
     0
 90
        0
176
     0
 62
    18
420
        0
176
     0
 90
       50
176
     0
 90
        3
176
     0
 62
     5
420
      255
176
     0
290
     0
176
     0
 90
       50
176
     0
 90
       50
176
     0
 90
       50
176
     0
290
     0
176
     0
 90
       50
176
     0
 62
   256
176
     0
 40
1.0
176
     0
 90
        2
176
     0
  1
strokes_ogs.tif
176
     0
290
     0
176
     0
 40
1.0
176
     0
 40
1.0
176
     0
  0
VISUALSTYLE
  5
39
102
{ACAD_REACTORS
330
2A
102
}
330
2A
100
AcDbVisualStyle
  2
Facepattern
 70
    15
177
     3
291
     1
 70
    58
 90
        2
176
     1
 90
        2
176
     1
 90
        0
176
     1
 90
        0
176
     1
 40
0.6
176
     1
 40
30.0
176
     1
 62
     7
420
 16777215
176
     1
 90
        1
176
     1
 90
        4
176
     1
 62
     7
176
     1
 62
   257
176
     1
 90
        1
176
     1
 90
        1
176
     1
 40
1.0
176
     1
 90
        8
176
     1
 62
     7
176
     1
 40
1.0
176
     1
 90
        1
176
     1
 90
        6
176
     1
 90
        2
176
     1
 62
     7
176
     1
 90
        5
176
     1
 90
        0
176
     1
 90
        0
176
     1
290
     0
176
     1
 90
        1
176
     1
 40
0.0
176
     1
 90
        0
176
     1
290
     0
176
     1
290
     1
176
     1
290
     1
176
     1
290
     0
176
     1
290
     0
176
     1
290
     0
176
     1
290
     0
176
     1
290
     0
176
     1
290
     0
176
     1
 90
       50
176
     1
 40
0.0
176
     1
 40
1.0
176
     1
 90
        0
176
     1
 62
    18
420
        0
176
     1
 90
       50
176
     1
 90
        3
176
     1
 62
     5
420
      255
176
     1
290
     0
176
     1
 90
       50
176
     1
 90
       50
176
     1
 90
       50
176
     1
290
     0
176
     1
 90
       50
176
     1
 62
   256
176
     0
 40
1.0
176
     0
 90
        2
176
     1
  1
strokes_ogs.tif
176
     1
290
     0
176
     1
 40
1.0
176
     1
 40
1.0
176
     1
  0
VISUALSTYLE
  5
2B
102
{ACAD_REACTORS
330
2A
102
}
330
2A
100
AcDbVisualStyle
  2
Flat
 70
     0
177
     3
291
     1
 70
    58
 90
        2
176
     1
 90
        1
176
     1
 90
        1
176
     1
 90
        2
176
     1
 40
0.6
176
     1
 40
30.0
176
     1
 62
     7
420
 16777215
176
     1
 90
        0
176
     1
 90
        0
176
     1
 62
     7
176
     1
 62
   257
176
     1
 90
        1
176
     1
 90
        1
176
     1
 40
1.0
176
     1
 90
        8
176
     1
 62
     7
176
     1
 40
1.0
176
     1
 90
        1
176
     1
 90
        6
176
     1
 90
        2
176
     1
 62
     7
176
     1
 90
        5
176
     1
 90
        0
176
     1
 90
        0
176
     1
290
     0
176
     1
 90
       13
176
     1
 40
0.0
176
     1
 90
        0
176
     1
290
     0
176
     1
290
     1
176
     1
290
     1
176
     1
290
     0
176
     1
290
     0
176
     1
290
     0
176
     1
290
     0
176
     1
290
     0
176
     1
290
     0
176
     1
 90
       50
176
     1
 40
0.0
176
     1
 40
1.0
176
     1
 90
        0
176
     1
 62
    18
420
        0
176
     1
 90
       50
176
     1
 90
        3
176
     1
 62
     5
420
      255
176
     1
290
     0
176
     1
 90
       50
176
     1
 90
       50
176
     1
 90
       50
176
     1
290
     0
176
     1
 90
       50
176
     1
 62
   256
176
     0
 40
1.0
176
     0
 90
        2
176
     1
  1
strokes_ogs.tif
176
     1
290
     0
176
     1
 40
1.0
176
     1
 40
1.0
176
     1
  0
VISUALSTYLE
  5
2C
102
{ACAD_REACTORS
330
2A
102
}
330
2A
100
AcDbVisualStyle
  2
FlatWithEdges
 70
     1
177
     3
291
     1
 70
    58
 90
        2
176
     1
 90
        1
176
     1
 90
        1
176
     1
 90
        2
176
     1
 40
0.6
176
     1
 40
30.0
176
     1
 62
     7
420
 16777215
176
     1
 90
        1
176
     1
 90
        0
176
     1
 62
     7
176
     1
 62
   257
176
     1
 90
        1
176
     1
 90
        1
176
     1
 40
1.0
176
     1
 90
        0
176
     1
 62
   257
176
     1
 40
1.0
176
     1
 90
        1
176
     1
 90
        6
176
     1
 90
        2
176
     1
 62
     7
176
     1
 90
        5
176
     1
 90
        0
176
     1
 90
        0
176
     1
290
     0
176
     1
 90
       13
176
     1
 40
0.0
176
     1
 90
        0
176
     1
290
     0
176
     1
290
     1
176
     1
290
     1
176
     1
290
     0
176
     1
290
     0
176
     1
290
     0
176
     1
290
     0
176
     1
290
     0
176
     1
290
     0
176
     1
 90
       50
176
     1
 40
0.0
176
     1
 40
1.0
176
     1
 90
        0
176
     1
 62
    18
420
        0
176
     1
 90
       50
176
     1
 90
        3
176
     1
 62
     5
420
      255
176
     1
290
     0
176
     1
 90
       50
176
     1
 90
       50
176
     1
 90
       50
176
     1
290
     0
176
     1
 90
       50
176
     1
 62
   256
176
     0
 40
1.0
176
     0
 90
        2
176
     1
  1
strokes_ogs.tif
176
     1
290
     0
176
     1
 40
1.0
176
     1
 40
1.0
176
     1
  0
VISUALSTYLE
  5
2D
102
{ACAD_REACTORS
330
2A
102
}
330
2A
100
AcDbVisualStyle
  2
Gouraud
 70
     2
177
     3
291
     1
 70
    58
 90
        2
176
     1
 90
        2
176
     1
 90
        1
176
     1
 90
        2
176
     1
 40
0.6
176
     1
 40
30.0
176
     1
 62
     7
420
 16777215
176
     1
 90
        0
176
     1
 90
        0
176
     1
 62
     7
176
     1
 62
   257
176
     1
 90
        1
176
     1
 90
        1
176
     1
 40
1.0
176
     1
 90
        0
176
     1
 62
     7
176
     1
 40
1.0
176
     1
 90
        1
176
     1
 90
        6
176
     1
 90
        2
176
     1
 62
     7
176
     1
 90
        5
176
     1
 90
        0
176
     1
 90
        0
176
     1
290
     0
176
     1
 90
       13
176
     1
 40
0.0
176
     1
 90
        0
176
     1
290
     0
176
     1
290
     1
176
     1
290
     1
176
     1
290
     0
176
     1
290
     0
176
     1
290
     0
176
     1
290
     0
176
     1
290
     0
176
     1
290
     0
176
     1
 90
       50
176
     1
 40
0.0
176
     1
 40
1.0
176
     1
 90
        0
176
     1
 62
    18
420
        0
176
     1
 90
       50
176
     1
 90
        3
176
     1
 62
     5
420
      255
176
     1
290
     0
176
     1
 90
       50
176
     1
 90
       50
176
     1
 90
       50
176
     1
290
     0
176
     1
 90
       50
176
     1
 62
   256
176
     0
 40
1.0
176
     0
 90
        2
176
     1
  1
strokes_ogs.tif
176
     1
290
     0
176
     1
 40
1.0
176
     1
 40
1.0
176
     1
  0
VISUALSTYLE
  5
2E
102
{ACAD_REACTORS
330
2A
102
}
330
2A
100
AcDbVisualStyle
  2
GouraudWithEdges
 70
     3
177
     3
291
     1
 70
    58
 90
        2
176
     1
 90
        2
176
     1
 90
        1
176
     1
 90
        2
176
     1
 40
0.6
176
     1
 40
30.0
176
     1
 62
     7
420
 16777215
176
     1
 90
        1
176
     1
 90
        0
176
     1
 62
     7
176
     1
 62
   257
176
     1
 90
        1
176
     1
 90
        1
176
     1
 40
1.0
176
     1
 90
        0
176
     1
 62
   257
176
     1
 40
1.0
176
     1
 90
        1
176
     1
 90
        6
176
     1
 90
        2
176
     1
 62
     7
176
     1
 90
        5
176
     1
 90
        0
176
     1
 90
        0
176
     1
290
     0
176
     1
 90
       13
176
     1
 40
0.0
176
     1
 90
        0
176
     1
290
     0
176
     1
290
     1
176
     1
290
     1
176
     1
290
     0
176
     1
290
     0
176
     1
290
     0
176
     1
290
     0
176
     1
290
     0
176
     1
290
     0
176
     1
 90
       50
176
     1
 40
0.0
176
     1
 40
1.0
176
     1
 90
        0
176
     1
 62
    18
420
        0
176
     1
 90
       50
176
     1
 90
        3
176
     1
 62
     5
420
      255
176
     1
290
     0
176
     1
 90
       50
176
     1
 90
       50
176
     1
 90
       50
176
     1
290
     0
176
     1
 90
       50
176
     1
 62
   256
176
     0
 40
1.0
176
     0
 90
        2
176
     1
  1
strokes_ogs.tif
176
     1
290
     0
176
     1
 40
1.0
176
     1
 40
1.0
176
     1
  0
VISUALSTYLE
  5
31
102
{ACAD_REACTORS
330
2A
102
}
330
2A
100
AcDbVisualStyle
  2
Hidden
 70
     6
177
     3
291
     0
 70
    58
 90
        1
176
     1
 90
        2
176
     1
 90
        2
176
     1
 90
        0
176
     1
 40
0.6
176
     1
 40
30.0
176
     1
 62
     7
420
 16777215
176
     1
 90
        2
176
     1
 90
        2
176
     1
 62
     7
176
     1
 62
   257
176
     1
 90
        2
176
     1
 90
        1
176
     1
 40
40.0
176
     1
 90
        0
176
     1
 62
   257
176
     1
 40
1.0
176
     1
 90
        1
176
     1
 90
        6
176
     1
 90
        2
176
     1
 62
     7
176
     1
 90
        3
176
     1
 90
        0
176
     1
 90
        0
176
     1
290
     0
176
     1
 90
        1
176
     1
 40
0.0
176
     1
 90
        0
176
     1
290
     0
176
     1
290
     1
176
     1
290
     1
176
     1
290
     0
176
     1
290
     0
176
     1
290
     0
176
     1
290
     0
176
     1
290
     0
176
     1
290
     0
176
     1
 90
       50
176
     1
 40
0.0
176
     1
 40
1.0
176
     1
 90
        0
176
     1
 62
    18
420
        0
176
     1
 90
       50
176
     1
 90
        3
176
     1
 62
     5
420
      255
176
     1
290
     0
176
     1
 90
       50
176
     1
 90
       50
176
     1
 90
       50
176
     1
290
     0
176
     1
 90
       50
176
     1
 62
   256
176
     0
 40
1.0
176
     0
 90
        2
176
     1
  1
strokes_ogs.tif
176
     1
290
     0
176
     1
 40
1.0
176
     1
 40
1.0
176
     1
  0
VISUALSTYLE
  5
3B
102
{ACAD_REACTORS
330
2A
102
}
330
2A
100
AcDbVisualStyle
  2
JitterOff
 70
    20
177
     3
291
     1
 70
    58
 90
        2
176
     0
 90
        2
176
     0
 90
        0
176
     0
 90
        0
176
     0
 40
0.6
176
     0
 40
30.0
176
     0
 62
     7
420
 16777215
176
     0
 90
        1
176
     0
 90
        4
176
     0
 62
     7
176
     0
 62
   257
176
     0
 90
        1
176
     0
 90
        1
176
     0
 40
1.0
176
     0
 90
       10
176
     2
 62
     7
176
     0
 40
1.0
176
     0
 90
        1
176
     0
 90
        6
176
     0
 90
        2
176
     0
 62
     7
176
     0
 90
        5
176
     0
 90
        0
176
     0
 90
        0
176
     0
290
     0
176
     0
 90
        1
176
     0
 40
0.0
176
     0
 90
        0
176
     0
290
     0
176
     0
290
     1
176
     0
290
     1
176
     0
290
     0
176
     0
290
     0
176
     0
290
     0
176
     0
290
     0
176
     0
290
     0
176
     0
290
     0
176
     0
 90
       50
176
     0
 40
0.0
176
     0
 40
1.0
176
     0
 90
        0
176
     0
 62
    18
420
        0
176
     0
 90
       50
176
     0
 90
        3
176
     0
 62
     5
420
      255
176
     0
290
     0
176
     0
 90
       50
176
     0
 90
       50
176
     0
 90
       50
176
     0
290
     0
176
     0
 90
       50
176
     0
 62
   256
176
     0
 40
1.0
176
     0
 90
        2
176
     0
  1
strokes_ogs.tif
176
     0
290
     0
176
     0
 40
1.0
176
     0
 40
1.0
176
     0
  0
VISUALSTYLE
  5
38
102
{ACAD_REACTORS
330
2A
102
}
330
2A
100
AcDbVisualStyle
  2
Linepattern
 70
    14
177
     3
291
     1
 70
    58
 90
        2
176
     1
 90
        2
176
     1
 90
        0
176
     1
 90
        0
176
     1
 40
0.6
176
     1
 40
30.0
176
     1
 62
     7
420
 16777215
176
     1
 90
        1
176
     1
 90
        4
176
     1
 62
     7
176
     1
 62
   257
176
     1
 90
        7
176
     1
 90
        7
176
     1
 40
1.0
176
     1
 90
        8
176
     1
 62
     7
176
     1
 40
1.0
176
     1
 90
        1
176
     1
 90
        6
176
     1
 90
        2
176
     1
 62
     7
176
     1
 90
        5
176
     1
 90
        0
176
     1
 90
        0
176
     1
290
     0
176
     1
 90
        1
176
     1
 40
0.0
176
     1
 90
        0
176
     1
290
     0
176
     1
290
     1
176
     1
290
     1
176
     1
290
     0
176
     1
290
     0
176
     1
290
     0
176
     1
290
     0
176
     1
290
     0
176
     1
290
     0
176
     1
 90
       50
176
     1
 40
0.0
176
     1
 40
1.0
176
     1
 90
        0
176
     1
 62
    18
420
        0
176
     1
 90
       50
176
     1
 90
        3
176
     1
 62
     5
420
      255
176
     1
290
     0
176
     1
 90
       50
176
     1
 90
       50
176
     1
 90
       50
176
     1
290
     0
176
     1
 90
       50
176
     1
 62
   256
176
     0
 40
1.0
176
     0
 90
        2
176
     1
  1
strokes_ogs.tif
176
     1
290
     0
176
     1
 40
1.0
176
     1
 40
1.0
176
     1
  0
VISUALSTYLE
  5
3C
102
{ACAD_REACTORS
330
2A
102
}
330
2A
100
AcDbVisualStyle
  2
OverhangOff
 70
    21
177
     3
291
     1
 70
    58
 90
        2
176
     0
 90
        2
176
     0
 90
        0
176
     0
 90
        0
176
     0
 40
0.6
176
     0
 40
30.0
176
     0
 62
     7
420
 16777215
176
     0
 90
        1
176
     0
 90
        4
176
     0
 62
     7
176
     0
 62
   257
176
     0
 90
        1
176
     0
 90
        1
176
     0
 40
1.0
176
     0
 90
        9
176
     2
 62
     7
176
     0
 40
1.0
176
     0
 90
        1
176
     0
 90
        6
176
     0
 90
        2
176
     0
 62
     7
176
     0
 90
        5
176
     0
 90
        0
176
     0
 90
        0
176
     0
290
     0
176
     0
 90
        1
176
     0
 40
0.0
176
     0
 90
        0
176
     0
290
     0
176
     0
290
     1
176
     0
290
     1
176
     0
290
     0
176
     0
290
     0
176
     0
290
     0
176
     0
290
     0
176
     0
290
     0
176
     0
290
     0
176
     0
 90
       50
176
     0
 40
0.0
176
     0
 40
1.0
176
     0
 90
        0
176
     0
 62
    18
420
        0
176
     0
 90
       50
176
     0
 90
        3
176
     0
 62
     5
420
      255
176
     0
290
     0
176
     0
 90
       50
176
     0
 90
       50
176
     0
 90
       50
176
     0
290
     0
176
     0
 90
       50
176
     0
 62
   256
176
     0
 40
1.0
176
     0
 90
        2
176
     0
  1
strokes_ogs.tif
176
     0
290
     0
176
     0
 40
1.0
176
     0
 40
1.0
176
     0
  0
VISUALSTYLE
  5
33
102
{ACAD_REACTORS
330
2A
102
}
330
2A
100
AcDbVisualStyle
  2
Realistic
 70
     8
177
     3
291
     0
 70
    58
 90
        2
176
     1
 90
        3
176
     1
 90
        0
176
     1
 90
        2
176
     1
 40
0.6
176
     1
 40
30.0
176
     1
 62
     7
420
 16777215
176
     1
 90
        0
176
     1
 90
        0
176
     1
 62
     7
176
     1
 62
   257
176
     1
 90
        1
176
     1
 90
        1
176
     1
 40
1.0
176
     1
 90
        8
176
     1
 62
   257
176
     1
 40
1.0
176
     1
 90
        1
176
     1
 90
        6
176
     1
 90
        2
176
     1
 62
     7
176
     1
 90
        3
176
     1
 90
        0
176
     1
 90
        0
176
     1
290
     0
176
     1
 90
       13
176
     1
 40
0.0
176
     1
 90
        0
176
     1
290
     0
176
     1
290
     1
176
     1
290
     1
176
     1
290
     0
176
     1
290
     0
176
     1
290
     0
176
     1
290
     0
176
     1
290
     0
176
     1
290
     0
176
     1
 90
       50
176
     1
 40
0.0
176
     1
 40
1.0
176
     1
 90
        0
176
     1
 62
    18
420
        0
176
     1
 90
       50
176
     1
 90
        3
176
     1
 62
     5
420
      255
176
     1
290
     0
176
     1
 90
       50
176
     1
 90
       50
176
     1
 90
       50
176
     1
290
     0
176
     1
 90
       50
176
     1
 62
   256
176
     0
 40
1.0
176
     0
 90
        2
176
     1
  1
strokes_ogs.tif
176
     1
290
     0
176
     1
 40
1.0
176
     1
 40
1.0
176
     1
  0
VISUALSTYLE
  5
42
102
{ACAD_REACTORS
330
2A
102
}
330
2A
100
AcDbVisualStyle
  2
Shaded
 70
    27
177
     3
291
     0
 70
    58
 90
        2
176
     1
 90
        2
176
     1
 90
        1
176
     1
 90
        2
176
     1
 40
0.6
176
     1
 40
30.0
176
     1
 62
     7
420
 16777215
176
     1
 90
        0
176
     1
 90
        4
176
     1
 62
     7
176
     1
 62
   257
176
     1
 90
        1
176
     1
 90
        1
176
     1
 40
1.0
176
     1
 90
        8
176
     1
 62
   257
176
     1
 40
1.0
176
     1
 90
        1
176
     1
 90
        6
176
     1
 90
        2
176
     1
 62
     8
420
  7895160
176
     1
 90
        3
176
     1
 90
        0
176
     1
 90
        0
176
     1
290
     0
176
     1
 90
        5
176
     1
 40
0.0
176
     1
 90
        0
176
     1
290
     0
176
     1
290
     1
176
     1
290
     1
176
     1
290
     0
176
     1
290
     0
176
     1
290
     0
176
     1
290
     0
176
     1
290
     0
176
     1
290
     0
176
     1
 90
       50
176
     1
 40
0.0
176
     1
 40
1.0
176
     1
 90
        0
176
     1
 62
    18
420
        0
176
     1
 90
       50
176
     1
 90
        3
176
     1
 62
     5
420
      255
176
     1
290
     0
176
     1
 90
       50
176
     1
 90
       50
176
     1
 90
       50
176
     1
290
     0
176
     1
 90
       50
176
     1
 62
   256
176
     0
 40
1.0
176
     0
 90
        2
176
     1
  1
strokes_ogs.tif
176
     1
290
     0
176
     1
 40
1.0
176
     1
 40
1.0
176
     1
  0
VISUALSTYLE
  5
41
102
{ACAD_REACTORS
330
2A
102
}
330
2A
100
AcDbVisualStyle
  2
Shaded with edges
 70
    26
177
     3
291
     0
 70
    58
 90
        2
176
     1
 90
        2
176
     1
 90
        1
176
     1
 90
        2
176
     1
 40
0.6
176
     1
 40
30.0
176
     1
 62
     7
420
 16777215
176
     1
 90
        1
176
     1
 90
       10
176
     1
 62
     7
176
     1
 62
   257
176
     1
 90
        2
176
     1
 90
        1
176
     1
 40
1.0
176
     1
 90
        8
176
     1
 62
   257
176
     1
 40
1.0
176
     1
 90
        1
176
     1
 90
        6
176
     1
 90
        2
176
     1
 62
     7
176
     1
 90
        3
176
     1
 90
        0
176
     1
 90
        0
176
     1
290
     0
176
     1
 90
        5
176
     1
 40
0.0
176
     1
 90
        0
176
     1
290
     0
176
     1
290
     1
176
     1
290
     1
176
     1
290
     0
176
     1
290
     0
176
     1
290
     0
176
     1
290
     0
176
     1
290
     0
176
     1
290
     0
176
     1
 90
       50
176
     1
 40
0.0
176
     1
 40
1.0
176
     1
 90
        0
176
     1
 62
    18
420
        0
176
     1
 90
       50
176
     1
 90
        3
176
     1
 62
     5
420
      255
176
     1
290
     0
176
     1
 90
       50
176
     1
 90
       50
176
     1
 90
       50
176
     1
290
     0
176
     1
 90
       50
176
     1
 62
   256
176
     0
 40
1.0
176
     0
 90
        2
176
     1
  1
strokes_ogs.tif
176
     1
290
     0
176
     1
 40
1.0
176
     1
 40
1.0
176
     1
  0
VISUALSTYLE
  5
3E
102
{ACAD_REACTORS
330
2A
102
}
330
2A
100
AcDbVisualStyle
  2
Shades of Gray
 70
    23
177
     3
291
     0
 70
    58
 90
        2
176
     1
 90
        2
176
     1
 90
        3
176
     1
 90
        0
176
     1
 40
0.6
176
     1
 40
30.0
176
     1
 62
     7
420
 16777215
176
     1
 90
        2
176
     1
 90
        2
176
     1
 62
     7
176
     1
 62
     7
176
     1
 90
        1
176
     1
 90
        1
176
     1
 40
40.0
176
     1
 90
        8
176
     1
 62
     7
176
     1
 40
1.0
176
     1
 90
        1
176
     1
 90
        6
176
     1
 90
        2
176
     1
 62
     7
176
     1
 90
        3
176
     1
 90
        0
176
     1
 90
        0
176
     1
290
     0
176
     1
 90
        1
176
     1
 40
0.0
176
     1
 90
        0
176
     1
290
     0
176
     1
290
     1
176
     1
290
     1
176
     1
290
     0
176
     1
290
     0
176
     1
290
     0
176
     1
290
     0
176
     1
290
     0
176
     1
290
     0
176
     1
 90
       50
176
     1
 40
0.0
176
     1
 40
1.0
176
     1
 90
        0
176
     1
 62
    18
420
        0
176
     1
 90
       50
176
     1
 90
        3
176
     1
 62
     5
420
      255
176
     1
290
     0
176
     1
 90
       50
176
     1
 90
       50
176
     1
 90
       50
176
     1
290
     0
176
     1
 90
       50
176
     1
 62
   256
176
     0
 40
1.0
176
     0
 90
        2
176
     1
  1
strokes_ogs.tif
176
     1
290
     0
176
     1
 40
1.0
176
     1
 40
1.0
176
     1
  0
VISUALSTYLE
  5
3F
102
{ACAD_REACTORS
330
2A
102
}
330
2A
100
AcDbVisualStyle
  2
Sketchy
 70
    24
177
     3
291
     0
 70
    58
 90
        1
176
     1
 90
        2
176
     1
 90
        2
176
     1
 90
        0
176
     1
 40
0.6
176
     1
 40
30.0
176
     1
 62
     7
420
 16777215
176
     1
 90
        2
176
     1
 90
        2
176
     1
 62
     7
176
     1
 62
     7
176
     1
 90
        1
176
     1
 90
        1
176
     1
 40
40.0
176
     1
 90
       11
176
     1
 62
     7
176
     1
 40
1.0
176
     1
 90
        1
176
     1
 90
        6
176
     1
 90
        2
176
     1
 62
     7
176
     1
 90
        6
176
     1
 90
        0
176
     1
 90
        0
176
     1
290
     0
176
     1
 90
        1
176
     1
 40
0.0
176
     1
 90
        0
176
     1
290
     0
176
     1
290
     1
176
     1
290
     1
176
     1
290
     0
176
     1
290
     0
176
     1
290
     0
176
     1
290
     0
176
     1
290
     0
176
     1
290
     0
176
     1
 90
       50
176
     1
 40
0.0
176
     1
 40
1.0
176
     1
 90
        0
176
     1
 62
    18
420
        0
176
     1
 90
       50
176
     1
 90
        3
176
     1
 62
     5
420
      255
176
     1
290
     0
176
     1
 90
       50
176
     1
 90
       50
176
     1
 90
       50
176
     1
290
     0
176
     1
 90
       50
176
     1
 62
   256
176
     0
 40
1.0
176
     0
 90
        2
176
     1
  1
strokes_ogs.tif
176
     1
290
     0
176
     1
 40
1.0
176
     1
 40
1.0
176
     1
  0
VISUALSTYLE
  5
37
102
{ACAD_REACTORS
330
2A
102
}
330
2A
100
AcDbVisualStyle
  2
Thicken
 70
    13
177
     3
291
     1
 70
    58
 90
        2
176
     1
 90
        2
176
     1
 90
        0
176
     1
 90
        0
176
     1
 40
0.6
176
     1
 40
30.0
176
     1
 62
     7
420
 16777215
176
     1
 90
        1
176
     1
 90
        4
176
     1
 62
     7
176
     1
 62
   257
176
     1
 90
        1
176
     1
 90
        1
176
     1
 40
1.0
176
     1
 90
       12
176
     1
 62
     7
176
     1
 40
1.0
176
     1
 90
        1
176
     1
 90
        6
176
     1
 90
        2
176
     1
 62
     7
176
     1
 90
        5
176
     1
 90
        0
176
     1
 90
        0
176
     1
290
     0
176
     1
 90
        1
176
     1
 40
0.0
176
     1
 90
        0
176
     1
290
     0
176
     1
290
     1
176
     1
290
     1
176
     1
290
     0
176
     1
290
     0
176
     1
290
     0
176
     1
290
     0
176
     1
290
     0
176
     1
290
     0
176
     1
 90
       50
176
     1
 40
0.0
176
     1
 40
1.0
176
     1
 90
        0
176
     1
 62
    18
420
        0
176
     1
 90
       50
176
     1
 90
        3
176
     1
 62
     5
420
      255
176
     1
290
     0
176
     1
 90
       50
176
     1
 90
       50
176
     1
 90
       50
176
     1
290
     0
176
     1
 90
       50
176
     1
 62
   256
176
     0
 40
1.0
176
     0
 90
        2
176
     1
  1
strokes_ogs.tif
176
     1
290
     0
176
     1
 40
1.0
176
     1
 40
1.0
176
     1
  0
VISUALSTYLE
  5
30
102
{ACAD_REACTORS
330
2A
102
}
330
2A
100
AcDbVisualStyle
  2
Wireframe
 70
     5
177
     3
291
     0
 70
    58
 90
        0
176
     1
 90
        2
176
     1
 90
        0
176
     1
 90
        0
176
     1
 40
0.6
176
     1
 40
30.0
176
     1
 62
     7
420
 16777215
176
     1
 90
        1
176
     1
 90
        4
176
     1
 62
     7
176
     1
 62
   257
176
     1
 90
        1
176
     1
 90
        1
176
     1
 40
1.0
176
     1
 90
        0
176
     1
 62
   257
176
     1
 40
1.0
176
     1
 90
        1
176
     1
 90
        6
176
     1
 90
        2
176
     1
 62
     7
176
     1
 90
        3
176
     1
 90
        0
176
     1
 90
        0
176
     1
290
     0
176
     1
 90
        1
176
     1
 40
0.0
176
     1
 90
        0
176
     1
290
     0
176
     1
290
     1
176
     1
290
     1
176
     1
290
     0
176
     1
290
     0
176
     1
290
     0
176
     1
290
     0
176
     1
290
     0
176
     1
290
     0
176
     1
 90
       50
176
     1
 40
0.0
176
     1
 40
1.0
176
     1
 90
        0
176
     1
 62
    18
420
        0
176
     1
 90
       50
176
     1
 90
        3
176
     1
 62
     5
420
      255
176
     1
290
     0
176
     1
 90
       50
176
     1
 90
       50
176
     1
 90
       50
176
     1
290
     0
176
     1
 90
       50
176
     1
 62
   256
176
     0
 40
1.0
176
     0
 90
        2
176
     1
  1
strokes_ogs.tif
176
     1
290
     0
176
     1
 40
1.0
176
     1
 40
1.0
176
     1
  0
VISUALSTYLE
  5
40
102
{ACAD_REACTORS
330
2A
102
}
330
2A
100
AcDbVisualStyle
  2
X-Ray
 70
    25
177
     3
291
     0
 70
    58
 90
        2
176
     1
 90
        2
176
     1
 90
        1
176
     1
 90
        1
176
     1
 40
0.5
176
     1
 40
30.0
176
     1
 62
     7
420
 16777215
176
     1
 90
        1
176
     1
 90
        0
176
     1
 62
     7
176
     1
 62
   257
176
     1
 90
        1
176
     1
 90
        1
176
     1
 40
1.0
176
     1
 90
        8
176
     1
 62
     7
176
     1
 40
1.0
176
     1
 90
        1
176
     1
 90
        6
176
     1
 90
        2
176
     1
 62
     7
176
     1
 90
        3
176
     1
 90
        0
176
     1
 90
        0
176
     1
290
     0
176
     1
 90
       13
176
     1
 40
0.0
176
     1
 90
        0
176
     1
290
     0
176
     1
290
     1
176
     1
290
     1
176
     1
290
     0
176
     1
290
     0
176
     1
290
     0
176
     1
290
     0
176
     1
290
     0
176
     1
290
     0
176
     1
 90
       50
176
     1
 40
0.0
176
     1
 40
1.0
176
     1
 90
        0
176
     1
 62
    18
420
        0
176
     1
 90
       50
176
     1
 90
        3
176
     1
 62
     5
420
      255
176
     1
290
     0
176
     1
 90
       50
176
     1
 90
       50
176
     1
 90
       50
176
     1
290
     0
176
     1
 90
       50
176
     1
 62
   256
176
     0
 40
1.0
176
     0
 90
        2
176
     1
  1
strokes_ogs.tif
176
     1
290
     0
176
     1
 40
1.0
176
     1
 40
1.0
176
     1
  0
DICTIONARYVAR
  5
1F4
102
{ACAD_REACTORS
330
1F3
102
}
330
1F3
100
DictionaryVariables
280
     0
  1
1:1
  0
DICTIONARYVAR
  5
235
102
{ACAD_REACTORS
330
1F3
102
}
330
1F3
100
DictionaryVariables
280
     0
  1
Standard
  0
DICTIONARYVAR
  5
234
102
{ACAD_REACTORS
330
1F3
102
}
330
1F3
100
DictionaryVariables
280
     0
  1
Standard
  0
DICTIONARYVAR
  5
1F5
102
{ACAD_REACTORS
330
1F3
102
}
330
1F3
100
DictionaryVariables
280
     0
  1
1
  0
DICTIONARYVAR
  5
1F6
102
{ACAD_REACTORS
330
1F3
102
}
330
1F3
100
DictionaryVariables
280
     0
  1
2
  0
CSACDOCUMENTOPTIONS
  5
23F
102
{ACAD_REACTORS
330
23E
102
}
330
23E
  0
XRECORD
  5
243
102
{ACAD_REACTORS
330
23A
102
}
330
23A
100
AcDbXrecord
280
     1
300
MC_VERSION_DATA
 90
       95
310
0600000002000000570000001C000000E404000000000000000000007801936764E5D8CF7A8393818115C460606066E0646662626666706006F214793899F8DE3171E725E6E53B3BBA2878E6951050AF75FEFFFFFF520032DE0F3057000000
  0
XRECORD
  5
23B
102
{ACAD_REACTORS
330
23A
102
}
330
23A
100
AcDbXrecord
280
     1
300
MCS_DOCUMENT_ID
 90
       60
310
0600000002000000150000001C000000E404000000000000000000007801E39D7C2C7B5DA3BA81E3F660FFD6361BCF03FF81000067D60B3E15000000
  0
XRECORD
  5
241
102
{ACAD_REACTORS
330
23A
102
}
330
23A
100
AcDbXrecord
280
     1
300
MCS_PARAMS_DATA
 90
     3313
310
0600000002000000F64B00001C000000E404000000000000000000007801C55C5B6C5CC519DE9D595FD6B9DF494B53970A1A6F4A58DF92A6426A1A1210527090E23EF0543976A2BA75E25CAC160A6DA92AF5A55255A96AD556551F4A49A0CF15A03EC0438190865E482021147221409310B6900B3826B1FB7F7366CEFC73E6
310
1CAFBDDE3D9B07D8FF3F73CEF7DFE6FB67E6ECBA757EA3143929F767A4FCCE8636299AA49C90529036BB402C105929F279912F89C6DEAF6FD8BC69AB14A46C51EAC2B9898909BA39945F872C1FCD848A834A91A13B1AD51D6D5266E8A9FAF627E9AABE92BD45CA6F03BD81A3CFC24D59D990C96408C7E066656E0232E13A03
310
14B0AB01724443F05CC3F08780DFC8F19B03FC710A073DC8486413411B49060E3311A05C24C45064703B01D7CCE196A818E5C59C9268B967CBD6DED68ED59DC52EEB78BEF08E09F8223D745649346F1DE9DB35D0B777C089FC5FC3C8EB60BF1A286CF47FE3467F17CC59C5CD990B0CD948C1A77FB9F5CA0E4F479188EA541E
310
3C25A2E22BC99C8892456878B2821857F6B05492C2AD881B41409C21325211340605C9C6DC6006EC49AC088A0CCBB25B1159B72248E415019155047D5453031360047082A7405D92B72AB0F03379693EAB50870260AC609E2C6F6510BB3D081DFE4EF5EFECD71494A7B3590EC7F12C5B25CB32539229914732934ECE22AF1D
310
D259AC8B7B7649E437DE7BDFA69EADF76EE95186E95A7ED74C032DBFA66A9BF1CEF341B19B78E45DDED9EF56FE29189043E4814BF734E1FF34659991678231F23A51010DA578E8294D435524988818E84710A7B2643B4F7C134F5CC6936D1E4176D01398C4D0A83AE0A6BDC86B0BB5C3E1E8299D70A5A945AC12322FE697C4
310
9C8DC3BBBE34D2BA77FBEEA1BEFEED79D15C120DF70F0FEE1A093EF60C8FF47F4BCAB3B0ED666EDB17F5733E2B445B5E2C298985C507BB8BEBBA3A3A3774178B1D777FA5B36B9D327BBE1ED84C030BC74C9EDAB5B64D88BC405AEF1E1CD9D73A34B88F70838775AD5DDBD1B9B6BBABBB73A0ABA37F5D7BE0E757F57D1DB80F
310
037BFBB60D6D6F1DDED1DA3B3CB47D6FDF2EF8A0AD5933506CEF2FF6F7ADD9D6B56D5DFF9A60D6A95222FF670B51F8295953F8455019945B7EE9315C7A8AFEC352DE9D4B4A5050256AA6D1B42D5F0C265BEED4473538E9811F770DEFDCDD3732B86D706870E4A1D69DC303E45F6349C807B6EFCB8B8692103DC352AE816545
310
9E9E798813B5E9A692C86DD9B1A355A5424F8E0BF018466AF90D150136590E2905AA568F782650907D5A7180140B84AD0159F8156902B8F63BDA8BE1A72E29AF48322EA98B5F578631B6F5489B26184C63434803DB221A328E6B58DEAED6DB808FEB6DC068BD0DF8A4DE065CABB7018B3045EB390B3EAD7704C6EA6DC07518
310
10B79C17773A0DB6C361F03BDD064B22C8C7303844629E5064B47323116EB9039777E096BB70247238880C6E39831B9F221C81B3E543C57019D4736C30574EE2DD4AD73B12B9771099772B997713E97A974DF4CECD5D9582B938116EC00926492C777A7F676A8F441E4C882C98032C983211AE26DE8974E196022EC7174366
310
F9AE62C95769E105B5C4B012E2E82ED8CD3516C5E34D519CF0D1F6765A8551C6CC0505130A3E8ABEC46EF81CED54DC1DA04AB7BC4DB0CA082453194AB29B82400C2B438BA6322032B88FE093B3E13470C11297490C8EEF78E88158D51A8AD42283A38F61044E78707A57F8BBDFE2DF2167F36975041D1DA7FCF59430C35792
310
05112533A905D5D3CAAB4759DBB4CA160F3E9309466F934A1794E7E1154C402D3088858048DCDF7EA3E7FECD5B7A7B376D5480CBF43A7E5E49CCBE6BEB37D945B2402FC65F52AB73B67E7F3A58AE93F37A04F6B7011D680556EBCCA2819BC8A21C320F385BBDB4EE56E6E32CE2CB18E358AD7676B4C7C096B1674BAF7B1278
310
1E906198B0DF8681EA696AF34D20563061CAB731C0DB01185B8B0DCA46538BD880EB0E2C6FC3120B40E62289BC162112587895C11513E18290E892090EBF46A9321968C513E0BB89A0AE8F2431B88A7DFC9E07A7BD0A8E668E3AF3CDEA083A3A8ECFB770A00AB53712018F2859D8DB3D93C2E4D422CB77A40BB73A5DB807A7
310
0857A5727AC8838BE45965D0D3D5B29CBEEF99145F4E558AC0C3E9C23D922EDC0FD285FBA107E7958EEDE721E98018A3E3AAC64E7F5C166D7ABA81B65C437BB31D766C74A6ED6E1FBC2766B7AFDAD87156F9771BF44A2A724C461AB43EE729AAFB710D63E2111810BBA3ABC9AE6037E09AB9BF3AB40BE8309F8736AB64CAB2
310
BE7E3364E5AC569CA6976081AF5A311628A8EF68C5B3A4609E3E86AC3AA156E3E83562F4B5A292099A878C61EB3B549CF92354989982613F016CE7AD5A4D09AA1F5126387AAD451EE384D9C035A925859E39C1AA865EE9A9B8DA21CEE289167F7CF1D4C4BC7A125EC5AED5D8BB0B5A9D9144D134CFA71BF85A8D44BE568348
310
F6AA55A2F3CAEACF6982FD29118CC249D3CBF852A586F278BA70FBD3853B90085793EDE51E143F0AD06C6B4CB2242BDDBDD1419166C2865E85F9CE1648F3CBF54B2E655D5432557AB8C599EEE6E763403914E55050D879E2BFFA30F366F009F0CB378371CA9B99D05949929DD07465EA8797A3808B6B06B9536E64AF9C844C
310
903AF2F3709D3783A318A078E4F37AEBBCEC2DD1B228B722F785DC2DB9D64C476675A63353CC74E937B1FA39BFA7DB58A6AFC19E49583A4A9B6110A6BA038D3C80418F79D091B18A763C1D8524AA5361F194EC4CC4B23EDBA3192533E95398E41423EB6DCA1C239B4DBF91D13F6D762A6897D7013D496371DC8BECCAA7D45E
310
0C251095ABC98AA38E1B6540CD3DACF829EF15C38D27C2B92DA64A071D13897001094F16523EC1C9E5A99FF465029665AB5B13C49AF8984D174EA40B273D389D33BB29A272F6749622C2719C22AC925104534E7A8CF33714555C6B3CF3BE4BE0AF28994CA9B8353E0F28878DD26D8D2F007FBAAD11BD305CEB4EAB35BE08B8
310
B8D678FEB81BD9134AB6ADF10A644BBEF9C2334A81E4EAA6772450D87DD2AF49C178F020A0EBD3055FF292CC5B8AB3FC4114C86BA708ACDB15F49C43C04EBBE7FCBD0CA8A1CB2AF59CC3897035E1E39713E16AD873FE91085A131FFF19C04DBEDBF8D75406FD3B3A2842E56C8ABE82A171BC3BF89ECB0E0F287926BC7B0450
310
75E4DDA3C09F2EEF56BE2579157071BCBBE7881BD93E255BDE7D04B225A07C61BD5230DE1DBA8C1158736B225E412358525F03747D78F79897E472BCCBAF5BAF2BA0DDE3804E9B765F2F035A65DA3D910857134A7A2311AE52DA8D6E0E9C1341735A873DD47F12A16BE2E99BE9C275792B70532835F1AEDB838B7404B509F7
310
74C449519D9AA19EB28205FF5B08785CE3F9307262735AC933693C270155C7C6730AF8E9359ED3808B6B3CA387DDC6734EC9B6F1C897238DE72006D89713F9C2E58B91C6F3388D608DE70CA0A7DA7866D30F8008DC16BEAA2D26A2AAB848F4108A0CF46D0F54D7A73989E2C56D75B6B8431D2F6EAB64C5CD94644C04869974
310
1626C5B6A280378D1BEE62BCE2C3917700E714386FAA719B1D7E7D464DF7DD444F8317374E8CAA75BEF65E19D0F8F0523EC21D7470DCC60B8CAEF29753FC38EF4760CFDBF99B4673F680D0869F6742513F06849341B61DF57EE3400A02734628D75C0DBC8B68A868B98655ECA330208EA3C6F1B52E3DF1E8849E2433679564
310
431A886148B568E62C4406F75F64308EFD2F9D7039EA6D259B5B2BF91AD8396F72B01004EFC5CD6C88F911E8CCDF849C077E5C64E9488747967101058B73015D99FA9B900B808B63FFB117DCC85E50324556799F2F34BC086EC70CD18A4318C0D9FF2AB6807CDB718046B0A4BE0FE8B4D9FFA207EA504E3D7E65FA014C7226
310
B329B0E8D703AAFEBAA304E869379E693123CD68457958A4FF2F11AE86ECFF6119D078F6E7138AD87FF2370F86D6E1E34789702D76FED2134932CCA824CB8C811832A3160D33426421BD940847AF6F0C11D33DEECB1CFE9B7175D1F926045DE5BD8DBFBDBE9C081764D0049324E6DDB40A8607F34A225C4D16463974B5B836
310
F3B3A32E193EACE499B49986C93A780A6DA631A981D7A6CD34012EAECDFCF23937B23F51B26D337F80CCDBCC36A5C0ECD07DE7E7A7236D663D8D6033A419D0536D33E07F56B8C4CA7C0D48229F9610695A461A0883CE7B494E8DD95B004DF38E8247AB09FE45AC1A52EDAC32A0861DD8DA85D8A76276989D08579353913989
310
700119397510D9BB4CAB9DF096393711B4263ECE4B176E7EBA700B3C389DB3F0B5335AA6A7234288EA142D784A9083AFB414616018456CF64C3293C4CD2F49D3E5A5F0410CEE3E0F2E6A6FEA11580893E29AEE529C2FC11C4DF48D4AA628982DB44A422820F8563073C8F989CF2240392BED74F7768B819FDEDE6E09E0E29A
310
EE0AFA030B3CB273954C91D5916E83CC9BEE074FAB1E6B73B11CFB6CBEB73B4C23589D2D05F4CC9AAE2E4C768646F0614DBB4BD40606BDCC4B726A4DF72640A7DD749797013521AB4ED3C5971C1BF2225712D922FD192CAA82F186C253F467B664EED8B163100EA1787299890C1D4314EEF90B040C236113FD72905624B8F0
310
99FF03A92412CEF64B0000
  0
DICTIONARY
  5
245
330
5A
100
AcDbDictionary
280
     1
281
     1
  3
ACAD_ROUNDTRIP_2008_TABLESTYLE_CELLSTYLEMAP
360
246
  0
CELLSTYLEMAP
  5
246
102
{ACAD_REACTORS
330
245
102
}
330
245
100
AcDbCellStyleMap
 90
        3
300
CELLSTYLE
  1
TABLEFORMAT_BEGIN
 90
        5
170
     1
 91
        0
 92
    32768
 62
   257
 93
        1
300
CONTENTFORMAT
  1
CONTENTFORMAT_BEGIN
 90
        0
 91
        0
 92
        4
 93
        0
300

 40
0.0
140
1.0
 94
        5
 62
     0
340
11
144
0.25
309
CONTENTFORMAT_END
171
     1
301
MARGIN
  1
CELLMARGIN_BEGIN
 40
0.06
 40
0.06
 40
0.06
 40
0.06
 40
0.06
 40
0.06
309
CELLMARGIN_END
 94
        6
 95
        1
302
GRIDFORMAT
  1
GRIDFORMAT_BEGIN
 90
        0
 91
        1
 62
     0
 92
       -2
340
14
 93
        0
 40
0.045
309
GRIDFORMAT_END
 95
        2
302
GRIDFORMAT
  1
GRIDFORMAT_BEGIN
 90
        0
 91
        1
 62
     0
 92
       -2
340
14
 93
        0
 40
0.045
309
GRIDFORMAT_END
 95
        4
302
GRIDFORMAT
  1
GRIDFORMAT_BEGIN
 90
        0
 91
        1
 62
     0
 92
       -2
340
14
 93
        0
 40
0.045
309
GRIDFORMAT_END
 95
        8
302
GRIDFORMAT
  1
GRIDFORMAT_BEGIN
 90
        0
 91
        1
 62
     0
 92
       -2
340
14
 93
        0
 40
0.045
309
GRIDFORMAT_END
 95
       16
302
GRIDFORMAT
  1
GRIDFORMAT_BEGIN
 90
        0
 91
        1
 62
     0
 92
       -2
340
14
 93
        0
 40
0.045
309
GRIDFORMAT_END
 95
       32
302
GRIDFORMAT
  1
GRIDFORMAT_BEGIN
 90
        0
 91
        1
 62
     0
 92
       -2
340
14
 93
        0
 40
0.045
309
GRIDFORMAT_END
309
TABLEFORMAT_END
  1
CELLSTYLE_BEGIN
 90
        1
 91
        1
300
_TITLE
309
CELLSTYLE_END
300
CELLSTYLE
  1
TABLEFORMAT_BEGIN
 90
        5
170
     1
 91
        0
 92
        0
 62
   257
 93
        1
300
CONTENTFORMAT
  1
CONTENTFORMAT_BEGIN
 90
        0
 91
        0
 92
        4
 93
        0
300

 40
0.0
140
1.0
 94
        5
 62
     0
340
11
144
0.18
309
CONTENTFORMAT_END
171
     1
301
MARGIN
  1
CELLMARGIN_BEGIN
 40
0.06
 40
0.06
 40
0.06
 40
0.06
 40
0.06
 40
0.06
309
CELLMARGIN_END
 94
        6
 95
        1
302
GRIDFORMAT
  1
GRIDFORMAT_BEGIN
 90
        0
 91
        1
 62
     0
 92
       -2
340
14
 93
        0
 40
0.045
309
GRIDFORMAT_END
 95
        2
302
GRIDFORMAT
  1
GRIDFORMAT_BEGIN
 90
        0
 91
        1
 62
     0
 92
       -2
340
14
 93
        0
 40
0.045
309
GRIDFORMAT_END
 95
        4
302
GRIDFORMAT
  1
GRIDFORMAT_BEGIN
 90
        0
 91
        1
 62
     0
 92
       -2
340
14
 93
        0
 40
0.045
309
GRIDFORMAT_END
 95
        8
302
GRIDFORMAT
  1
GRIDFORMAT_BEGIN
 90
        0
 91
        1
 62
     0
 92
       -2
340
14
 93
        0
 40
0.045
309
GRIDFORMAT_END
 95
       16
302
GRIDFORMAT
  1
GRIDFORMAT_BEGIN
 90
        0
 91
        1
 62
     0
 92
       -2
340
14
 93
        0
 40
0.045
309
GRIDFORMAT_END
 95
       32
302
GRIDFORMAT
  1
GRIDFORMAT_BEGIN
 90
        0
 91
        1
 62
     0
 92
       -2
340
14
 93
        0
 40
0.045
309
GRIDFORMAT_END
309
TABLEFORMAT_END
  1
CELLSTYLE_BEGIN
 90
        2
 91
        1
300
_HEADER
309
CELLSTYLE_END
300
CELLSTYLE
  1
TABLEFORMAT_BEGIN
 90
        5
170
     1
 91
        0
 92
        0
 62
   257
 93
        1
300
CONTENTFORMAT
  1
CONTENTFORMAT_BEGIN
 90
        0
 91
        0
 92
        4
 93
        0
300

 40
0.0
140
1.0
 94
        2
 62
     0
340
11
144
0.18
309
CONTENTFORMAT_END
171
     1
301
MARGIN
  1
CELLMARGIN_BEGIN
 40
0.06
 40
0.06
 40
0.06
 40
0.06
 40
0.06
 40
0.06
309
CELLMARGIN_END
 94
        6
 95
        1
302
GRIDFORMAT
  1
GRIDFORMAT_BEGIN
 90
        0
 91
        1
 62
     0
 92
       -2
340
14
 93
        0
 40
0.045
309
GRIDFORMAT_END
 95
        2
302
GRIDFORMAT
  1
GRIDFORMAT_BEGIN
 90
        0
 91
        1
 62
     0
 92
       -2
340
14
 93
        0
 40
0.045
309
GRIDFORMAT_END
 95
        4
302
GRIDFORMAT
  1
GRIDFORMAT_BEGIN
 90
        0
 91
        1
 62
     0
 92
       -2
340
14
 93
        0
 40
0.045
309
GRIDFORMAT_END
 95
        8
302
GRIDFORMAT
  1
GRIDFORMAT_BEGIN
 90
        0
 91
        1
 62
     0
 92
       -2
340
14
 93
        0
 40
0.045
309
GRIDFORMAT_END
 95
       16
302
GRIDFORMAT
  1
GRIDFORMAT_BEGIN
 90
        0
 91
        1
 62
     0
 92
       -2
340
14
 93
        0
 40
0.045
309
GRIDFORMAT_END
 95
       32
302
GRIDFORMAT
  1
GRIDFORMAT_BEGIN
 90
        0
 91
        1
 62
     0
 92
       -2
340
14
 93
        0
 40
0.045
309
GRIDFORMAT_END
309
TABLEFORMAT_END
  1
CELLSTYLE_BEGIN
 90
        3
 91
        2
300
_DATA
309
CELLSTYLE_END
  0
ENDSEC
  0
EOF
